<?xml version="1.0" encoding="UTF-8" standalone="no"?>
<!DOCTYPE svg PUBLIC "-//W3C//DTD SVG 1.1//EN"
 "http://www.w3.org/Graphics/SVG/1.1/DTD/svg11.dtd">
<!-- Generated by graphviz version 2.40.1 (20161225.0304)
 -->
<!-- Title: twoDegreesRelationshipsDiagram Pages: 1 -->
<svg width="903pt" height="603pt"
 viewBox="0.00 0.00 903.00 603.20" xmlns="http://www.w3.org/2000/svg" xmlns:xlink="http://www.w3.org/1999/xlink">
<g id="graph0" class="graph" transform="scale(1 1) rotate(0) translate(4 599.2)">
<title>twoDegreesRelationshipsDiagram</title>
<polygon fill="#ffffff" stroke="transparent" points="-4,4 -4,-599.2 899,-599.2 899,4 -4,4"/>
<text text-anchor="middle" x="72.4936" y="-7.3" font-family="Helvetica,sans-Serif" font-size="11.00" fill="#000000">Generated by SchemaSpy</text>
<!-- cell_used_for -->
<g id="node1" class="node">
<title>cell_used_for</title>
<g id="a_node1"><a xlink:href="../../tables/cell_used_for.html" xlink:title="cell_used_for" target="_top">
<polygon fill="#ffffff" stroke="transparent" points="702,-530.2 702,-591.2 828,-591.2 828,-530.2 702,-530.2"/>
<polygon fill="#f5f5f5" stroke="transparent" points="702,-567.7 702,-590.7 828,-590.7 828,-567.7 702,-567.7"/>
<polygon fill="none" stroke="#000000" points="702,-567.7 702,-590.7 828,-590.7 828,-567.7 702,-567.7"/>
<text text-anchor="start" x="707" y="-576.3" font-family="Helvetica,sans-Serif" font-weight="bold" font-size="11.00" fill="#000000">cell_used_for</text>
<text text-anchor="start" x="793.5219" y="-575.8" font-family="Helvetica,sans-Serif" font-size="11.00" fill="#000000">[table]</text>
<polygon fill="none" stroke="#000000" points="702,-548.7 702,-567.7 828,-567.7 828,-548.7 702,-548.7"/>
<text text-anchor="start" x="705" y="-554.8" font-family="Helvetica,sans-Serif" font-size="11.00" fill="#000000">...</text>
<polygon fill="#ffffff" stroke="transparent" points="702,-529.7 702,-548.7 763,-548.7 763,-529.7 702,-529.7"/>
<polygon fill="none" stroke="#000000" points="702,-529.7 702,-548.7 763,-548.7 763,-529.7 702,-529.7"/>
<text text-anchor="start" x="705" y="-535.8" font-family="Helvetica,sans-Serif" font-size="11.00" fill="#000000">&lt; 1</text>
<polygon fill="#ffffff" stroke="transparent" points="763,-529.7 763,-548.7 795,-548.7 795,-529.7 763,-529.7"/>
<polygon fill="none" stroke="#000000" points="763,-529.7 763,-548.7 795,-548.7 795,-529.7 763,-529.7"/>
<text text-anchor="start" x="785.8862" y="-535.8" font-family="Helvetica,sans-Serif" font-size="11.00" fill="#000000"> &#160;</text>
<polygon fill="#ffffff" stroke="transparent" points="795,-529.7 795,-548.7 828,-548.7 828,-529.7 795,-529.7"/>
<polygon fill="none" stroke="#000000" points="795,-529.7 795,-548.7 828,-548.7 828,-529.7 795,-529.7"/>
<text text-anchor="start" x="818.8862" y="-535.8" font-family="Helvetica,sans-Serif" font-size="11.00" fill="#000000"> &#160;</text>
</a>
</g>
</g>
<!-- location -->
<g id="node2" class="node">
<title>location</title>
<g id="a_node2"><a xlink:href="../../tables/location.html" xlink:title="location" target="_top">
<polygon fill="#ffffff" stroke="transparent" points="355,-65.2 355,-346.2 594,-346.2 594,-65.2 355,-65.2"/>
<polygon fill="#f5f5f5" stroke="transparent" points="355.5,-322.7 355.5,-345.7 594.5,-345.7 594.5,-322.7 355.5,-322.7"/>
<polygon fill="none" stroke="#000000" points="355.5,-322.7 355.5,-345.7 594.5,-345.7 594.5,-322.7 355.5,-322.7"/>
<text text-anchor="start" x="360.5" y="-331.3" font-family="Helvetica,sans-Serif" font-weight="bold" font-size="11.00" fill="#000000">location</text>
<text text-anchor="start" x="559.5437" y="-330.8" font-family="Helvetica,sans-Serif" font-size="11.00" fill="#000000">[table]</text>
<polygon fill="none" stroke="#000000" points="355.5,-300.7 355.5,-322.7 594.5,-322.7 594.5,-300.7 355.5,-300.7"/>
<image xlink:href="../../images/primaryKeys.png" width="11px" height="12px" preserveAspectRatio="xMinYMin meet" x="360.5" y="-317.7"/>
<text text-anchor="start" x="375.5" y="-307.8" font-family="Helvetica,sans-Serif" font-size="11.00" fill="#000000">id</text>
<polygon fill="#ffffff" stroke="transparent" points="355.5,-278.7 355.5,-300.7 594.5,-300.7 594.5,-278.7 355.5,-278.7"/>
<polygon fill="none" stroke="#000000" points="355.5,-278.7 355.5,-300.7 594.5,-300.7 594.5,-278.7 355.5,-278.7"/>
<image xlink:href="../../images/foreignKeys.png" width="11px" height="12px" preserveAspectRatio="xMinYMin meet" x="360.5" y="-295.7"/>
<text text-anchor="start" x="375.5" y="-285.8" font-family="Helvetica,sans-Serif" font-size="11.00" fill="#000000">prison_id</text>
<polygon fill="#ffffff" stroke="transparent" points="355.5,-256.7 355.5,-278.7 594.5,-278.7 594.5,-256.7 355.5,-256.7"/>
<polygon fill="none" stroke="#000000" points="355.5,-256.7 355.5,-278.7 594.5,-278.7 594.5,-256.7 355.5,-256.7"/>
<text text-anchor="start" x="375.5" y="-263.8" font-family="Helvetica,sans-Serif" font-size="11.00" fill="#000000">path_hierarchy</text>
<polygon fill="#ffffff" stroke="transparent" points="355.5,-234.7 355.5,-256.7 594.5,-256.7 594.5,-234.7 355.5,-234.7"/>
<polygon fill="none" stroke="#000000" points="355.5,-234.7 355.5,-256.7 594.5,-256.7 594.5,-234.7 355.5,-234.7"/>
<text text-anchor="start" x="375.5" y="-241.8" font-family="Helvetica,sans-Serif" font-size="11.00" fill="#000000">code</text>
<polygon fill="#ffffff" stroke="transparent" points="355.5,-212.7 355.5,-234.7 594.5,-234.7 594.5,-212.7 355.5,-212.7"/>
<polygon fill="none" stroke="#000000" points="355.5,-212.7 355.5,-234.7 594.5,-234.7 594.5,-212.7 355.5,-212.7"/>
<text text-anchor="start" x="375.5" y="-219.8" font-family="Helvetica,sans-Serif" font-size="11.00" fill="#000000">location_type</text>
<polygon fill="#ffffff" stroke="transparent" points="355.5,-190.7 355.5,-212.7 594.5,-212.7 594.5,-190.7 355.5,-190.7"/>
<polygon fill="none" stroke="#000000" points="355.5,-190.7 355.5,-212.7 594.5,-212.7 594.5,-190.7 355.5,-190.7"/>
<image xlink:href="../../images/foreignKeys.png" width="11px" height="12px" preserveAspectRatio="xMinYMin meet" x="360.5" y="-207.7"/>
<text text-anchor="start" x="375.5" y="-197.8" font-family="Helvetica,sans-Serif" font-size="11.00" fill="#000000">parent_id</text>
<polygon fill="#ffffff" stroke="transparent" points="355.5,-168.7 355.5,-190.7 594.5,-190.7 594.5,-168.7 355.5,-168.7"/>
<polygon fill="none" stroke="#000000" points="355.5,-168.7 355.5,-190.7 594.5,-190.7 594.5,-168.7 355.5,-168.7"/>
<text text-anchor="start" x="375.5" y="-175.8" font-family="Helvetica,sans-Serif" font-size="11.00" fill="#000000">residential_housing_type</text>
<polygon fill="#ffffff" stroke="transparent" points="355.5,-146.7 355.5,-168.7 594.5,-168.7 594.5,-146.7 355.5,-146.7"/>
<polygon fill="none" stroke="#000000" points="355.5,-146.7 355.5,-168.7 594.5,-168.7 594.5,-146.7 355.5,-146.7"/>
<image xlink:href="../../images/foreignKeys.png" width="11px" height="12px" preserveAspectRatio="xMinYMin meet" x="360.5" y="-163.7"/>
<text text-anchor="start" x="375.5" y="-153.8" font-family="Helvetica,sans-Serif" font-size="11.00" fill="#000000">capacity_id</text>
<polygon fill="#ffffff" stroke="transparent" points="355.5,-124.7 355.5,-146.7 594.5,-146.7 594.5,-124.7 355.5,-124.7"/>
<polygon fill="none" stroke="#000000" points="355.5,-124.7 355.5,-146.7 594.5,-146.7 594.5,-124.7 355.5,-124.7"/>
<text text-anchor="start" x="375.5" y="-131.8" font-family="Helvetica,sans-Serif" font-size="11.00" fill="#000000">location_type_discriminator</text>
<polygon fill="#ffffff" stroke="transparent" points="355.5,-102.7 355.5,-124.7 594.5,-124.7 594.5,-102.7 355.5,-102.7"/>
<polygon fill="none" stroke="#000000" points="355.5,-102.7 355.5,-124.7 594.5,-124.7 594.5,-102.7 355.5,-102.7"/>
<text text-anchor="start" x="375.5" y="-109.8" font-family="Helvetica,sans-Serif" font-size="11.00" fill="#000000">status</text>
<polygon fill="none" stroke="#000000" points="355.5,-83.7 355.5,-102.7 594.5,-102.7 594.5,-83.7 355.5,-83.7"/>
<text text-anchor="start" x="358.5" y="-89.8" font-family="Helvetica,sans-Serif" font-size="11.00" fill="#000000">...</text>
<polygon fill="#ffffff" stroke="transparent" points="355.5,-64.7 355.5,-83.7 468.5,-83.7 468.5,-64.7 355.5,-64.7"/>
<polygon fill="none" stroke="#000000" points="355.5,-64.7 355.5,-83.7 468.5,-83.7 468.5,-64.7 355.5,-64.7"/>
<text text-anchor="start" x="358.5" y="-70.8" font-family="Helvetica,sans-Serif" font-size="11.00" fill="#000000">&lt; 2</text>
<polygon fill="#ffffff" stroke="transparent" points="468.5,-64.7 468.5,-83.7 526.5,-83.7 526.5,-64.7 468.5,-64.7"/>
<polygon fill="none" stroke="#000000" points="468.5,-64.7 468.5,-83.7 526.5,-83.7 526.5,-64.7 468.5,-64.7"/>
<text text-anchor="start" x="517.3862" y="-70.8" font-family="Helvetica,sans-Serif" font-size="11.00" fill="#000000"> &#160;</text>
<polygon fill="#ffffff" stroke="transparent" points="526.5,-64.7 526.5,-83.7 594.5,-83.7 594.5,-64.7 526.5,-64.7"/>
<polygon fill="none" stroke="#000000" points="526.5,-64.7 526.5,-83.7 594.5,-83.7 594.5,-64.7 526.5,-64.7"/>
<text text-anchor="start" x="575.9053" y="-70.8" font-family="Helvetica,sans-Serif" font-size="11.00" fill="#000000">8 &gt;</text>
</a>
</g>
</g>
<!-- cell_used_for&#45;&gt;location -->
<g id="edge1" class="edge">
<title>cell_used_for:w&#45;&gt;location:e</title>
<path fill="none" stroke="#000000" d="M687.4152,-556.9241C663.5978,-554.0803 651.8673,-543.1483 635,-519.7 580.0031,-443.2453 688.6805,-311.7 594.5,-311.7"/>
<polygon fill="#000000" stroke="#000000" points="694.0113,-557.275 701.8087,-561.2949 698.0056,-557.4875 702,-557.7 702,-557.7 702,-557.7 698.0056,-557.4875 702.1913,-554.1051 694.0113,-557.275 694.0113,-557.275"/>
<ellipse fill="none" stroke="#000000" cx="690.8158" cy="-557.105" rx="3.2" ry="3.2"/>
</g>
<!-- capacity -->
<g id="node4" class="node">
<title>capacity</title>
<g id="a_node4"><a xlink:href="../../tables/capacity.html" xlink:title="capacity" target="_top">
<polygon fill="#ffffff" stroke="transparent" points="8,-59.7 8,-193.7 306,-193.7 306,-59.7 8,-59.7"/>
<polygon fill="#f5f5f5" stroke="transparent" points="10,-168.7 10,-191.7 304,-191.7 304,-168.7 10,-168.7"/>
<polygon fill="none" stroke="#000000" points="10,-168.7 10,-191.7 304,-191.7 304,-168.7 10,-168.7"/>
<text text-anchor="start" x="15" y="-177.3" font-family="Helvetica,sans-Serif" font-weight="bold" font-size="11.00" fill="#000000">capacity</text>
<text text-anchor="start" x="269.0437" y="-176.8" font-family="Helvetica,sans-Serif" font-size="11.00" fill="#000000">[table]</text>
<polygon fill="none" stroke="#000000" points="10,-146.7 10,-168.7 254,-168.7 254,-146.7 10,-146.7"/>
<image xlink:href="../../images/primaryKeys.png" width="11px" height="12px" preserveAspectRatio="xMinYMin meet" x="15" y="-163.7"/>
<text text-anchor="start" x="30" y="-153.8" font-family="Helvetica,sans-Serif" font-size="11.00" fill="#000000">id</text>
<polygon fill="none" stroke="#000000" points="254,-146.7 254,-168.7 304,-168.7 304,-146.7 254,-146.7"/>
<text text-anchor="start" x="256.6915" y="-154.4" font-family="Helvetica,sans-Serif" font-size="11.00" fill="#000000">serial[10]</text>
<polygon fill="none" stroke="#000000" points="10,-124.7 10,-146.7 254,-146.7 254,-124.7 10,-124.7"/>
<text text-anchor="start" x="30" y="-131.8" font-family="Helvetica,sans-Serif" font-size="11.00" fill="#000000">max_capacity</text>
<polygon fill="none" stroke="#000000" points="254,-124.7 254,-146.7 304,-146.7 304,-124.7 254,-124.7"/>
<text text-anchor="start" x="257" y="-132.4" font-family="Helvetica,sans-Serif" font-size="11.00" fill="#000000">int4[10]</text>
<polygon fill="none" stroke="#000000" points="10,-102.7 10,-124.7 254,-124.7 254,-102.7 10,-102.7"/>
<text text-anchor="start" x="30" y="-109.8" font-family="Helvetica,sans-Serif" font-size="11.00" fill="#000000">working_capacity</text>
<polygon fill="none" stroke="#000000" points="254,-102.7 254,-124.7 304,-124.7 304,-102.7 254,-102.7"/>
<text text-anchor="start" x="257" y="-110.4" font-family="Helvetica,sans-Serif" font-size="11.00" fill="#000000">int4[10]</text>
<polygon fill="none" stroke="#000000" points="10,-80.7 10,-102.7 254,-102.7 254,-80.7 10,-80.7"/>
<text text-anchor="start" x="30" y="-87.8" font-family="Helvetica,sans-Serif" font-size="11.00" fill="#000000">certified_normal_accommodation</text>
<polygon fill="none" stroke="#000000" points="254,-80.7 254,-102.7 304,-102.7 304,-80.7 254,-80.7"/>
<text text-anchor="start" x="257" y="-88.4" font-family="Helvetica,sans-Serif" font-size="11.00" fill="#000000">int4[10]</text>
<polygon fill="#ffffff" stroke="transparent" points="10,-61.7 10,-80.7 136,-80.7 136,-61.7 10,-61.7"/>
<polygon fill="none" stroke="#000000" points="10,-61.7 10,-80.7 136,-80.7 136,-61.7 10,-61.7"/>
<text text-anchor="start" x="13" y="-67.8" font-family="Helvetica,sans-Serif" font-size="11.00" fill="#000000">&lt; 0</text>
<polygon fill="#ffffff" stroke="transparent" points="136,-61.7 136,-80.7 254,-80.7 254,-61.7 136,-61.7"/>
<polygon fill="none" stroke="#000000" points="136,-61.7 136,-80.7 254,-80.7 254,-61.7 136,-61.7"/>
<text text-anchor="start" x="244.8862" y="-67.8" font-family="Helvetica,sans-Serif" font-size="11.00" fill="#000000"> &#160;</text>
<polygon fill="#ffffff" stroke="transparent" points="254,-61.7 254,-80.7 304,-80.7 304,-61.7 254,-61.7"/>
<polygon fill="none" stroke="#000000" points="254,-61.7 254,-80.7 304,-80.7 304,-61.7 254,-61.7"/>
<text text-anchor="start" x="285.4053" y="-67.8" font-family="Helvetica,sans-Serif" font-size="11.00" fill="#000000">1 &gt;</text>
<polygon fill="none" stroke="#000000" stroke-width="2" points="9,-60.7 9,-192.7 305,-192.7 305,-60.7 9,-60.7"/>
</a>
</g>
</g>
<!-- location&#45;&gt;capacity -->
<g id="edge3" class="edge">
<title>location:w&#45;&gt;capacity:e</title>
<path fill="none" stroke="#000000" d="M341.0156,-157.7C328.6771,-157.7 321.1667,-157.7 304,-157.7"/>
<polygon fill="#000000" stroke="#000000" points="347.5,-157.7001 355.5,-161.3 351.5,-157.7 355.5,-157.7 355.5,-157.7 355.5,-157.7 351.5,-157.7 355.5,-154.1 347.5,-157.7001 347.5,-157.7001"/>
<ellipse fill="none" stroke="#000000" cx="344.3" cy="-157.7001" rx="3.2" ry="3.2"/>
</g>
<!-- certification_approval_request -->
<g id="node3" class="node">
<title>certification_approval_request</title>
<g id="a_node3"><a xlink:href="../../tables/certification_approval_request.html" xlink:title="certification_approval_request" target="_top">
<polygon fill="#ffffff" stroke="transparent" points="643,-448.2 643,-509.2 887,-509.2 887,-448.2 643,-448.2"/>
<polygon fill="#f5f5f5" stroke="transparent" points="643,-485.7 643,-508.7 887,-508.7 887,-485.7 643,-485.7"/>
<polygon fill="none" stroke="#000000" points="643,-485.7 643,-508.7 887,-508.7 887,-485.7 643,-485.7"/>
<text text-anchor="start" x="648" y="-494.3" font-family="Helvetica,sans-Serif" font-weight="bold" font-size="11.00" fill="#000000">certification_approval_request</text>
<text text-anchor="start" x="852.5219" y="-493.8" font-family="Helvetica,sans-Serif" font-size="11.00" fill="#000000">[table]</text>
<polygon fill="none" stroke="#000000" points="643,-466.7 643,-485.7 887,-485.7 887,-466.7 643,-466.7"/>
<text text-anchor="start" x="646" y="-472.8" font-family="Helvetica,sans-Serif" font-size="11.00" fill="#000000">...</text>
<polygon fill="#ffffff" stroke="transparent" points="643,-447.7 643,-466.7 759,-466.7 759,-447.7 643,-447.7"/>
<polygon fill="none" stroke="#000000" points="643,-447.7 643,-466.7 759,-466.7 759,-447.7 643,-447.7"/>
<text text-anchor="start" x="646" y="-453.8" font-family="Helvetica,sans-Serif" font-size="11.00" fill="#000000">&lt; 1</text>
<polygon fill="#ffffff" stroke="transparent" points="759,-447.7 759,-466.7 818,-466.7 818,-447.7 759,-447.7"/>
<polygon fill="none" stroke="#000000" points="759,-447.7 759,-466.7 818,-466.7 818,-447.7 759,-447.7"/>
<text text-anchor="start" x="808.8862" y="-453.8" font-family="Helvetica,sans-Serif" font-size="11.00" fill="#000000"> &#160;</text>
<polygon fill="#ffffff" stroke="transparent" points="818,-447.7 818,-466.7 887,-466.7 887,-447.7 818,-447.7"/>
<polygon fill="none" stroke="#000000" points="818,-447.7 818,-466.7 887,-466.7 887,-447.7 818,-447.7"/>
<text text-anchor="start" x="868.4053" y="-453.8" font-family="Helvetica,sans-Serif" font-size="11.00" fill="#000000">2 &gt;</text>
</a>
</g>
</g>
<!-- certification_approval_request&#45;&gt;location -->
<g id="edge2" class="edge">
<title>certification_approval_request:w&#45;&gt;location:e</title>
<path fill="none" stroke="#000000" d="M628.5969,-472.9903C581.7194,-451.6672 664.7196,-311.7 594.5,-311.7"/>
<polygon fill="#000000" stroke="#000000" points="635.1379,-474.2208 642.3344,-479.2379 639.069,-474.9604 643,-475.7 643,-475.7 643,-475.7 639.069,-474.9604 643.6656,-472.1621 635.1379,-474.2208 635.1379,-474.2208"/>
<ellipse fill="none" stroke="#000000" cx="631.9931" cy="-473.6292" rx="3.2" ry="3.2"/>
</g>
<!-- location_history -->
<g id="node5" class="node">
<title>location_history</title>
<g id="a_node5"><a xlink:href="../../tables/location_history.html" xlink:title="location_history" target="_top">
<polygon fill="#ffffff" stroke="transparent" points="692,-366.2 692,-427.2 838,-427.2 838,-366.2 692,-366.2"/>
<polygon fill="#f5f5f5" stroke="transparent" points="692,-403.7 692,-426.7 838,-426.7 838,-403.7 692,-403.7"/>
<polygon fill="none" stroke="#000000" points="692,-403.7 692,-426.7 838,-426.7 838,-403.7 692,-403.7"/>
<text text-anchor="start" x="697" y="-412.3" font-family="Helvetica,sans-Serif" font-weight="bold" font-size="11.00" fill="#000000">location_history</text>
<text text-anchor="start" x="803.5219" y="-411.8" font-family="Helvetica,sans-Serif" font-size="11.00" fill="#000000">[table]</text>
<polygon fill="none" stroke="#000000" points="692,-384.7 692,-403.7 838,-403.7 838,-384.7 692,-384.7"/>
<text text-anchor="start" x="695" y="-390.8" font-family="Helvetica,sans-Serif" font-size="11.00" fill="#000000">...</text>
<polygon fill="#ffffff" stroke="transparent" points="692,-365.7 692,-384.7 763,-384.7 763,-365.7 692,-365.7"/>
<polygon fill="none" stroke="#000000" points="692,-365.7 692,-384.7 763,-384.7 763,-365.7 692,-365.7"/>
<text text-anchor="start" x="695" y="-371.8" font-family="Helvetica,sans-Serif" font-size="11.00" fill="#000000">&lt; 2</text>
<polygon fill="#ffffff" stroke="transparent" points="763,-365.7 763,-384.7 800,-384.7 800,-365.7 763,-365.7"/>
<polygon fill="none" stroke="#000000" points="763,-365.7 763,-384.7 800,-384.7 800,-365.7 763,-365.7"/>
<text text-anchor="start" x="790.8862" y="-371.8" font-family="Helvetica,sans-Serif" font-size="11.00" fill="#000000"> &#160;</text>
<polygon fill="#ffffff" stroke="transparent" points="800,-365.7 800,-384.7 838,-384.7 838,-365.7 800,-365.7"/>
<polygon fill="none" stroke="#000000" points="800,-365.7 800,-384.7 838,-384.7 838,-365.7 800,-365.7"/>
<text text-anchor="start" x="828.8862" y="-371.8" font-family="Helvetica,sans-Serif" font-size="11.00" fill="#000000"> &#160;</text>
</a>
</g>
</g>
<!-- location_history&#45;&gt;location -->
<g id="edge4" class="edge">
<title>location_history:w&#45;&gt;location:e</title>
<path fill="none" stroke="#000000" d="M677.6748,-391.9612C659.6353,-386.9591 653.8927,-371.8536 635,-355.7 614.7988,-338.4277 621.0786,-311.7 594.5,-311.7"/>
<polygon fill="#000000" stroke="#000000" points="684.0583,-392.736 691.5662,-397.2738 688.0291,-393.218 692,-393.7 692,-393.7 692,-393.7 688.0291,-393.218 692.4338,-390.1262 684.0583,-392.736 684.0583,-392.736"/>
<ellipse fill="none" stroke="#000000" cx="680.8816" cy="-392.3504" rx="3.2" ry="3.2"/>
</g>
<!-- non_residential_usage -->
<g id="node6" class="node">
<title>non_residential_usage</title>
<g id="a_node6"><a xlink:href="../../tables/non_residential_usage.html" xlink:title="non_residential_usage" target="_top">
<polygon fill="#ffffff" stroke="transparent" points="670.5,-284.2 670.5,-345.2 859.5,-345.2 859.5,-284.2 670.5,-284.2"/>
<polygon fill="#f5f5f5" stroke="transparent" points="671,-321.7 671,-344.7 860,-344.7 860,-321.7 671,-321.7"/>
<polygon fill="none" stroke="#000000" points="671,-321.7 671,-344.7 860,-344.7 860,-321.7 671,-321.7"/>
<text text-anchor="start" x="676" y="-330.3" font-family="Helvetica,sans-Serif" font-weight="bold" font-size="11.00" fill="#000000">non_residential_usage</text>
<text text-anchor="start" x="825.5219" y="-329.8" font-family="Helvetica,sans-Serif" font-size="11.00" fill="#000000">[table]</text>
<polygon fill="none" stroke="#000000" points="671,-302.7 671,-321.7 860,-321.7 860,-302.7 671,-302.7"/>
<text text-anchor="start" x="674" y="-308.8" font-family="Helvetica,sans-Serif" font-size="11.00" fill="#000000">...</text>
<polygon fill="#ffffff" stroke="transparent" points="671,-283.7 671,-302.7 764,-302.7 764,-283.7 671,-283.7"/>
<polygon fill="none" stroke="#000000" points="671,-283.7 671,-302.7 764,-302.7 764,-283.7 671,-283.7"/>
<text text-anchor="start" x="674" y="-289.8" font-family="Helvetica,sans-Serif" font-size="11.00" fill="#000000">&lt; 1</text>
<polygon fill="#ffffff" stroke="transparent" points="764,-283.7 764,-302.7 812,-302.7 812,-283.7 764,-283.7"/>
<polygon fill="none" stroke="#000000" points="764,-283.7 764,-302.7 812,-302.7 812,-283.7 764,-283.7"/>
<text text-anchor="start" x="802.8862" y="-289.8" font-family="Helvetica,sans-Serif" font-size="11.00" fill="#000000"> &#160;</text>
<polygon fill="#ffffff" stroke="transparent" points="812,-283.7 812,-302.7 860,-302.7 860,-283.7 812,-283.7"/>
<polygon fill="none" stroke="#000000" points="812,-283.7 812,-302.7 860,-302.7 860,-283.7 812,-283.7"/>
<text text-anchor="start" x="850.8862" y="-289.8" font-family="Helvetica,sans-Serif" font-size="11.00" fill="#000000"> &#160;</text>
</a>
</g>
</g>
<!-- non_residential_usage&#45;&gt;location -->
<g id="edge5" class="edge">
<title>non_residential_usage:w&#45;&gt;location:e</title>
<path fill="none" stroke="#000000" d="M656.4168,-311.7C633.6233,-311.7 623.0547,-311.7 594.5,-311.7"/>
<polygon fill="#000000" stroke="#000000" points="663,-311.7001 671,-315.3 667,-311.7 671,-311.7 671,-311.7 671,-311.7 667,-311.7 671,-308.1 663,-311.7001 663,-311.7001"/>
<ellipse fill="none" stroke="#000000" cx="659.8" cy="-311.7001" rx="3.2" ry="3.2"/>
</g>
<!-- residential_attribute -->
<g id="node7" class="node">
<title>residential_attribute</title>
<g id="a_node7"><a xlink:href="../../tables/residential_attribute.html" xlink:title="residential_attribute" target="_top">
<polygon fill="#ffffff" stroke="transparent" points="676,-202.2 676,-263.2 854,-263.2 854,-202.2 676,-202.2"/>
<polygon fill="#f5f5f5" stroke="transparent" points="676,-239.7 676,-262.7 854,-262.7 854,-239.7 676,-239.7"/>
<polygon fill="none" stroke="#000000" points="676,-239.7 676,-262.7 854,-262.7 854,-239.7 676,-239.7"/>
<text text-anchor="start" x="681" y="-248.3" font-family="Helvetica,sans-Serif" font-weight="bold" font-size="11.00" fill="#000000">residential_attribute</text>
<text text-anchor="start" x="819.5219" y="-247.8" font-family="Helvetica,sans-Serif" font-size="11.00" fill="#000000">[table]</text>
<polygon fill="none" stroke="#000000" points="676,-220.7 676,-239.7 854,-239.7 854,-220.7 676,-220.7"/>
<text text-anchor="start" x="679" y="-226.8" font-family="Helvetica,sans-Serif" font-size="11.00" fill="#000000">...</text>
<polygon fill="#ffffff" stroke="transparent" points="676,-201.7 676,-220.7 763,-220.7 763,-201.7 676,-201.7"/>
<polygon fill="none" stroke="#000000" points="676,-201.7 676,-220.7 763,-220.7 763,-201.7 676,-201.7"/>
<text text-anchor="start" x="679" y="-207.8" font-family="Helvetica,sans-Serif" font-size="11.00" fill="#000000">&lt; 1</text>
<polygon fill="#ffffff" stroke="transparent" points="763,-201.7 763,-220.7 808,-220.7 808,-201.7 763,-201.7"/>
<polygon fill="none" stroke="#000000" points="763,-201.7 763,-220.7 808,-220.7 808,-201.7 763,-201.7"/>
<text text-anchor="start" x="798.8862" y="-207.8" font-family="Helvetica,sans-Serif" font-size="11.00" fill="#000000"> &#160;</text>
<polygon fill="#ffffff" stroke="transparent" points="808,-201.7 808,-220.7 854,-220.7 854,-201.7 808,-201.7"/>
<polygon fill="none" stroke="#000000" points="808,-201.7 808,-220.7 854,-220.7 854,-201.7 808,-201.7"/>
<text text-anchor="start" x="844.8862" y="-207.8" font-family="Helvetica,sans-Serif" font-size="11.00" fill="#000000"> &#160;</text>
</a>
</g>
</g>
<!-- residential_attribute&#45;&gt;location -->
<g id="edge6" class="edge">
<title>residential_attribute:w&#45;&gt;location:e</title>
<path fill="none" stroke="#000000" d="M661.557,-232.4283C628.3996,-246.6565 640.2633,-311.7 594.5,-311.7"/>
<polygon fill="#000000" stroke="#000000" points="668.139,-231.185 676.6682,-233.2374 672.0695,-230.4425 676,-229.7 676,-229.7 676,-229.7 672.0695,-230.4425 675.3318,-226.1626 668.139,-231.185 668.139,-231.185"/>
<ellipse fill="none" stroke="#000000" cx="664.9946" cy="-231.779" rx="3.2" ry="3.2"/>
</g>
<!-- service_usage -->
<g id="node8" class="node">
<title>service_usage</title>
<g id="a_node8"><a xlink:href="../../tables/service_usage.html" xlink:title="service_usage" target="_top">
<polygon fill="#ffffff" stroke="transparent" points="698.5,-120.2 698.5,-181.2 831.5,-181.2 831.5,-120.2 698.5,-120.2"/>
<polygon fill="#f5f5f5" stroke="transparent" points="699,-157.7 699,-180.7 832,-180.7 832,-157.7 699,-157.7"/>
<polygon fill="none" stroke="#000000" points="699,-157.7 699,-180.7 832,-180.7 832,-157.7 699,-157.7"/>
<text text-anchor="start" x="704" y="-166.3" font-family="Helvetica,sans-Serif" font-weight="bold" font-size="11.00" fill="#000000">service_usage</text>
<text text-anchor="start" x="797.5219" y="-165.8" font-family="Helvetica,sans-Serif" font-size="11.00" fill="#000000">[table]</text>
<polygon fill="none" stroke="#000000" points="699,-138.7 699,-157.7 832,-157.7 832,-138.7 699,-138.7"/>
<text text-anchor="start" x="702" y="-144.8" font-family="Helvetica,sans-Serif" font-size="11.00" fill="#000000">...</text>
<polygon fill="#ffffff" stroke="transparent" points="699,-119.7 699,-138.7 764,-138.7 764,-119.7 699,-119.7"/>
<polygon fill="none" stroke="#000000" points="699,-119.7 699,-138.7 764,-138.7 764,-119.7 699,-119.7"/>
<text text-anchor="start" x="702" y="-125.8" font-family="Helvetica,sans-Serif" font-size="11.00" fill="#000000">&lt; 1</text>
<polygon fill="#ffffff" stroke="transparent" points="764,-119.7 764,-138.7 798,-138.7 798,-119.7 764,-119.7"/>
<polygon fill="none" stroke="#000000" points="764,-119.7 764,-138.7 798,-138.7 798,-119.7 764,-119.7"/>
<text text-anchor="start" x="788.8862" y="-125.8" font-family="Helvetica,sans-Serif" font-size="11.00" fill="#000000"> &#160;</text>
<polygon fill="#ffffff" stroke="transparent" points="798,-119.7 798,-138.7 832,-138.7 832,-119.7 798,-119.7"/>
<polygon fill="none" stroke="#000000" points="798,-119.7 798,-138.7 832,-138.7 832,-119.7 798,-119.7"/>
<text text-anchor="start" x="822.8862" y="-125.8" font-family="Helvetica,sans-Serif" font-size="11.00" fill="#000000"> &#160;</text>
</a>
</g>
</g>
<!-- service_usage&#45;&gt;location -->
<g id="edge7" class="edge">
<title>service_usage:w&#45;&gt;location:e</title>
<path fill="none" stroke="#000000" d="M684.5676,-148.8849C661.4749,-153.1138 652.5563,-168.4615 635,-191.7 601.0692,-236.6126 650.7889,-311.7 594.5,-311.7"/>
<polygon fill="#000000" stroke="#000000" points="691.0268,-148.3547 699.2946,-151.2879 695.0134,-148.0273 699,-147.7 699,-147.7 699,-147.7 695.0134,-148.0273 698.7054,-144.1121 691.0268,-148.3547 691.0268,-148.3547"/>
<ellipse fill="none" stroke="#000000" cx="687.8376" cy="-148.6165" rx="3.2" ry="3.2"/>
</g>
<!-- specialist_cell -->
<g id="node9" class="node">
<title>specialist_cell</title>
<g id="a_node9"><a xlink:href="../../tables/specialist_cell.html" xlink:title="specialist_cell" target="_top">
<polygon fill="#ffffff" stroke="transparent" points="699,-38.2 699,-99.2 831,-99.2 831,-38.2 699,-38.2"/>
<polygon fill="#f5f5f5" stroke="transparent" points="699,-75.7 699,-98.7 831,-98.7 831,-75.7 699,-75.7"/>
<polygon fill="none" stroke="#000000" points="699,-75.7 699,-98.7 831,-98.7 831,-75.7 699,-75.7"/>
<text text-anchor="start" x="704" y="-84.3" font-family="Helvetica,sans-Serif" font-weight="bold" font-size="11.00" fill="#000000">specialist_cell</text>
<text text-anchor="start" x="796.5219" y="-83.8" font-family="Helvetica,sans-Serif" font-size="11.00" fill="#000000">[table]</text>
<polygon fill="none" stroke="#000000" points="699,-56.7 699,-75.7 831,-75.7 831,-56.7 699,-56.7"/>
<text text-anchor="start" x="702" y="-62.8" font-family="Helvetica,sans-Serif" font-size="11.00" fill="#000000">...</text>
<polygon fill="#ffffff" stroke="transparent" points="699,-37.7 699,-56.7 763,-56.7 763,-37.7 699,-37.7"/>
<polygon fill="none" stroke="#000000" points="699,-37.7 699,-56.7 763,-56.7 763,-37.7 699,-37.7"/>
<text text-anchor="start" x="702" y="-43.8" font-family="Helvetica,sans-Serif" font-size="11.00" fill="#000000">&lt; 1</text>
<polygon fill="#ffffff" stroke="transparent" points="763,-37.7 763,-56.7 797,-56.7 797,-37.7 763,-37.7"/>
<polygon fill="none" stroke="#000000" points="763,-37.7 763,-56.7 797,-56.7 797,-37.7 763,-37.7"/>
<text text-anchor="start" x="787.8862" y="-43.8" font-family="Helvetica,sans-Serif" font-size="11.00" fill="#000000"> &#160;</text>
<polygon fill="#ffffff" stroke="transparent" points="797,-37.7 797,-56.7 831,-56.7 831,-37.7 797,-37.7"/>
<polygon fill="none" stroke="#000000" points="797,-37.7 797,-56.7 831,-56.7 831,-37.7 797,-37.7"/>
<text text-anchor="start" x="821.8862" y="-43.8" font-family="Helvetica,sans-Serif" font-size="11.00" fill="#000000"> &#160;</text>
</a>
</g>
</g>
<!-- specialist_cell&#45;&gt;location -->
<g id="edge8" class="edge">
<title>specialist_cell:w&#45;&gt;location:e</title>
<path fill="none" stroke="#000000" d="M684.4564,-66.8064C661.0006,-70.7787 651.0387,-85.3893 635,-109.7 584.5764,-186.1298 686.0645,-311.7 594.5,-311.7"/>
<polygon fill="#000000" stroke="#000000" points="691.023,-66.3069 699.2731,-69.2896 695.0115,-66.0034 699,-65.7 699,-65.7 699,-65.7 695.0115,-66.0034 698.7269,-62.1104 691.023,-66.3069 691.023,-66.3069"/>
<ellipse fill="none" stroke="#000000" cx="687.8323" cy="-66.5496" rx="3.2" ry="3.2"/>
</g>
</g>
</svg>
