<?xml version="1.0" encoding="UTF-8" standalone="no"?>
<!DOCTYPE svg PUBLIC "-//W3C//DTD SVG 1.1//EN"
 "http://www.w3.org/Graphics/SVG/1.1/DTD/svg11.dtd">
<!-- Generated by graphviz version 2.40.1 (20161225.0304)
 -->
<!-- Title: twoDegreesRelationshipsDiagramImplied Pages: 1 -->
<svg width="959pt" height="641pt"
 viewBox="0.00 0.00 959.00 640.70" xmlns="http://www.w3.org/2000/svg" xmlns:xlink="http://www.w3.org/1999/xlink">
<g id="graph0" class="graph" transform="scale(1 1) rotate(0) translate(4 636.7)">
<title>twoDegreesRelationshipsDiagramImplied</title>
<polygon fill="#ffffff" stroke="transparent" points="-4,4 -4,-636.7 955,-636.7 955,4 -4,4"/>
<text text-anchor="middle" x="72.4936" y="-7.3" font-family="Helvetica,sans-Serif" font-size="11.00" fill="#000000">Generated by SchemaSpy</text>
<!-- cell_certificate_upload -->
<g id="node1" class="node">
<title>cell_certificate_upload</title>
<g id="a_node1"><a xlink:href="../../tables/cell_certificate_upload.html" xlink:title="cell_certificate_upload" target="_top">
<polygon fill="#ffffff" stroke="transparent" points="235,-225.2 235,-352.2 480,-352.2 480,-225.2 235,-225.2"/>
<polygon fill="#f5f5f5" stroke="transparent" points="235.5,-328.7 235.5,-351.7 480.5,-351.7 480.5,-328.7 235.5,-328.7"/>
<polygon fill="none" stroke="#000000" points="235.5,-328.7 235.5,-351.7 480.5,-351.7 480.5,-328.7 235.5,-328.7"/>
<text text-anchor="start" x="240.5" y="-337.3" font-family="Helvetica,sans-Serif" font-weight="bold" font-size="11.00" fill="#000000">cell_certificate_upload</text>
<text text-anchor="start" x="445.5437" y="-336.8" font-family="Helvetica,sans-Serif" font-size="11.00" fill="#000000">[table]</text>
<polygon fill="none" stroke="#000000" points="235.5,-306.7 235.5,-328.7 480.5,-328.7 480.5,-306.7 235.5,-306.7"/>
<image xlink:href="../../images/primaryKeys.png" width="11px" height="12px" preserveAspectRatio="xMinYMin meet" x="240.5" y="-323.7"/>
<text text-anchor="start" x="255.5" y="-313.8" font-family="Helvetica,sans-Serif" font-size="11.00" fill="#000000">id</text>
<polygon fill="#ffffff" stroke="transparent" points="235.5,-284.7 235.5,-306.7 480.5,-306.7 480.5,-284.7 235.5,-284.7"/>
<polygon fill="none" stroke="#000000" points="235.5,-284.7 235.5,-306.7 480.5,-306.7 480.5,-284.7 235.5,-284.7"/>
<image xlink:href="../../images/foreignKeys.png" width="11px" height="12px" preserveAspectRatio="xMinYMin meet" x="240.5" y="-301.7"/>
<text text-anchor="start" x="255.5" y="-291.8" font-family="Helvetica,sans-Serif" font-size="11.00" fill="#000000">prison_id</text>
<polygon fill="#ffffff" stroke="transparent" points="235.5,-262.7 235.5,-284.7 480.5,-284.7 480.5,-262.7 235.5,-262.7"/>
<polygon fill="none" stroke="#000000" points="235.5,-262.7 235.5,-284.7 480.5,-284.7 480.5,-262.7 235.5,-262.7"/>
<text text-anchor="start" x="255.5" y="-269.8" font-family="Helvetica,sans-Serif" font-size="11.00" fill="#000000">certification_approval_request_id</text>
<polygon fill="none" stroke="#000000" points="235.5,-243.7 235.5,-262.7 480.5,-262.7 480.5,-243.7 235.5,-243.7"/>
<text text-anchor="start" x="238.5" y="-249.8" font-family="Helvetica,sans-Serif" font-size="11.00" fill="#000000">...</text>
<polygon fill="#ffffff" stroke="transparent" points="235.5,-224.7 235.5,-243.7 351.5,-243.7 351.5,-224.7 235.5,-224.7"/>
<polygon fill="none" stroke="#000000" points="235.5,-224.7 235.5,-243.7 351.5,-243.7 351.5,-224.7 235.5,-224.7"/>
<text text-anchor="start" x="238.5" y="-230.8" font-family="Helvetica,sans-Serif" font-size="11.00" fill="#000000">&lt; 1</text>
<polygon fill="#ffffff" stroke="transparent" points="351.5,-224.7 351.5,-243.7 411.5,-243.7 411.5,-224.7 351.5,-224.7"/>
<polygon fill="none" stroke="#000000" points="351.5,-224.7 351.5,-243.7 411.5,-243.7 411.5,-224.7 351.5,-224.7"/>
<text text-anchor="start" x="402.3862" y="-230.8" font-family="Helvetica,sans-Serif" font-size="11.00" fill="#000000"> &#160;</text>
<polygon fill="#ffffff" stroke="transparent" points="411.5,-224.7 411.5,-243.7 480.5,-243.7 480.5,-224.7 411.5,-224.7"/>
<polygon fill="none" stroke="#000000" points="411.5,-224.7 411.5,-243.7 480.5,-243.7 480.5,-224.7 411.5,-224.7"/>
<text text-anchor="start" x="461.9053" y="-230.8" font-family="Helvetica,sans-Serif" font-size="11.00" fill="#000000">2 &gt;</text>
</a>
</g>
</g>
<!-- prison_configuration -->
<g id="node2" class="node">
<title>prison_configuration</title>
<g id="a_node2"><a xlink:href="../../tables/prison_configuration.html" xlink:title="prison_configuration" target="_top">
<polygon fill="#ffffff" stroke="transparent" points="8,-268.2 8,-329.2 186,-329.2 186,-268.2 8,-268.2"/>
<polygon fill="#f5f5f5" stroke="transparent" points="8,-305.7 8,-328.7 186,-328.7 186,-305.7 8,-305.7"/>
<polygon fill="none" stroke="#000000" points="8,-305.7 8,-328.7 186,-328.7 186,-305.7 8,-305.7"/>
<text text-anchor="start" x="13" y="-314.3" font-family="Helvetica,sans-Serif" font-weight="bold" font-size="11.00" fill="#000000">prison_configuration</text>
<text text-anchor="start" x="151.5219" y="-313.8" font-family="Helvetica,sans-Serif" font-size="11.00" fill="#000000">[table]</text>
<polygon fill="none" stroke="#000000" points="8,-286.7 8,-305.7 186,-305.7 186,-286.7 8,-286.7"/>
<text text-anchor="start" x="11" y="-292.8" font-family="Helvetica,sans-Serif" font-size="11.00" fill="#000000">...</text>
<polygon fill="#ffffff" stroke="transparent" points="8,-267.7 8,-286.7 86,-286.7 86,-267.7 8,-267.7"/>
<polygon fill="none" stroke="#000000" points="8,-267.7 8,-286.7 86,-286.7 86,-267.7 8,-267.7"/>
<text text-anchor="start" x="11" y="-273.8" font-family="Helvetica,sans-Serif" font-size="11.00" fill="#000000"> &#160;</text>
<polygon fill="#ffffff" stroke="transparent" points="86,-267.7 86,-286.7 131,-286.7 131,-267.7 86,-267.7"/>
<polygon fill="none" stroke="#000000" points="86,-267.7 86,-286.7 131,-286.7 131,-267.7 86,-267.7"/>
<text text-anchor="start" x="121.8862" y="-273.8" font-family="Helvetica,sans-Serif" font-size="11.00" fill="#000000"> &#160;</text>
<polygon fill="#ffffff" stroke="transparent" points="131,-267.7 131,-286.7 186,-286.7 186,-267.7 131,-267.7"/>
<polygon fill="none" stroke="#000000" points="131,-267.7 131,-286.7 186,-286.7 186,-267.7 131,-267.7"/>
<text text-anchor="start" x="167.4053" y="-273.8" font-family="Helvetica,sans-Serif" font-size="11.00" fill="#000000">7 &gt;</text>
</a>
</g>
</g>
<!-- cell_certificate_upload&#45;&gt;prison_configuration -->
<g id="edge1" class="edge">
<title>cell_certificate_upload:w&#45;&gt;prison_configuration:e</title>
<path fill="none" stroke="#000000" stroke-dasharray="5,2" d="M225.0474,-295.7C210.9907,-295.7 204.0469,-295.7 186,-295.7"/>
<polygon fill="#000000" stroke="#000000" points="234.7,-291.7 234.7,-299.7 233.1,-299.7 233.1,-291.7 234.7,-291.7"/>
<polyline fill="none" stroke="#000000" points="235.5,-295.7 231.5,-295.7 "/>
<ellipse fill="none" stroke="#000000" cx="228.3" cy="-295.7001" rx="3.2" ry="3.2"/>
</g>
<!-- cell_certificate_upload_location -->
<g id="node3" class="node">
<title>cell_certificate_upload_location</title>
<g id="a_node3"><a xlink:href="../../tables/cell_certificate_upload_location.html" xlink:title="cell_certificate_upload_location" target="_top">
<polygon fill="#ffffff" stroke="transparent" points="529,-120.7 529,-628.7 943,-628.7 943,-120.7 529,-120.7"/>
<polygon fill="#f5f5f5" stroke="transparent" points="531,-603.7 531,-626.7 941,-626.7 941,-603.7 531,-603.7"/>
<polygon fill="none" stroke="#000000" points="531,-603.7 531,-626.7 941,-626.7 941,-603.7 531,-603.7"/>
<text text-anchor="start" x="536" y="-612.3" font-family="Helvetica,sans-Serif" font-weight="bold" font-size="11.00" fill="#000000">cell_certificate_upload_location</text>
<text text-anchor="start" x="906.0437" y="-611.8" font-family="Helvetica,sans-Serif" font-size="11.00" fill="#000000">[table]</text>
<polygon fill="none" stroke="#000000" points="531,-581.7 531,-603.7 847,-603.7 847,-581.7 531,-581.7"/>
<image xlink:href="../../images/primaryKeys.png" width="11px" height="12px" preserveAspectRatio="xMinYMin meet" x="536" y="-598.7"/>
<text text-anchor="start" x="551" y="-588.8" font-family="Helvetica,sans-Serif" font-size="11.00" fill="#000000">id</text>
<polygon fill="none" stroke="#000000" points="847,-581.7 847,-603.7 941,-603.7 941,-581.7 847,-581.7"/>
<text text-anchor="start" x="849.9758" y="-589.4" font-family="Helvetica,sans-Serif" font-size="11.00" fill="#000000">uuid[2147483647]</text>
<polygon fill="#ffffff" stroke="transparent" points="531,-559.7 531,-581.7 847,-581.7 847,-559.7 531,-559.7"/>
<polygon fill="none" stroke="#000000" points="531,-559.7 531,-581.7 847,-581.7 847,-559.7 531,-559.7"/>
<image xlink:href="../../images/foreignKeys.png" width="11px" height="12px" preserveAspectRatio="xMinYMin meet" x="536" y="-576.7"/>
<text text-anchor="start" x="551" y="-566.8" font-family="Helvetica,sans-Serif" font-size="11.00" fill="#000000">cell_certificate_upload_id</text>
<polygon fill="none" stroke="#000000" points="847,-559.7 847,-581.7 941,-581.7 941,-559.7 847,-559.7"/>
<text text-anchor="start" x="849.9758" y="-567.4" font-family="Helvetica,sans-Serif" font-size="11.00" fill="#000000">uuid[2147483647]</text>
<polygon fill="none" stroke="#000000" points="531,-537.7 531,-559.7 847,-559.7 847,-537.7 531,-537.7"/>
<text text-anchor="start" x="551" y="-544.8" font-family="Helvetica,sans-Serif" font-size="11.00" fill="#000000">location_key</text>
<polygon fill="none" stroke="#000000" points="847,-537.7 847,-559.7 941,-559.7 941,-537.7 847,-537.7"/>
<text text-anchor="start" x="850" y="-545.4" font-family="Helvetica,sans-Serif" font-size="11.00" fill="#000000">varchar[255]</text>
<polygon fill="none" stroke="#000000" points="531,-515.7 531,-537.7 847,-537.7 847,-515.7 531,-515.7"/>
<text text-anchor="start" x="551" y="-522.8" font-family="Helvetica,sans-Serif" font-size="11.00" fill="#000000">max_capacity</text>
<polygon fill="none" stroke="#000000" points="847,-515.7 847,-537.7 941,-537.7 941,-515.7 847,-515.7"/>
<text text-anchor="start" x="850" y="-523.4" font-family="Helvetica,sans-Serif" font-size="11.00" fill="#000000">int4[10]</text>
<polygon fill="none" stroke="#000000" points="531,-493.7 531,-515.7 847,-515.7 847,-493.7 531,-493.7"/>
<text text-anchor="start" x="551" y="-500.8" font-family="Helvetica,sans-Serif" font-size="11.00" fill="#000000">working_capacity</text>
<polygon fill="none" stroke="#000000" points="847,-493.7 847,-515.7 941,-515.7 941,-493.7 847,-493.7"/>
<text text-anchor="start" x="850" y="-501.4" font-family="Helvetica,sans-Serif" font-size="11.00" fill="#000000">int4[10]</text>
<polygon fill="none" stroke="#000000" points="531,-471.7 531,-493.7 847,-493.7 847,-471.7 531,-471.7"/>
<text text-anchor="start" x="551" y="-478.8" font-family="Helvetica,sans-Serif" font-size="11.00" fill="#000000">certified_normal_accommodation</text>
<polygon fill="none" stroke="#000000" points="847,-471.7 847,-493.7 941,-493.7 941,-471.7 847,-471.7"/>
<text text-anchor="start" x="850" y="-479.4" font-family="Helvetica,sans-Serif" font-size="11.00" fill="#000000">int4[10]</text>
<polygon fill="none" stroke="#000000" points="531,-449.7 531,-471.7 847,-471.7 847,-449.7 531,-449.7"/>
<text text-anchor="start" x="551" y="-456.8" font-family="Helvetica,sans-Serif" font-size="11.00" fill="#000000">cell_mark</text>
<polygon fill="none" stroke="#000000" points="847,-449.7 847,-471.7 941,-471.7 941,-449.7 847,-449.7"/>
<text text-anchor="start" x="850" y="-457.4" font-family="Helvetica,sans-Serif" font-size="11.00" fill="#000000">varchar[12]</text>
<polygon fill="none" stroke="#000000" points="531,-427.7 531,-449.7 847,-449.7 847,-427.7 531,-427.7"/>
<text text-anchor="start" x="551" y="-434.8" font-family="Helvetica,sans-Serif" font-size="11.00" fill="#000000">in_cell_sanitation</text>
<polygon fill="none" stroke="#000000" points="847,-427.7 847,-449.7 941,-449.7 941,-427.7 847,-427.7"/>
<text text-anchor="start" x="850" y="-435.4" font-family="Helvetica,sans-Serif" font-size="11.00" fill="#000000">bool[1]</text>
<polygon fill="none" stroke="#000000" points="531,-405.7 531,-427.7 847,-427.7 847,-405.7 531,-405.7"/>
<text text-anchor="start" x="551" y="-412.8" font-family="Helvetica,sans-Serif" font-size="11.00" fill="#000000">status</text>
<polygon fill="none" stroke="#000000" points="847,-405.7 847,-427.7 941,-427.7 941,-405.7 847,-405.7"/>
<text text-anchor="start" x="850" y="-413.4" font-family="Helvetica,sans-Serif" font-size="11.00" fill="#000000">varchar[20]</text>
<polygon fill="none" stroke="#000000" points="531,-383.7 531,-405.7 847,-405.7 847,-383.7 531,-383.7"/>
<text text-anchor="start" x="551" y="-390.8" font-family="Helvetica,sans-Serif" font-size="11.00" fill="#000000">previous_max_capacity</text>
<polygon fill="none" stroke="#000000" points="847,-383.7 847,-405.7 941,-405.7 941,-383.7 847,-383.7"/>
<text text-anchor="start" x="850" y="-391.4" font-family="Helvetica,sans-Serif" font-size="11.00" fill="#000000">int4[10]</text>
<polygon fill="none" stroke="#000000" points="531,-361.7 531,-383.7 847,-383.7 847,-361.7 531,-361.7"/>
<text text-anchor="start" x="551" y="-368.8" font-family="Helvetica,sans-Serif" font-size="11.00" fill="#000000">previous_working_capacity</text>
<polygon fill="none" stroke="#000000" points="847,-361.7 847,-383.7 941,-383.7 941,-361.7 847,-361.7"/>
<text text-anchor="start" x="850" y="-369.4" font-family="Helvetica,sans-Serif" font-size="11.00" fill="#000000">int4[10]</text>
<polygon fill="none" stroke="#000000" points="531,-339.7 531,-361.7 847,-361.7 847,-339.7 531,-339.7"/>
<text text-anchor="start" x="551" y="-346.8" font-family="Helvetica,sans-Serif" font-size="11.00" fill="#000000">previous_certified_normal_accommodation</text>
<polygon fill="none" stroke="#000000" points="847,-339.7 847,-361.7 941,-361.7 941,-339.7 847,-339.7"/>
<text text-anchor="start" x="850" y="-347.4" font-family="Helvetica,sans-Serif" font-size="11.00" fill="#000000">int4[10]</text>
<polygon fill="none" stroke="#000000" points="531,-317.7 531,-339.7 847,-339.7 847,-317.7 531,-317.7"/>
<text text-anchor="start" x="551" y="-324.8" font-family="Helvetica,sans-Serif" font-size="11.00" fill="#000000">previous_cell_mark</text>
<polygon fill="none" stroke="#000000" points="847,-317.7 847,-339.7 941,-339.7 941,-317.7 847,-317.7"/>
<text text-anchor="start" x="850" y="-325.4" font-family="Helvetica,sans-Serif" font-size="11.00" fill="#000000">varchar[12]</text>
<polygon fill="none" stroke="#000000" points="531,-295.7 531,-317.7 847,-317.7 847,-295.7 531,-295.7"/>
<text text-anchor="start" x="551" y="-302.8" font-family="Helvetica,sans-Serif" font-size="11.00" fill="#000000">previous_in_cell_sanitation</text>
<polygon fill="none" stroke="#000000" points="847,-295.7 847,-317.7 941,-317.7 941,-295.7 847,-295.7"/>
<text text-anchor="start" x="850" y="-303.4" font-family="Helvetica,sans-Serif" font-size="11.00" fill="#000000">bool[1]</text>
<polygon fill="none" stroke="#000000" points="531,-273.7 531,-295.7 847,-295.7 847,-273.7 531,-273.7"/>
<text text-anchor="start" x="551" y="-280.8" font-family="Helvetica,sans-Serif" font-size="11.00" fill="#000000">message</text>
<polygon fill="none" stroke="#000000" points="847,-273.7 847,-295.7 941,-295.7 941,-273.7 847,-273.7"/>
<text text-anchor="start" x="850" y="-281.4" font-family="Helvetica,sans-Serif" font-size="11.00" fill="#000000">varchar[255]</text>
<polygon fill="none" stroke="#000000" points="531,-251.7 531,-273.7 847,-273.7 847,-251.7 531,-251.7"/>
<text text-anchor="start" x="551" y="-258.8" font-family="Helvetica,sans-Serif" font-size="11.00" fill="#000000">processed_date</text>
<polygon fill="none" stroke="#000000" points="847,-251.7 847,-273.7 941,-273.7 941,-251.7 847,-251.7"/>
<text text-anchor="start" x="850" y="-259.4" font-family="Helvetica,sans-Serif" font-size="11.00" fill="#000000">timestamp[29,6]</text>
<polygon fill="none" stroke="#000000" points="531,-229.7 531,-251.7 847,-251.7 847,-229.7 531,-229.7"/>
<text text-anchor="start" x="551" y="-236.8" font-family="Helvetica,sans-Serif" font-size="11.00" fill="#000000">working_capacity_mismatch</text>
<polygon fill="none" stroke="#000000" points="847,-229.7 847,-251.7 941,-251.7 941,-229.7 847,-229.7"/>
<text text-anchor="start" x="850" y="-237.4" font-family="Helvetica,sans-Serif" font-size="11.00" fill="#000000">bool[1]</text>
<polygon fill="none" stroke="#000000" points="531,-207.7 531,-229.7 847,-229.7 847,-207.7 531,-207.7"/>
<text text-anchor="start" x="551" y="-214.8" font-family="Helvetica,sans-Serif" font-size="11.00" fill="#000000">max_capacity_mismatch</text>
<polygon fill="none" stroke="#000000" points="847,-207.7 847,-229.7 941,-229.7 941,-207.7 847,-207.7"/>
<text text-anchor="start" x="850" y="-215.4" font-family="Helvetica,sans-Serif" font-size="11.00" fill="#000000">bool[1]</text>
<polygon fill="none" stroke="#000000" points="531,-185.7 531,-207.7 847,-207.7 847,-185.7 531,-185.7"/>
<text text-anchor="start" x="551" y="-192.8" font-family="Helvetica,sans-Serif" font-size="11.00" fill="#000000">certified_normal_accommodation_mismatch</text>
<polygon fill="none" stroke="#000000" points="847,-185.7 847,-207.7 941,-207.7 941,-185.7 847,-185.7"/>
<text text-anchor="start" x="850" y="-193.4" font-family="Helvetica,sans-Serif" font-size="11.00" fill="#000000">bool[1]</text>
<polygon fill="none" stroke="#000000" points="531,-163.7 531,-185.7 847,-185.7 847,-163.7 531,-163.7"/>
<text text-anchor="start" x="551" y="-170.8" font-family="Helvetica,sans-Serif" font-size="11.00" fill="#000000">applied_max_capacity</text>
<polygon fill="none" stroke="#000000" points="847,-163.7 847,-185.7 941,-185.7 941,-163.7 847,-163.7"/>
<text text-anchor="start" x="850" y="-171.4" font-family="Helvetica,sans-Serif" font-size="11.00" fill="#000000">int4[10]</text>
<polygon fill="none" stroke="#000000" points="531,-141.7 531,-163.7 847,-163.7 847,-141.7 531,-141.7"/>
<text text-anchor="start" x="551" y="-148.8" font-family="Helvetica,sans-Serif" font-size="11.00" fill="#000000">applied_working_capacity</text>
<polygon fill="none" stroke="#000000" points="847,-141.7 847,-163.7 941,-163.7 941,-141.7 847,-141.7"/>
<text text-anchor="start" x="850" y="-149.4" font-family="Helvetica,sans-Serif" font-size="11.00" fill="#000000">int4[10]</text>
<polygon fill="#ffffff" stroke="transparent" points="531,-122.7 531,-141.7 693,-141.7 693,-122.7 531,-122.7"/>
<polygon fill="none" stroke="#000000" points="531,-122.7 531,-141.7 693,-141.7 693,-122.7 531,-122.7"/>
<text text-anchor="start" x="534" y="-128.8" font-family="Helvetica,sans-Serif" font-size="11.00" fill="#000000">&lt; 1</text>
<polygon fill="#ffffff" stroke="transparent" points="693,-122.7 693,-141.7 847,-141.7 847,-122.7 693,-122.7"/>
<polygon fill="none" stroke="#000000" points="693,-122.7 693,-141.7 847,-141.7 847,-122.7 693,-122.7"/>
<text text-anchor="start" x="837.8862" y="-128.8" font-family="Helvetica,sans-Serif" font-size="11.00" fill="#000000"> &#160;</text>
<polygon fill="#ffffff" stroke="transparent" points="847,-122.7 847,-141.7 941,-141.7 941,-122.7 847,-122.7"/>
<polygon fill="none" stroke="#000000" points="847,-122.7 847,-141.7 941,-141.7 941,-122.7 847,-122.7"/>
<text text-anchor="start" x="922.4053" y="-128.8" font-family="Helvetica,sans-Serif" font-size="11.00" fill="#000000">0 &gt;</text>
<polygon fill="none" stroke="#000000" stroke-width="2" points="530,-121.7 530,-627.7 942,-627.7 942,-121.7 530,-121.7"/>
</a>
</g>
</g>
<!-- cell_certificate_upload_location&#45;&gt;cell_certificate_upload -->
<g id="edge2" class="edge">
<title>cell_certificate_upload_location:w&#45;&gt;cell_certificate_upload:e</title>
<path fill="none" stroke="#000000" d="M516.4914,-569.0175C432.7795,-547.0664 589.6758,-317.7 480.5,-317.7"/>
<polygon fill="#000000" stroke="#000000" points="523.0533,-569.7784 530.5853,-574.276 527.0266,-570.2392 531,-570.7 531,-570.7 531,-570.7 527.0266,-570.2392 531.4147,-567.124 523.0533,-569.7784 523.0533,-569.7784"/>
<ellipse fill="none" stroke="#000000" cx="519.8746" cy="-569.4098" rx="3.2" ry="3.2"/>
</g>
<!-- cell_certificate_upload_not_on_certificate -->
<g id="node4" class="node">
<title>cell_certificate_upload_not_on_certificate</title>
<g id="a_node4"><a xlink:href="../../tables/cell_certificate_upload_not_on__5a0cd35c.html" xlink:title="cell_certificate_upload_not_on_certificate" target="_top">
<polygon fill="#ffffff" stroke="transparent" points="578,-38.2 578,-99.2 894,-99.2 894,-38.2 578,-38.2"/>
<polygon fill="#f5f5f5" stroke="transparent" points="578,-75.7 578,-98.7 894,-98.7 894,-75.7 578,-75.7"/>
<polygon fill="none" stroke="#000000" points="578,-75.7 578,-98.7 894,-98.7 894,-75.7 578,-75.7"/>
<text text-anchor="start" x="583" y="-84.3" font-family="Helvetica,sans-Serif" font-weight="bold" font-size="11.00" fill="#000000">cell_certificate_upload_not_on_certificate</text>
<text text-anchor="start" x="859.5219" y="-83.8" font-family="Helvetica,sans-Serif" font-size="11.00" fill="#000000">[table]</text>
<polygon fill="none" stroke="#000000" points="578,-56.7 578,-75.7 894,-75.7 894,-56.7 578,-56.7"/>
<text text-anchor="start" x="581" y="-62.8" font-family="Helvetica,sans-Serif" font-size="11.00" fill="#000000">...</text>
<polygon fill="#ffffff" stroke="transparent" points="578,-37.7 578,-56.7 734,-56.7 734,-37.7 578,-37.7"/>
<polygon fill="none" stroke="#000000" points="578,-37.7 578,-56.7 734,-56.7 734,-37.7 578,-37.7"/>
<text text-anchor="start" x="581" y="-43.8" font-family="Helvetica,sans-Serif" font-size="11.00" fill="#000000">&lt; 1</text>
<polygon fill="#ffffff" stroke="transparent" points="734,-37.7 734,-56.7 814,-56.7 814,-37.7 734,-37.7"/>
<polygon fill="none" stroke="#000000" points="734,-37.7 734,-56.7 814,-56.7 814,-37.7 734,-37.7"/>
<text text-anchor="start" x="804.8862" y="-43.8" font-family="Helvetica,sans-Serif" font-size="11.00" fill="#000000"> &#160;</text>
<polygon fill="#ffffff" stroke="transparent" points="814,-37.7 814,-56.7 894,-56.7 894,-37.7 814,-37.7"/>
<polygon fill="none" stroke="#000000" points="814,-37.7 814,-56.7 894,-56.7 894,-37.7 814,-37.7"/>
<text text-anchor="start" x="884.8862" y="-43.8" font-family="Helvetica,sans-Serif" font-size="11.00" fill="#000000"> &#160;</text>
</a>
</g>
</g>
<!-- cell_certificate_upload_not_on_certificate&#45;&gt;cell_certificate_upload -->
<g id="edge3" class="edge">
<title>cell_certificate_upload_not_on_certificate:w&#45;&gt;cell_certificate_upload:e</title>
<path fill="none" stroke="#000000" d="M563.6402,-67.142C542.8145,-71.8463 534.9878,-87.7753 521,-110.7 496.5861,-150.712 527.3722,-317.7 480.5,-317.7"/>
<polygon fill="#000000" stroke="#000000" points="570.04,-66.4994 578.3597,-69.282 574.02,-66.0997 578,-65.7 578,-65.7 578,-65.7 574.02,-66.0997 577.6403,-62.118 570.04,-66.4994 570.04,-66.4994"/>
<ellipse fill="none" stroke="#000000" cx="566.856" cy="-66.8191" rx="3.2" ry="3.2"/>
</g>
</g>
</svg>
