<?xml version="1.0" encoding="UTF-8" standalone="no"?>
<!DOCTYPE svg PUBLIC "-//W3C//DTD SVG 1.1//EN"
 "http://www.w3.org/Graphics/SVG/1.1/DTD/svg11.dtd">
<!-- Generated by graphviz version 2.40.1 (20161225.0304)
 -->
<!-- Title: twoDegreesRelationshipsDiagramImplied Pages: 1 -->
<svg width="1285pt" height="1060pt"
 viewBox="0.00 0.00 1285.00 1059.99" xmlns="http://www.w3.org/2000/svg" xmlns:xlink="http://www.w3.org/1999/xlink">
<g id="graph0" class="graph" transform="scale(1 1) rotate(0) translate(4 1055.986)">
<title>twoDegreesRelationshipsDiagramImplied</title>
<polygon fill="#ffffff" stroke="transparent" points="-4,4 -4,-1055.986 1281,-1055.986 1281,4 -4,4"/>
<text text-anchor="middle" x="72.4936" y="-7.3" font-family="Helvetica,sans-Serif" font-size="11.00" fill="#000000">Generated by SchemaSpy</text>
<!-- cell_certificate -->
<g id="node1" class="node">
<title>cell_certificate</title>
<g id="a_node1"><a xlink:href="../../tables/cell_certificate.html" xlink:title="cell_certificate" target="_top">
<polygon fill="#ffffff" stroke="transparent" points="1132,-921.2 1132,-982.2 1269,-982.2 1269,-921.2 1132,-921.2"/>
<polygon fill="#f5f5f5" stroke="transparent" points="1132.5,-958.7 1132.5,-981.7 1269.5,-981.7 1269.5,-958.7 1132.5,-958.7"/>
<polygon fill="none" stroke="#000000" points="1132.5,-958.7 1132.5,-981.7 1269.5,-981.7 1269.5,-958.7 1132.5,-958.7"/>
<text text-anchor="start" x="1137.5" y="-967.3" font-family="Helvetica,sans-Serif" font-weight="bold" font-size="11.00" fill="#000000">cell_certificate</text>
<text text-anchor="start" x="1235.0219" y="-966.8" font-family="Helvetica,sans-Serif" font-size="11.00" fill="#000000">[table]</text>
<polygon fill="none" stroke="#000000" points="1132.5,-939.7 1132.5,-958.7 1269.5,-958.7 1269.5,-939.7 1132.5,-939.7"/>
<text text-anchor="start" x="1135.5" y="-945.8" font-family="Helvetica,sans-Serif" font-size="11.00" fill="#000000">...</text>
<polygon fill="#ffffff" stroke="transparent" points="1132.5,-920.7 1132.5,-939.7 1194.5,-939.7 1194.5,-920.7 1132.5,-920.7"/>
<polygon fill="none" stroke="#000000" points="1132.5,-920.7 1132.5,-939.7 1194.5,-939.7 1194.5,-920.7 1132.5,-920.7"/>
<text text-anchor="start" x="1135.5" y="-926.8" font-family="Helvetica,sans-Serif" font-size="11.00" fill="#000000">&lt; 2</text>
<polygon fill="#ffffff" stroke="transparent" points="1194.5,-920.7 1194.5,-939.7 1227.5,-939.7 1227.5,-920.7 1194.5,-920.7"/>
<polygon fill="none" stroke="#000000" points="1194.5,-920.7 1194.5,-939.7 1227.5,-939.7 1227.5,-920.7 1194.5,-920.7"/>
<text text-anchor="start" x="1218.3862" y="-926.8" font-family="Helvetica,sans-Serif" font-size="11.00" fill="#000000"> &#160;</text>
<polygon fill="#ffffff" stroke="transparent" points="1227.5,-920.7 1227.5,-939.7 1269.5,-939.7 1269.5,-920.7 1227.5,-920.7"/>
<polygon fill="none" stroke="#000000" points="1227.5,-920.7 1227.5,-939.7 1269.5,-939.7 1269.5,-920.7 1227.5,-920.7"/>
<text text-anchor="start" x="1250.9053" y="-926.8" font-family="Helvetica,sans-Serif" font-size="11.00" fill="#000000">1 &gt;</text>
</a>
</g>
</g>
<!-- certification_approval_request -->
<g id="node2" class="node">
<title>certification_approval_request</title>
<g id="a_node2"><a xlink:href="../../tables/certification_approval_request.html" xlink:title="certification_approval_request" target="_top">
<polygon fill="#ffffff" stroke="transparent" points="803,-947.2 803,-1008.2 1047,-1008.2 1047,-947.2 803,-947.2"/>
<polygon fill="#f5f5f5" stroke="transparent" points="803,-984.7 803,-1007.7 1047,-1007.7 1047,-984.7 803,-984.7"/>
<polygon fill="none" stroke="#000000" points="803,-984.7 803,-1007.7 1047,-1007.7 1047,-984.7 803,-984.7"/>
<text text-anchor="start" x="808" y="-993.3" font-family="Helvetica,sans-Serif" font-weight="bold" font-size="11.00" fill="#000000">certification_approval_request</text>
<text text-anchor="start" x="1012.5219" y="-992.8" font-family="Helvetica,sans-Serif" font-size="11.00" fill="#000000">[table]</text>
<polygon fill="none" stroke="#000000" points="803,-965.7 803,-984.7 1047,-984.7 1047,-965.7 803,-965.7"/>
<text text-anchor="start" x="806" y="-971.8" font-family="Helvetica,sans-Serif" font-size="11.00" fill="#000000">...</text>
<polygon fill="#ffffff" stroke="transparent" points="803,-946.7 803,-965.7 919,-965.7 919,-946.7 803,-946.7"/>
<polygon fill="none" stroke="#000000" points="803,-946.7 803,-965.7 919,-965.7 919,-946.7 803,-946.7"/>
<text text-anchor="start" x="806" y="-952.8" font-family="Helvetica,sans-Serif" font-size="11.00" fill="#000000">&lt; 2</text>
<polygon fill="#ffffff" stroke="transparent" points="919,-946.7 919,-965.7 978,-965.7 978,-946.7 919,-946.7"/>
<polygon fill="none" stroke="#000000" points="919,-946.7 919,-965.7 978,-965.7 978,-946.7 919,-946.7"/>
<text text-anchor="start" x="968.8862" y="-952.8" font-family="Helvetica,sans-Serif" font-size="11.00" fill="#000000"> &#160;</text>
<polygon fill="#ffffff" stroke="transparent" points="978,-946.7 978,-965.7 1047,-965.7 1047,-946.7 978,-946.7"/>
<polygon fill="none" stroke="#000000" points="978,-946.7 978,-965.7 1047,-965.7 1047,-946.7 978,-946.7"/>
<text text-anchor="start" x="1028.4053" y="-952.8" font-family="Helvetica,sans-Serif" font-size="11.00" fill="#000000">2 &gt;</text>
</a>
</g>
</g>
<!-- cell_certificate&#45;&gt;certification_approval_request -->
<g id="edge1" class="edge">
<title>cell_certificate:w&#45;&gt;certification_approval_request:e</title>
<path fill="none" stroke="#000000" d="M1121.764,-949.3954C1091.2766,-953.5302 1082.8394,-974.7 1047,-974.7"/>
<polygon fill="#000000" stroke="#000000" points="1131.4431,-944.7601 1131.9603,-952.7434 1130.3636,-952.8468 1129.8464,-944.8635 1131.4431,-944.7601"/>
<polyline fill="none" stroke="#000000" points="1132.5,-948.7 1128.5084,-948.9586 "/>
<ellipse fill="none" stroke="#000000" cx="1125.3151" cy="-949.1655" rx="3.2" ry="3.2"/>
</g>
<!-- prison_configuration -->
<g id="node3" class="node">
<title>prison_configuration</title>
<g id="a_node3"><a xlink:href="../../tables/prison_configuration.html" xlink:title="prison_configuration" target="_top">
<polygon fill="#ffffff" stroke="transparent" points="8,-774.2 8,-857.2 256,-857.2 256,-774.2 8,-774.2"/>
<polygon fill="#f5f5f5" stroke="transparent" points="8,-833.7 8,-856.7 256,-856.7 256,-833.7 8,-833.7"/>
<polygon fill="none" stroke="#000000" points="8,-833.7 8,-856.7 256,-856.7 256,-833.7 8,-833.7"/>
<text text-anchor="start" x="13" y="-842.3" font-family="Helvetica,sans-Serif" font-weight="bold" font-size="11.00" fill="#000000">prison_configuration</text>
<text text-anchor="start" x="221.0437" y="-841.8" font-family="Helvetica,sans-Serif" font-size="11.00" fill="#000000">[table]</text>
<polygon fill="none" stroke="#000000" points="8,-811.7 8,-833.7 256,-833.7 256,-811.7 8,-811.7"/>
<image xlink:href="../../images/primaryKeys.png" width="11px" height="12px" preserveAspectRatio="xMinYMin meet" x="13" y="-828.7"/>
<text text-anchor="start" x="28" y="-818.8" font-family="Helvetica,sans-Serif" font-size="11.00" fill="#000000">prison_id</text>
<polygon fill="none" stroke="#000000" points="8,-792.7 8,-811.7 256,-811.7 256,-792.7 8,-792.7"/>
<text text-anchor="start" x="11" y="-798.8" font-family="Helvetica,sans-Serif" font-size="11.00" fill="#000000">...</text>
<polygon fill="#ffffff" stroke="transparent" points="8,-773.7 8,-792.7 121,-792.7 121,-773.7 8,-773.7"/>
<polygon fill="none" stroke="#000000" points="8,-773.7 8,-792.7 121,-792.7 121,-773.7 8,-773.7"/>
<text text-anchor="start" x="11" y="-779.8" font-family="Helvetica,sans-Serif" font-size="11.00" fill="#000000"> &#160;</text>
<polygon fill="#ffffff" stroke="transparent" points="121,-773.7 121,-792.7 184,-792.7 184,-773.7 121,-773.7"/>
<polygon fill="none" stroke="#000000" points="121,-773.7 121,-792.7 184,-792.7 184,-773.7 121,-773.7"/>
<text text-anchor="start" x="174.8862" y="-779.8" font-family="Helvetica,sans-Serif" font-size="11.00" fill="#000000"> &#160;</text>
<polygon fill="#ffffff" stroke="transparent" points="184,-773.7 184,-792.7 256,-792.7 256,-773.7 184,-773.7"/>
<polygon fill="none" stroke="#000000" points="184,-773.7 184,-792.7 256,-792.7 256,-773.7 184,-773.7"/>
<text text-anchor="start" x="237.4053" y="-779.8" font-family="Helvetica,sans-Serif" font-size="11.00" fill="#000000">7 &gt;</text>
</a>
</g>
</g>
<!-- cell_certificate&#45;&gt;prison_configuration -->
<g id="edge2" class="edge">
<title>cell_certificate:w&#45;&gt;prison_configuration:e</title>
<path fill="none" stroke="#000000" stroke-dasharray="5,2" d="M1118.1861,-946.5243C1109.6878,-943.6678 1104.0362,-938.7735 1091,-936.7 1003.8227,-922.8338 370.7308,-958.2379 297,-909.7 261.2967,-886.1961 298.7453,-822.7 256,-822.7"/>
<polygon fill="#000000" stroke="#000000" points="1124.5908,-947.4977 1131.959,-952.2591 1128.5454,-948.0989 1132.5,-948.7 1132.5,-948.7 1132.5,-948.7 1128.5454,-948.0989 1133.041,-945.1409 1124.5908,-947.4977 1124.5908,-947.4977"/>
<ellipse fill="none" stroke="#000000" cx="1121.4272" cy="-947.0168" rx="3.2" ry="3.2"/>
</g>
<!-- certification_approval_request&#45;&gt;prison_configuration -->
<g id="edge8" class="edge">
<title>certification_approval_request:w&#45;&gt;prison_configuration:e</title>
<path fill="none" stroke="#000000" stroke-dasharray="5,2" d="M788.5219,-976.5498C762.9647,-983.7597 758.7379,-1010.006 726,-1018.7 633.8604,-1043.169 370.9909,-1078.8148 297,-1018.7 227.9272,-962.581 344.9966,-822.7 256,-822.7"/>
<polygon fill="#000000" stroke="#000000" points="795.0645,-975.714 803.4563,-978.271 799.0323,-975.207 803,-974.7 803,-974.7 803,-974.7 799.0323,-975.207 802.5437,-971.129 795.0645,-975.714 795.0645,-975.714"/>
<ellipse fill="none" stroke="#000000" cx="791.8903" cy="-976.1195" rx="3.2" ry="3.2"/>
</g>
<!-- location -->
<g id="node7" class="node">
<title>location</title>
<g id="a_node7"><a xlink:href="../../tables/location.html" xlink:title="location" target="_top">
<polygon fill="#ffffff" stroke="transparent" points="465,-947.2 465,-1008.2 558,-1008.2 558,-947.2 465,-947.2"/>
<polygon fill="#f5f5f5" stroke="transparent" points="465.5,-984.7 465.5,-1007.7 558.5,-1007.7 558.5,-984.7 465.5,-984.7"/>
<polygon fill="none" stroke="#000000" points="465.5,-984.7 465.5,-1007.7 558.5,-1007.7 558.5,-984.7 465.5,-984.7"/>
<text text-anchor="start" x="470.5" y="-993.3" font-family="Helvetica,sans-Serif" font-weight="bold" font-size="11.00" fill="#000000">location</text>
<text text-anchor="start" x="524.0219" y="-992.8" font-family="Helvetica,sans-Serif" font-size="11.00" fill="#000000">[table]</text>
<polygon fill="none" stroke="#000000" points="465.5,-965.7 465.5,-984.7 558.5,-984.7 558.5,-965.7 465.5,-965.7"/>
<text text-anchor="start" x="468.5" y="-971.8" font-family="Helvetica,sans-Serif" font-size="11.00" fill="#000000">...</text>
<polygon fill="#ffffff" stroke="transparent" points="465.5,-946.7 465.5,-965.7 505.5,-965.7 505.5,-946.7 465.5,-946.7"/>
<polygon fill="none" stroke="#000000" points="465.5,-946.7 465.5,-965.7 505.5,-965.7 505.5,-946.7 465.5,-946.7"/>
<text text-anchor="start" x="468.5" y="-952.8" font-family="Helvetica,sans-Serif" font-size="11.00" fill="#000000">&lt; 3</text>
<polygon fill="#ffffff" stroke="transparent" points="505.5,-946.7 505.5,-965.7 527.5,-965.7 527.5,-946.7 505.5,-946.7"/>
<polygon fill="none" stroke="#000000" points="505.5,-946.7 505.5,-965.7 527.5,-965.7 527.5,-946.7 505.5,-946.7"/>
<text text-anchor="start" x="518.3862" y="-952.8" font-family="Helvetica,sans-Serif" font-size="11.00" fill="#000000"> &#160;</text>
<polygon fill="#ffffff" stroke="transparent" points="527.5,-946.7 527.5,-965.7 558.5,-965.7 558.5,-946.7 527.5,-946.7"/>
<polygon fill="none" stroke="#000000" points="527.5,-946.7 527.5,-965.7 558.5,-965.7 558.5,-946.7 527.5,-946.7"/>
<text text-anchor="start" x="539.9053" y="-952.8" font-family="Helvetica,sans-Serif" font-size="11.00" fill="#000000">8 &gt;</text>
</a>
</g>
</g>
<!-- certification_approval_request&#45;&gt;location -->
<g id="edge7" class="edge">
<title>certification_approval_request:w&#45;&gt;location:e</title>
<path fill="none" stroke="#000000" d="M788.5364,-974.7C691.6678,-974.7 662.179,-974.7 558.5,-974.7"/>
<polygon fill="#000000" stroke="#000000" points="795,-974.7001 803,-978.3 799,-974.7 803,-974.7 803,-974.7 803,-974.7 799,-974.7 803,-971.1 795,-974.7001 795,-974.7001"/>
<ellipse fill="none" stroke="#000000" cx="791.8" cy="-974.7001" rx="3.2" ry="3.2"/>
</g>
<!-- cell_certificate_upload -->
<g id="node4" class="node">
<title>cell_certificate_upload</title>
<g id="a_node4"><a xlink:href="../../tables/cell_certificate_upload.html" xlink:title="cell_certificate_upload" target="_top">
<polygon fill="#ffffff" stroke="transparent" points="305,-284.7 305,-880.7 718,-880.7 718,-284.7 305,-284.7"/>
<polygon fill="#f5f5f5" stroke="transparent" points="307.5,-855.7 307.5,-878.7 716.5,-878.7 716.5,-855.7 307.5,-855.7"/>
<polygon fill="none" stroke="#000000" points="307.5,-855.7 307.5,-878.7 716.5,-878.7 716.5,-855.7 307.5,-855.7"/>
<text text-anchor="start" x="312.5" y="-864.3" font-family="Helvetica,sans-Serif" font-weight="bold" font-size="11.00" fill="#000000">cell_certificate_upload</text>
<text text-anchor="start" x="681.5437" y="-863.8" font-family="Helvetica,sans-Serif" font-size="11.00" fill="#000000">[table]</text>
<polygon fill="none" stroke="#000000" points="307.5,-833.7 307.5,-855.7 622.5,-855.7 622.5,-833.7 307.5,-833.7"/>
<image xlink:href="../../images/primaryKeys.png" width="11px" height="12px" preserveAspectRatio="xMinYMin meet" x="312.5" y="-850.7"/>
<text text-anchor="start" x="327.5" y="-840.8" font-family="Helvetica,sans-Serif" font-size="11.00" fill="#000000">id</text>
<polygon fill="none" stroke="#000000" points="622.5,-833.7 622.5,-855.7 716.5,-855.7 716.5,-833.7 622.5,-833.7"/>
<text text-anchor="start" x="625.4758" y="-841.4" font-family="Helvetica,sans-Serif" font-size="11.00" fill="#000000">uuid[2147483647]</text>
<polygon fill="#ffffff" stroke="transparent" points="307.5,-811.7 307.5,-833.7 622.5,-833.7 622.5,-811.7 307.5,-811.7"/>
<polygon fill="none" stroke="#000000" points="307.5,-811.7 307.5,-833.7 622.5,-833.7 622.5,-811.7 307.5,-811.7"/>
<image xlink:href="../../images/foreignKeys.png" width="11px" height="12px" preserveAspectRatio="xMinYMin meet" x="312.5" y="-828.7"/>
<text text-anchor="start" x="327.5" y="-818.8" font-family="Helvetica,sans-Serif" font-size="11.00" fill="#000000">prison_id</text>
<polygon fill="none" stroke="#000000" points="622.5,-811.7 622.5,-833.7 716.5,-833.7 716.5,-811.7 622.5,-811.7"/>
<text text-anchor="start" x="625.5" y="-819.4" font-family="Helvetica,sans-Serif" font-size="11.00" fill="#000000">varchar[5]</text>
<polygon fill="none" stroke="#000000" points="307.5,-789.7 307.5,-811.7 622.5,-811.7 622.5,-789.7 307.5,-789.7"/>
<text text-anchor="start" x="327.5" y="-796.8" font-family="Helvetica,sans-Serif" font-size="11.00" fill="#000000">status</text>
<polygon fill="none" stroke="#000000" points="622.5,-789.7 622.5,-811.7 716.5,-811.7 716.5,-789.7 622.5,-789.7"/>
<text text-anchor="start" x="625.5" y="-797.4" font-family="Helvetica,sans-Serif" font-size="11.00" fill="#000000">varchar[20]</text>
<polygon fill="none" stroke="#000000" points="307.5,-767.7 307.5,-789.7 622.5,-789.7 622.5,-767.7 307.5,-767.7"/>
<text text-anchor="start" x="327.5" y="-774.8" font-family="Helvetica,sans-Serif" font-size="11.00" fill="#000000">requested_by</text>
<polygon fill="none" stroke="#000000" points="622.5,-767.7 622.5,-789.7 716.5,-789.7 716.5,-767.7 622.5,-767.7"/>
<text text-anchor="start" x="625.5" y="-775.4" font-family="Helvetica,sans-Serif" font-size="11.00" fill="#000000">varchar[255]</text>
<polygon fill="none" stroke="#000000" points="307.5,-745.7 307.5,-767.7 622.5,-767.7 622.5,-745.7 307.5,-745.7"/>
<text text-anchor="start" x="327.5" y="-752.8" font-family="Helvetica,sans-Serif" font-size="11.00" fill="#000000">requested_date</text>
<polygon fill="none" stroke="#000000" points="622.5,-745.7 622.5,-767.7 716.5,-767.7 716.5,-745.7 622.5,-745.7"/>
<text text-anchor="start" x="625.5" y="-753.4" font-family="Helvetica,sans-Serif" font-size="11.00" fill="#000000">timestamp[29,6]</text>
<polygon fill="none" stroke="#000000" points="307.5,-723.7 307.5,-745.7 622.5,-745.7 622.5,-723.7 307.5,-723.7"/>
<text text-anchor="start" x="327.5" y="-730.8" font-family="Helvetica,sans-Serif" font-size="11.00" fill="#000000">start_time</text>
<polygon fill="none" stroke="#000000" points="622.5,-723.7 622.5,-745.7 716.5,-745.7 716.5,-723.7 622.5,-723.7"/>
<text text-anchor="start" x="625.5" y="-731.4" font-family="Helvetica,sans-Serif" font-size="11.00" fill="#000000">timestamp[29,6]</text>
<polygon fill="none" stroke="#000000" points="307.5,-701.7 307.5,-723.7 622.5,-723.7 622.5,-701.7 307.5,-701.7"/>
<text text-anchor="start" x="327.5" y="-708.8" font-family="Helvetica,sans-Serif" font-size="11.00" fill="#000000">end_time</text>
<polygon fill="none" stroke="#000000" points="622.5,-701.7 622.5,-723.7 716.5,-723.7 716.5,-701.7 622.5,-701.7"/>
<text text-anchor="start" x="625.5" y="-709.4" font-family="Helvetica,sans-Serif" font-size="11.00" fill="#000000">timestamp[29,6]</text>
<polygon fill="none" stroke="#000000" points="307.5,-679.7 307.5,-701.7 622.5,-701.7 622.5,-679.7 307.5,-679.7"/>
<text text-anchor="start" x="327.5" y="-686.8" font-family="Helvetica,sans-Serif" font-size="11.00" fill="#000000">total_records</text>
<polygon fill="none" stroke="#000000" points="622.5,-679.7 622.5,-701.7 716.5,-701.7 716.5,-679.7 622.5,-679.7"/>
<text text-anchor="start" x="625.5" y="-687.4" font-family="Helvetica,sans-Serif" font-size="11.00" fill="#000000">int4[10]</text>
<polygon fill="none" stroke="#000000" points="307.5,-657.7 307.5,-679.7 622.5,-679.7 622.5,-657.7 307.5,-657.7"/>
<text text-anchor="start" x="327.5" y="-664.8" font-family="Helvetica,sans-Serif" font-size="11.00" fill="#000000">processed_records</text>
<polygon fill="none" stroke="#000000" points="622.5,-657.7 622.5,-679.7 716.5,-679.7 716.5,-657.7 622.5,-657.7"/>
<text text-anchor="start" x="625.5" y="-665.4" font-family="Helvetica,sans-Serif" font-size="11.00" fill="#000000">int4[10]</text>
<polygon fill="none" stroke="#000000" points="307.5,-635.7 307.5,-657.7 622.5,-657.7 622.5,-635.7 307.5,-635.7"/>
<text text-anchor="start" x="327.5" y="-642.8" font-family="Helvetica,sans-Serif" font-size="11.00" fill="#000000">skipped_records</text>
<polygon fill="none" stroke="#000000" points="622.5,-635.7 622.5,-657.7 716.5,-657.7 716.5,-635.7 622.5,-635.7"/>
<text text-anchor="start" x="625.5" y="-643.4" font-family="Helvetica,sans-Serif" font-size="11.00" fill="#000000">int4[10]</text>
<polygon fill="none" stroke="#000000" points="307.5,-613.7 307.5,-635.7 622.5,-635.7 622.5,-613.7 307.5,-613.7"/>
<text text-anchor="start" x="327.5" y="-620.8" font-family="Helvetica,sans-Serif" font-size="11.00" fill="#000000">failed_records</text>
<polygon fill="none" stroke="#000000" points="622.5,-613.7 622.5,-635.7 716.5,-635.7 716.5,-613.7 622.5,-613.7"/>
<text text-anchor="start" x="625.5" y="-621.4" font-family="Helvetica,sans-Serif" font-size="11.00" fill="#000000">int4[10]</text>
<polygon fill="none" stroke="#000000" points="307.5,-591.7 307.5,-613.7 622.5,-613.7 622.5,-591.7 307.5,-591.7"/>
<text text-anchor="start" x="327.5" y="-598.8" font-family="Helvetica,sans-Serif" font-size="11.00" fill="#000000">reason_for_change</text>
<polygon fill="none" stroke="#000000" points="622.5,-591.7 622.5,-613.7 716.5,-613.7 716.5,-591.7 622.5,-591.7"/>
<text text-anchor="start" x="625.5" y="-599.4" font-family="Helvetica,sans-Serif" font-size="11.00" fill="#000000">varchar[255]</text>
<polygon fill="none" stroke="#000000" points="307.5,-569.7 307.5,-591.7 622.5,-591.7 622.5,-569.7 307.5,-569.7"/>
<text text-anchor="start" x="327.5" y="-576.8" font-family="Helvetica,sans-Serif" font-size="11.00" fill="#000000">cell_certificate_id</text>
<polygon fill="none" stroke="#000000" points="622.5,-569.7 622.5,-591.7 716.5,-591.7 716.5,-569.7 622.5,-569.7"/>
<text text-anchor="start" x="625.4758" y="-577.4" font-family="Helvetica,sans-Serif" font-size="11.00" fill="#000000">uuid[2147483647]</text>
<polygon fill="none" stroke="#000000" points="307.5,-547.7 307.5,-569.7 622.5,-569.7 622.5,-547.7 307.5,-547.7"/>
<text text-anchor="start" x="327.5" y="-554.8" font-family="Helvetica,sans-Serif" font-size="11.00" fill="#000000">discrepancy_records</text>
<polygon fill="none" stroke="#000000" points="622.5,-547.7 622.5,-569.7 716.5,-569.7 716.5,-547.7 622.5,-547.7"/>
<text text-anchor="start" x="625.5" y="-555.4" font-family="Helvetica,sans-Serif" font-size="11.00" fill="#000000">int4[10]</text>
<polygon fill="#ffffff" stroke="transparent" points="307.5,-525.7 307.5,-547.7 622.5,-547.7 622.5,-525.7 307.5,-525.7"/>
<polygon fill="none" stroke="#000000" points="307.5,-525.7 307.5,-547.7 622.5,-547.7 622.5,-525.7 307.5,-525.7"/>
<text text-anchor="start" x="327.5" y="-532.8" font-family="Helvetica,sans-Serif" font-size="11.00" fill="#000000">certification_approval_request_id</text>
<polygon fill="none" stroke="#000000" points="622.5,-525.7 622.5,-547.7 716.5,-547.7 716.5,-525.7 622.5,-525.7"/>
<text text-anchor="start" x="625.4758" y="-533.4" font-family="Helvetica,sans-Serif" font-size="11.00" fill="#000000">uuid[2147483647]</text>
<polygon fill="none" stroke="#000000" points="307.5,-503.7 307.5,-525.7 622.5,-525.7 622.5,-503.7 307.5,-503.7"/>
<text text-anchor="start" x="327.5" y="-510.8" font-family="Helvetica,sans-Serif" font-size="11.00" fill="#000000">not_on_certificate_records</text>
<polygon fill="none" stroke="#000000" points="622.5,-503.7 622.5,-525.7 716.5,-525.7 716.5,-503.7 622.5,-503.7"/>
<text text-anchor="start" x="625.5" y="-511.4" font-family="Helvetica,sans-Serif" font-size="11.00" fill="#000000">int4[10]</text>
<polygon fill="none" stroke="#000000" points="307.5,-481.7 307.5,-503.7 622.5,-503.7 622.5,-481.7 307.5,-481.7"/>
<text text-anchor="start" x="327.5" y="-488.8" font-family="Helvetica,sans-Serif" font-size="11.00" fill="#000000">mode</text>
<polygon fill="none" stroke="#000000" points="622.5,-481.7 622.5,-503.7 716.5,-503.7 716.5,-481.7 622.5,-481.7"/>
<text text-anchor="start" x="625.5" y="-489.4" font-family="Helvetica,sans-Serif" font-size="11.00" fill="#000000">varchar[20]</text>
<polygon fill="#ffffff" stroke="transparent" points="307.5,-459.7 307.5,-481.7 622.5,-481.7 622.5,-459.7 307.5,-459.7"/>
<polygon fill="none" stroke="#000000" points="307.5,-459.7 307.5,-481.7 622.5,-481.7 622.5,-459.7 307.5,-459.7"/>
<image xlink:href="../../images/foreignKeys.png" width="11px" height="12px" preserveAspectRatio="xMinYMin meet" x="312.5" y="-476.7"/>
<text text-anchor="start" x="327.5" y="-466.8" font-family="Helvetica,sans-Serif" font-size="11.00" fill="#000000">preview_upload_id</text>
<polygon fill="none" stroke="#000000" points="622.5,-459.7 622.5,-481.7 716.5,-481.7 716.5,-459.7 622.5,-459.7"/>
<text text-anchor="start" x="625.4758" y="-467.4" font-family="Helvetica,sans-Serif" font-size="11.00" fill="#000000">uuid[2147483647]</text>
<polygon fill="none" stroke="#000000" points="307.5,-437.7 307.5,-459.7 622.5,-459.7 622.5,-437.7 307.5,-437.7"/>
<text text-anchor="start" x="327.5" y="-444.8" font-family="Helvetica,sans-Serif" font-size="11.00" fill="#000000">current_max_capacity</text>
<polygon fill="none" stroke="#000000" points="622.5,-437.7 622.5,-459.7 716.5,-459.7 716.5,-437.7 622.5,-437.7"/>
<text text-anchor="start" x="625.5" y="-445.4" font-family="Helvetica,sans-Serif" font-size="11.00" fill="#000000">int4[10]</text>
<polygon fill="none" stroke="#000000" points="307.5,-415.7 307.5,-437.7 622.5,-437.7 622.5,-415.7 307.5,-415.7"/>
<text text-anchor="start" x="327.5" y="-422.8" font-family="Helvetica,sans-Serif" font-size="11.00" fill="#000000">current_working_capacity</text>
<polygon fill="none" stroke="#000000" points="622.5,-415.7 622.5,-437.7 716.5,-437.7 716.5,-415.7 622.5,-415.7"/>
<text text-anchor="start" x="625.5" y="-423.4" font-family="Helvetica,sans-Serif" font-size="11.00" fill="#000000">int4[10]</text>
<polygon fill="none" stroke="#000000" points="307.5,-393.7 307.5,-415.7 622.5,-415.7 622.5,-393.7 307.5,-393.7"/>
<text text-anchor="start" x="327.5" y="-400.8" font-family="Helvetica,sans-Serif" font-size="11.00" fill="#000000">current_certified_normal_accommodation</text>
<polygon fill="none" stroke="#000000" points="622.5,-393.7 622.5,-415.7 716.5,-415.7 716.5,-393.7 622.5,-393.7"/>
<text text-anchor="start" x="625.5" y="-401.4" font-family="Helvetica,sans-Serif" font-size="11.00" fill="#000000">int4[10]</text>
<polygon fill="none" stroke="#000000" points="307.5,-371.7 307.5,-393.7 622.5,-393.7 622.5,-371.7 307.5,-371.7"/>
<text text-anchor="start" x="327.5" y="-378.8" font-family="Helvetica,sans-Serif" font-size="11.00" fill="#000000">projected_max_capacity</text>
<polygon fill="none" stroke="#000000" points="622.5,-371.7 622.5,-393.7 716.5,-393.7 716.5,-371.7 622.5,-371.7"/>
<text text-anchor="start" x="625.5" y="-379.4" font-family="Helvetica,sans-Serif" font-size="11.00" fill="#000000">int4[10]</text>
<polygon fill="none" stroke="#000000" points="307.5,-349.7 307.5,-371.7 622.5,-371.7 622.5,-349.7 307.5,-349.7"/>
<text text-anchor="start" x="327.5" y="-356.8" font-family="Helvetica,sans-Serif" font-size="11.00" fill="#000000">projected_working_capacity</text>
<polygon fill="none" stroke="#000000" points="622.5,-349.7 622.5,-371.7 716.5,-371.7 716.5,-349.7 622.5,-349.7"/>
<text text-anchor="start" x="625.5" y="-357.4" font-family="Helvetica,sans-Serif" font-size="11.00" fill="#000000">int4[10]</text>
<polygon fill="none" stroke="#000000" points="307.5,-327.7 307.5,-349.7 622.5,-349.7 622.5,-327.7 307.5,-327.7"/>
<text text-anchor="start" x="327.5" y="-334.8" font-family="Helvetica,sans-Serif" font-size="11.00" fill="#000000">projected_certified_normal_accommodation</text>
<polygon fill="none" stroke="#000000" points="622.5,-327.7 622.5,-349.7 716.5,-349.7 716.5,-327.7 622.5,-327.7"/>
<text text-anchor="start" x="625.5" y="-335.4" font-family="Helvetica,sans-Serif" font-size="11.00" fill="#000000">int4[10]</text>
<polygon fill="none" stroke="#000000" points="307.5,-305.7 307.5,-327.7 622.5,-327.7 622.5,-305.7 307.5,-305.7"/>
<text text-anchor="start" x="327.5" y="-312.8" font-family="Helvetica,sans-Serif" font-size="11.00" fill="#000000">carried_forward_records</text>
<polygon fill="none" stroke="#000000" points="622.5,-305.7 622.5,-327.7 716.5,-327.7 716.5,-305.7 622.5,-305.7"/>
<text text-anchor="start" x="625.5" y="-313.4" font-family="Helvetica,sans-Serif" font-size="11.00" fill="#000000">int4[10]</text>
<polygon fill="#ffffff" stroke="transparent" points="307.5,-286.7 307.5,-305.7 469.5,-305.7 469.5,-286.7 307.5,-286.7"/>
<polygon fill="none" stroke="#000000" points="307.5,-286.7 307.5,-305.7 469.5,-305.7 469.5,-286.7 307.5,-286.7"/>
<text text-anchor="start" x="310.5" y="-292.8" font-family="Helvetica,sans-Serif" font-size="11.00" fill="#000000">&lt; 2</text>
<polygon fill="#ffffff" stroke="transparent" points="469.5,-286.7 469.5,-305.7 622.5,-305.7 622.5,-286.7 469.5,-286.7"/>
<polygon fill="none" stroke="#000000" points="469.5,-286.7 469.5,-305.7 622.5,-305.7 622.5,-286.7 469.5,-286.7"/>
<text text-anchor="start" x="613.3862" y="-292.8" font-family="Helvetica,sans-Serif" font-size="11.00" fill="#000000"> &#160;</text>
<polygon fill="#ffffff" stroke="transparent" points="622.5,-286.7 622.5,-305.7 716.5,-305.7 716.5,-286.7 622.5,-286.7"/>
<polygon fill="none" stroke="#000000" points="622.5,-286.7 622.5,-305.7 716.5,-305.7 716.5,-286.7 622.5,-286.7"/>
<text text-anchor="start" x="697.9053" y="-292.8" font-family="Helvetica,sans-Serif" font-size="11.00" fill="#000000">3 &gt;</text>
<polygon fill="none" stroke="#000000" stroke-width="2" points="306,-285.7 306,-879.7 717,-879.7 717,-285.7 306,-285.7"/>
</a>
</g>
</g>
<!-- cell_certificate_upload&#45;&gt;prison_configuration -->
<g id="edge4" class="edge">
<title>cell_certificate_upload:w&#45;&gt;prison_configuration:e</title>
<path fill="none" stroke="#000000" stroke-dasharray="5,2" d="M297.045,-822.7C282.137,-822.7 274.9549,-822.7 256,-822.7"/>
<polygon fill="#000000" stroke="#000000" points="306.7,-818.7 306.7,-826.7 305.1,-826.7 305.1,-818.7 306.7,-818.7"/>
<polyline fill="none" stroke="#000000" points="307.5,-822.7 303.5,-822.7 "/>
<ellipse fill="none" stroke="#000000" cx="300.3" cy="-822.7001" rx="3.2" ry="3.2"/>
</g>
<!-- cell_certificate_upload&#45;&gt;cell_certificate_upload -->
<g id="edge3" class="edge">
<title>cell_certificate_upload:w&#45;&gt;cell_certificate_upload:e</title>
<path fill="none" stroke="#000000" d="M298.1494,-482.2056C213.3493,-597.3355 223.2197,-897.7 512,-897.7 811,-897.7 811,-889.0333 716.5,-844.7"/>
<polygon fill="#000000" stroke="#000000" points="302.4545,-476.9083 310.2937,-472.9705 304.9773,-473.8042 307.5,-470.7 307.5,-470.7 307.5,-470.7 304.9773,-473.8042 304.7063,-468.4295 302.4545,-476.9083 302.4545,-476.9083"/>
<ellipse fill="none" stroke="#000000" cx="300.4363" cy="-479.3917" rx="3.2" ry="3.2"/>
</g>
<!-- cell_certificate_upload_location -->
<g id="node5" class="node">
<title>cell_certificate_upload_location</title>
<g id="a_node5"><a xlink:href="../../tables/cell_certificate_upload_location.html" xlink:title="cell_certificate_upload_location" target="_top">
<polygon fill="#ffffff" stroke="transparent" points="767,-793.2 767,-898.2 1083,-898.2 1083,-793.2 767,-793.2"/>
<polygon fill="#f5f5f5" stroke="transparent" points="767,-874.7 767,-897.7 1083,-897.7 1083,-874.7 767,-874.7"/>
<polygon fill="none" stroke="#000000" points="767,-874.7 767,-897.7 1083,-897.7 1083,-874.7 767,-874.7"/>
<text text-anchor="start" x="772" y="-883.3" font-family="Helvetica,sans-Serif" font-weight="bold" font-size="11.00" fill="#000000">cell_certificate_upload_location</text>
<text text-anchor="start" x="1048.0437" y="-882.8" font-family="Helvetica,sans-Serif" font-size="11.00" fill="#000000">[table]</text>
<polygon fill="none" stroke="#000000" points="767,-852.7 767,-874.7 1083,-874.7 1083,-852.7 767,-852.7"/>
<image xlink:href="../../images/primaryKeys.png" width="11px" height="12px" preserveAspectRatio="xMinYMin meet" x="772" y="-869.7"/>
<text text-anchor="start" x="787" y="-859.8" font-family="Helvetica,sans-Serif" font-size="11.00" fill="#000000">id</text>
<polygon fill="#ffffff" stroke="transparent" points="767,-830.7 767,-852.7 1083,-852.7 1083,-830.7 767,-830.7"/>
<polygon fill="none" stroke="#000000" points="767,-830.7 767,-852.7 1083,-852.7 1083,-830.7 767,-830.7"/>
<image xlink:href="../../images/foreignKeys.png" width="11px" height="12px" preserveAspectRatio="xMinYMin meet" x="772" y="-847.7"/>
<text text-anchor="start" x="787" y="-837.8" font-family="Helvetica,sans-Serif" font-size="11.00" fill="#000000">cell_certificate_upload_id</text>
<polygon fill="none" stroke="#000000" points="767,-811.7 767,-830.7 1083,-830.7 1083,-811.7 767,-811.7"/>
<text text-anchor="start" x="770" y="-817.8" font-family="Helvetica,sans-Serif" font-size="11.00" fill="#000000">...</text>
<polygon fill="#ffffff" stroke="transparent" points="767,-792.7 767,-811.7 923,-811.7 923,-792.7 767,-792.7"/>
<polygon fill="none" stroke="#000000" points="767,-792.7 767,-811.7 923,-811.7 923,-792.7 767,-792.7"/>
<text text-anchor="start" x="770" y="-798.8" font-family="Helvetica,sans-Serif" font-size="11.00" fill="#000000">&lt; 1</text>
<polygon fill="#ffffff" stroke="transparent" points="923,-792.7 923,-811.7 1003,-811.7 1003,-792.7 923,-792.7"/>
<polygon fill="none" stroke="#000000" points="923,-792.7 923,-811.7 1003,-811.7 1003,-792.7 923,-792.7"/>
<text text-anchor="start" x="993.8862" y="-798.8" font-family="Helvetica,sans-Serif" font-size="11.00" fill="#000000"> &#160;</text>
<polygon fill="#ffffff" stroke="transparent" points="1003,-792.7 1003,-811.7 1083,-811.7 1083,-792.7 1003,-792.7"/>
<polygon fill="none" stroke="#000000" points="1003,-792.7 1003,-811.7 1083,-811.7 1083,-792.7 1003,-792.7"/>
<text text-anchor="start" x="1073.8862" y="-798.8" font-family="Helvetica,sans-Serif" font-size="11.00" fill="#000000"> &#160;</text>
</a>
</g>
</g>
<!-- cell_certificate_upload_location&#45;&gt;cell_certificate_upload -->
<g id="edge5" class="edge">
<title>cell_certificate_upload_location:w&#45;&gt;cell_certificate_upload:e</title>
<path fill="none" stroke="#000000" d="M752.4093,-842.1954C740.5368,-843.0475 733.1874,-844.7 716.5,-844.7"/>
<polygon fill="#000000" stroke="#000000" points="759.0046,-841.9715 767.1222,-845.2979 763.0023,-841.8358 767,-841.7 767,-841.7 767,-841.7 763.0023,-841.8358 766.8778,-838.1021 759.0046,-841.9715 759.0046,-841.9715"/>
<ellipse fill="none" stroke="#000000" cx="755.8064" cy="-842.0801" rx="3.2" ry="3.2"/>
</g>
<!-- cell_certificate_upload_not_on_certificate -->
<g id="node6" class="node">
<title>cell_certificate_upload_not_on_certificate</title>
<g id="a_node6"><a xlink:href="../../tables/cell_certificate_upload_not_on__5a0cd35c.html" xlink:title="cell_certificate_upload_not_on_certificate" target="_top">
<polygon fill="#ffffff" stroke="transparent" points="767,-667.2 767,-772.2 1083,-772.2 1083,-667.2 767,-667.2"/>
<polygon fill="#f5f5f5" stroke="transparent" points="767,-748.7 767,-771.7 1083,-771.7 1083,-748.7 767,-748.7"/>
<polygon fill="none" stroke="#000000" points="767,-748.7 767,-771.7 1083,-771.7 1083,-748.7 767,-748.7"/>
<text text-anchor="start" x="772" y="-757.3" font-family="Helvetica,sans-Serif" font-weight="bold" font-size="11.00" fill="#000000">cell_certificate_upload_not_on_certificate</text>
<text text-anchor="start" x="1048.5219" y="-756.8" font-family="Helvetica,sans-Serif" font-size="11.00" fill="#000000">[table]</text>
<polygon fill="none" stroke="#000000" points="767,-726.7 767,-748.7 1083,-748.7 1083,-726.7 767,-726.7"/>
<image xlink:href="../../images/primaryKeys.png" width="11px" height="12px" preserveAspectRatio="xMinYMin meet" x="772" y="-743.7"/>
<text text-anchor="start" x="796" y="-733.8" font-family="Helvetica,sans-Serif" font-size="11.00" fill="#000000">id</text>
<polygon fill="#ffffff" stroke="transparent" points="767,-704.7 767,-726.7 1083,-726.7 1083,-704.7 767,-704.7"/>
<polygon fill="none" stroke="#000000" points="767,-704.7 767,-726.7 1083,-726.7 1083,-704.7 767,-704.7"/>
<image xlink:href="../../images/foreignKeys.png" width="11px" height="12px" preserveAspectRatio="xMinYMin meet" x="772" y="-721.7"/>
<text text-anchor="start" x="796" y="-711.8" font-family="Helvetica,sans-Serif" font-size="11.00" fill="#000000">cell_certificate_upload_id</text>
<polygon fill="none" stroke="#000000" points="767,-685.7 767,-704.7 1083,-704.7 1083,-685.7 767,-685.7"/>
<text text-anchor="start" x="770" y="-691.8" font-family="Helvetica,sans-Serif" font-size="11.00" fill="#000000">...</text>
<polygon fill="#ffffff" stroke="transparent" points="767,-666.7 767,-685.7 923,-685.7 923,-666.7 767,-666.7"/>
<polygon fill="none" stroke="#000000" points="767,-666.7 767,-685.7 923,-685.7 923,-666.7 767,-666.7"/>
<text text-anchor="start" x="770" y="-672.8" font-family="Helvetica,sans-Serif" font-size="11.00" fill="#000000">&lt; 1</text>
<polygon fill="#ffffff" stroke="transparent" points="923,-666.7 923,-685.7 1003,-685.7 1003,-666.7 923,-666.7"/>
<polygon fill="none" stroke="#000000" points="923,-666.7 923,-685.7 1003,-685.7 1003,-666.7 923,-666.7"/>
<text text-anchor="start" x="993.8862" y="-672.8" font-family="Helvetica,sans-Serif" font-size="11.00" fill="#000000"> &#160;</text>
<polygon fill="#ffffff" stroke="transparent" points="1003,-666.7 1003,-685.7 1083,-685.7 1083,-666.7 1003,-666.7"/>
<polygon fill="none" stroke="#000000" points="1003,-666.7 1003,-685.7 1083,-685.7 1083,-666.7 1003,-666.7"/>
<text text-anchor="start" x="1073.8862" y="-672.8" font-family="Helvetica,sans-Serif" font-size="11.00" fill="#000000"> &#160;</text>
</a>
</g>
</g>
<!-- cell_certificate_upload_not_on_certificate&#45;&gt;cell_certificate_upload -->
<g id="edge6" class="edge">
<title>cell_certificate_upload_not_on_certificate:w&#45;&gt;cell_certificate_upload:e</title>
<path fill="none" stroke="#000000" d="M752.5517,-719.1504C718.3376,-739.6651 772.0573,-844.7 716.5,-844.7"/>
<polygon fill="#000000" stroke="#000000" points="759.2188,-717.5583 767.8362,-719.2015 763.1094,-716.6291 767,-715.7 767,-715.7 767,-715.7 763.1094,-716.6291 766.1638,-712.1985 759.2188,-717.5583 759.2188,-717.5583"/>
<ellipse fill="none" stroke="#000000" cx="756.1063" cy="-718.3016" rx="3.2" ry="3.2"/>
</g>
<!-- location&#45;&gt;prison_configuration -->
<g id="edge10" class="edge">
<title>location:w&#45;&gt;prison_configuration:e</title>
<path fill="none" stroke="#000000" stroke-dasharray="5,2" d="M451.0996,-974.7986C383.8686,-975.6616 350.8468,-980.8061 297,-932.7 258.0914,-897.9395 308.1744,-822.7 256,-822.7"/>
<polygon fill="#000000" stroke="#000000" points="457.5002,-974.7548 465.5247,-978.2999 461.5001,-974.7274 465.5,-974.7 465.5,-974.7 465.5,-974.7 461.5001,-974.7274 465.4753,-971.1001 457.5002,-974.7548 457.5002,-974.7548"/>
<ellipse fill="none" stroke="#000000" cx="454.3003" cy="-974.7768" rx="3.2" ry="3.2"/>
</g>
<!-- linked_transaction -->
<g id="node8" class="node">
<title>linked_transaction</title>
<g id="a_node8"><a xlink:href="../../tables/linked_transaction.html" xlink:title="linked_transaction" target="_top">
<polygon fill="#ffffff" stroke="transparent" points="430,-202.2 430,-263.2 593,-263.2 593,-202.2 430,-202.2"/>
<polygon fill="#f5f5f5" stroke="transparent" points="430.5,-239.7 430.5,-262.7 593.5,-262.7 593.5,-239.7 430.5,-239.7"/>
<polygon fill="none" stroke="#000000" points="430.5,-239.7 430.5,-262.7 593.5,-262.7 593.5,-239.7 430.5,-239.7"/>
<text text-anchor="start" x="435.5" y="-248.3" font-family="Helvetica,sans-Serif" font-weight="bold" font-size="11.00" fill="#000000">linked_transaction</text>
<text text-anchor="start" x="559.0219" y="-247.8" font-family="Helvetica,sans-Serif" font-size="11.00" fill="#000000">[table]</text>
<polygon fill="none" stroke="#000000" points="430.5,-220.7 430.5,-239.7 593.5,-239.7 593.5,-220.7 430.5,-220.7"/>
<text text-anchor="start" x="433.5" y="-226.8" font-family="Helvetica,sans-Serif" font-size="11.00" fill="#000000">...</text>
<polygon fill="#ffffff" stroke="transparent" points="430.5,-201.7 430.5,-220.7 505.5,-220.7 505.5,-201.7 430.5,-201.7"/>
<polygon fill="none" stroke="#000000" points="430.5,-201.7 430.5,-220.7 505.5,-220.7 505.5,-201.7 430.5,-201.7"/>
<text text-anchor="start" x="433.5" y="-207.8" font-family="Helvetica,sans-Serif" font-size="11.00" fill="#000000">&lt; 1</text>
<polygon fill="#ffffff" stroke="transparent" points="505.5,-201.7 505.5,-220.7 544.5,-220.7 544.5,-201.7 505.5,-201.7"/>
<polygon fill="none" stroke="#000000" points="505.5,-201.7 505.5,-220.7 544.5,-220.7 544.5,-201.7 505.5,-201.7"/>
<text text-anchor="start" x="535.3862" y="-207.8" font-family="Helvetica,sans-Serif" font-size="11.00" fill="#000000"> &#160;</text>
<polygon fill="#ffffff" stroke="transparent" points="544.5,-201.7 544.5,-220.7 593.5,-220.7 593.5,-201.7 544.5,-201.7"/>
<polygon fill="none" stroke="#000000" points="544.5,-201.7 544.5,-220.7 593.5,-220.7 593.5,-201.7 544.5,-201.7"/>
<text text-anchor="start" x="574.9053" y="-207.8" font-family="Helvetica,sans-Serif" font-size="11.00" fill="#000000">1 &gt;</text>
</a>
</g>
</g>
<!-- linked_transaction&#45;&gt;prison_configuration -->
<g id="edge9" class="edge">
<title>linked_transaction:w&#45;&gt;prison_configuration:e</title>
<path fill="none" stroke="#000000" stroke-dasharray="5,2" d="M416.0191,-229.6442C362.6454,-229.3319 332.3233,-229.2032 297,-274.7 259.555,-322.9295 317.0591,-822.7 256,-822.7"/>
<polygon fill="#000000" stroke="#000000" points="422.5001,-229.6691 430.4861,-233.3 426.5,-229.6846 430.5,-229.7 430.5,-229.7 430.5,-229.7 426.5,-229.6846 430.5139,-226.1 422.5001,-229.6691 422.5001,-229.6691"/>
<ellipse fill="none" stroke="#000000" cx="419.3001" cy="-229.6568" rx="3.2" ry="3.2"/>
</g>
<!-- prison_notification_mailbox -->
<g id="node9" class="node">
<title>prison_notification_mailbox</title>
<g id="a_node9"><a xlink:href="../../tables/prison_notification_mailbox.html" xlink:title="prison_notification_mailbox" target="_top">
<polygon fill="#ffffff" stroke="transparent" points="399.5,-120.2 399.5,-181.2 623.5,-181.2 623.5,-120.2 399.5,-120.2"/>
<polygon fill="#f5f5f5" stroke="transparent" points="399.5,-157.7 399.5,-180.7 623.5,-180.7 623.5,-157.7 399.5,-157.7"/>
<polygon fill="none" stroke="#000000" points="399.5,-157.7 399.5,-180.7 623.5,-180.7 623.5,-157.7 399.5,-157.7"/>
<text text-anchor="start" x="404.5" y="-166.3" font-family="Helvetica,sans-Serif" font-weight="bold" font-size="11.00" fill="#000000">prison_notification_mailbox</text>
<text text-anchor="start" x="589.0219" y="-165.8" font-family="Helvetica,sans-Serif" font-size="11.00" fill="#000000">[table]</text>
<polygon fill="none" stroke="#000000" points="399.5,-138.7 399.5,-157.7 623.5,-157.7 623.5,-138.7 399.5,-138.7"/>
<text text-anchor="start" x="402.5" y="-144.8" font-family="Helvetica,sans-Serif" font-size="11.00" fill="#000000">...</text>
<polygon fill="#ffffff" stroke="transparent" points="399.5,-119.7 399.5,-138.7 509.5,-138.7 509.5,-119.7 399.5,-119.7"/>
<polygon fill="none" stroke="#000000" points="399.5,-119.7 399.5,-138.7 509.5,-138.7 509.5,-119.7 399.5,-119.7"/>
<text text-anchor="start" x="402.5" y="-125.8" font-family="Helvetica,sans-Serif" font-size="11.00" fill="#000000">&lt; 1</text>
<polygon fill="#ffffff" stroke="transparent" points="509.5,-119.7 509.5,-138.7 566.5,-138.7 566.5,-119.7 509.5,-119.7"/>
<polygon fill="none" stroke="#000000" points="509.5,-119.7 509.5,-138.7 566.5,-138.7 566.5,-119.7 509.5,-119.7"/>
<text text-anchor="start" x="557.3862" y="-125.8" font-family="Helvetica,sans-Serif" font-size="11.00" fill="#000000"> &#160;</text>
<polygon fill="#ffffff" stroke="transparent" points="566.5,-119.7 566.5,-138.7 623.5,-138.7 623.5,-119.7 566.5,-119.7"/>
<polygon fill="none" stroke="#000000" points="566.5,-119.7 566.5,-138.7 623.5,-138.7 623.5,-119.7 566.5,-119.7"/>
<text text-anchor="start" x="614.3862" y="-125.8" font-family="Helvetica,sans-Serif" font-size="11.00" fill="#000000"> &#160;</text>
</a>
</g>
</g>
<!-- prison_notification_mailbox&#45;&gt;prison_configuration -->
<g id="edge11" class="edge">
<title>prison_notification_mailbox:w&#45;&gt;prison_configuration:e</title>
<path fill="none" stroke="#000000" stroke-dasharray="5,2" d="M384.8837,-147.85C344.8441,-148.8231 322.6458,-155.4022 297,-191.7 256.4577,-249.0816 326.259,-822.7 256,-822.7"/>
<polygon fill="#000000" stroke="#000000" points="391.5004,-147.7821 399.537,-151.2998 395.5002,-147.7411 399.5,-147.7 399.5,-147.7 399.5,-147.7 395.5002,-147.7411 399.463,-144.1002 391.5004,-147.7821 391.5004,-147.7821"/>
<ellipse fill="none" stroke="#000000" cx="388.3006" cy="-147.815" rx="3.2" ry="3.2"/>
</g>
<!-- signed_operation_capacity -->
<g id="node10" class="node">
<title>signed_operation_capacity</title>
<g id="a_node10"><a xlink:href="../../tables/signed_operation_capacity.html" xlink:title="signed_operation_capacity" target="_top">
<polygon fill="#ffffff" stroke="transparent" points="402.5,-38.2 402.5,-99.2 620.5,-99.2 620.5,-38.2 402.5,-38.2"/>
<polygon fill="#f5f5f5" stroke="transparent" points="402.5,-75.7 402.5,-98.7 620.5,-98.7 620.5,-75.7 402.5,-75.7"/>
<polygon fill="none" stroke="#000000" points="402.5,-75.7 402.5,-98.7 620.5,-98.7 620.5,-75.7 402.5,-75.7"/>
<text text-anchor="start" x="407.5" y="-84.3" font-family="Helvetica,sans-Serif" font-weight="bold" font-size="11.00" fill="#000000">signed_operation_capacity</text>
<text text-anchor="start" x="586.0219" y="-83.8" font-family="Helvetica,sans-Serif" font-size="11.00" fill="#000000">[table]</text>
<polygon fill="none" stroke="#000000" points="402.5,-56.7 402.5,-75.7 620.5,-75.7 620.5,-56.7 402.5,-56.7"/>
<text text-anchor="start" x="405.5" y="-62.8" font-family="Helvetica,sans-Serif" font-size="11.00" fill="#000000">...</text>
<polygon fill="#ffffff" stroke="transparent" points="402.5,-37.7 402.5,-56.7 509.5,-56.7 509.5,-37.7 402.5,-37.7"/>
<polygon fill="none" stroke="#000000" points="402.5,-37.7 402.5,-56.7 509.5,-56.7 509.5,-37.7 402.5,-37.7"/>
<text text-anchor="start" x="405.5" y="-43.8" font-family="Helvetica,sans-Serif" font-size="11.00" fill="#000000">&lt; 1</text>
<polygon fill="#ffffff" stroke="transparent" points="509.5,-37.7 509.5,-56.7 564.5,-56.7 564.5,-37.7 509.5,-37.7"/>
<polygon fill="none" stroke="#000000" points="509.5,-37.7 509.5,-56.7 564.5,-56.7 564.5,-37.7 509.5,-37.7"/>
<text text-anchor="start" x="555.3862" y="-43.8" font-family="Helvetica,sans-Serif" font-size="11.00" fill="#000000"> &#160;</text>
<polygon fill="#ffffff" stroke="transparent" points="564.5,-37.7 564.5,-56.7 620.5,-56.7 620.5,-37.7 564.5,-37.7"/>
<polygon fill="none" stroke="#000000" points="564.5,-37.7 564.5,-56.7 620.5,-56.7 620.5,-37.7 564.5,-37.7"/>
<text text-anchor="start" x="611.3862" y="-43.8" font-family="Helvetica,sans-Serif" font-size="11.00" fill="#000000"> &#160;</text>
</a>
</g>
</g>
<!-- signed_operation_capacity&#45;&gt;prison_configuration -->
<g id="edge12" class="edge">
<title>signed_operation_capacity:w&#45;&gt;prison_configuration:e</title>
<path fill="none" stroke="#000000" stroke-dasharray="5,2" d="M391.8741,-65.7537C348.0158,-66.2718 324.2531,-71.2461 297,-109.7 251.1159,-174.4423 335.3531,-822.7 256,-822.7"/>
<polygon fill="#000000" stroke="#000000" points="401.6798,-61.7041 401.7203,-69.704 400.1203,-69.7121 400.0798,-61.7122 401.6798,-61.7041"/>
<polyline fill="none" stroke="#000000" points="402.5,-65.7 398.5001,-65.7202 "/>
<ellipse fill="none" stroke="#000000" cx="395.3001" cy="-65.7364" rx="3.2" ry="3.2"/>
</g>
</g>
</svg>
