<?xml version="1.0" encoding="UTF-8" standalone="no"?>
<!DOCTYPE svg PUBLIC "-//W3C//DTD SVG 1.1//EN"
 "http://www.w3.org/Graphics/SVG/1.1/DTD/svg11.dtd">
<!-- Generated by graphviz version 2.40.1 (20161225.0304)
 -->
<!-- Title: twoDegreesRelationshipsDiagramImplied Pages: 1 -->
<svg width="959pt" height="536pt"
 viewBox="0.00 0.00 959.00 536.20" xmlns="http://www.w3.org/2000/svg" xmlns:xlink="http://www.w3.org/1999/xlink">
<g id="graph0" class="graph" transform="scale(1 1) rotate(0) translate(4 532.2)">
<title>twoDegreesRelationshipsDiagramImplied</title>
<polygon fill="#ffffff" stroke="transparent" points="-4,4 -4,-532.2 955,-532.2 955,4 -4,4"/>
<text text-anchor="middle" x="72.4936" y="-7.3" font-family="Helvetica,sans-Serif" font-size="11.00" fill="#000000">Generated by SchemaSpy</text>
<!-- cell_certificate_upload -->
<g id="node1" class="node">
<title>cell_certificate_upload</title>
<g id="a_node1"><a xlink:href="../../tables/cell_certificate_upload.html" xlink:title="cell_certificate_upload" target="_top">
<polygon fill="#ffffff" stroke="transparent" points="235,-373.7 235,-500.7 480,-500.7 480,-373.7 235,-373.7"/>
<polygon fill="#f5f5f5" stroke="transparent" points="235.5,-477.2 235.5,-500.2 480.5,-500.2 480.5,-477.2 235.5,-477.2"/>
<polygon fill="none" stroke="#000000" points="235.5,-477.2 235.5,-500.2 480.5,-500.2 480.5,-477.2 235.5,-477.2"/>
<text text-anchor="start" x="240.5" y="-485.8" font-family="Helvetica,sans-Serif" font-weight="bold" font-size="11.00" fill="#000000">cell_certificate_upload</text>
<text text-anchor="start" x="445.5437" y="-485.3" font-family="Helvetica,sans-Serif" font-size="11.00" fill="#000000">[table]</text>
<polygon fill="none" stroke="#000000" points="235.5,-455.2 235.5,-477.2 480.5,-477.2 480.5,-455.2 235.5,-455.2"/>
<image xlink:href="../../images/primaryKeys.png" width="11px" height="12px" preserveAspectRatio="xMinYMin meet" x="240.5" y="-472.2"/>
<text text-anchor="start" x="255.5" y="-462.3" font-family="Helvetica,sans-Serif" font-size="11.00" fill="#000000">id</text>
<polygon fill="#ffffff" stroke="transparent" points="235.5,-433.2 235.5,-455.2 480.5,-455.2 480.5,-433.2 235.5,-433.2"/>
<polygon fill="none" stroke="#000000" points="235.5,-433.2 235.5,-455.2 480.5,-455.2 480.5,-433.2 235.5,-433.2"/>
<image xlink:href="../../images/foreignKeys.png" width="11px" height="12px" preserveAspectRatio="xMinYMin meet" x="240.5" y="-450.2"/>
<text text-anchor="start" x="255.5" y="-440.3" font-family="Helvetica,sans-Serif" font-size="11.00" fill="#000000">prison_id</text>
<polygon fill="#ffffff" stroke="transparent" points="235.5,-411.2 235.5,-433.2 480.5,-433.2 480.5,-411.2 235.5,-411.2"/>
<polygon fill="none" stroke="#000000" points="235.5,-411.2 235.5,-433.2 480.5,-433.2 480.5,-411.2 235.5,-411.2"/>
<text text-anchor="start" x="255.5" y="-418.3" font-family="Helvetica,sans-Serif" font-size="11.00" fill="#000000">certification_approval_request_id</text>
<polygon fill="none" stroke="#000000" points="235.5,-392.2 235.5,-411.2 480.5,-411.2 480.5,-392.2 235.5,-392.2"/>
<text text-anchor="start" x="238.5" y="-398.3" font-family="Helvetica,sans-Serif" font-size="11.00" fill="#000000">...</text>
<polygon fill="#ffffff" stroke="transparent" points="235.5,-373.2 235.5,-392.2 351.5,-392.2 351.5,-373.2 235.5,-373.2"/>
<polygon fill="none" stroke="#000000" points="235.5,-373.2 235.5,-392.2 351.5,-392.2 351.5,-373.2 235.5,-373.2"/>
<text text-anchor="start" x="238.5" y="-379.3" font-family="Helvetica,sans-Serif" font-size="11.00" fill="#000000">&lt; 1</text>
<polygon fill="#ffffff" stroke="transparent" points="351.5,-373.2 351.5,-392.2 411.5,-392.2 411.5,-373.2 351.5,-373.2"/>
<polygon fill="none" stroke="#000000" points="351.5,-373.2 351.5,-392.2 411.5,-392.2 411.5,-373.2 351.5,-373.2"/>
<text text-anchor="start" x="402.3862" y="-379.3" font-family="Helvetica,sans-Serif" font-size="11.00" fill="#000000"> &#160;</text>
<polygon fill="#ffffff" stroke="transparent" points="411.5,-373.2 411.5,-392.2 480.5,-392.2 480.5,-373.2 411.5,-373.2"/>
<polygon fill="none" stroke="#000000" points="411.5,-373.2 411.5,-392.2 480.5,-392.2 480.5,-373.2 411.5,-373.2"/>
<text text-anchor="start" x="461.9053" y="-379.3" font-family="Helvetica,sans-Serif" font-size="11.00" fill="#000000">1 &gt;</text>
</a>
</g>
</g>
<!-- prison_configuration -->
<g id="node2" class="node">
<title>prison_configuration</title>
<g id="a_node2"><a xlink:href="../../tables/prison_configuration.html" xlink:title="prison_configuration" target="_top">
<polygon fill="#ffffff" stroke="transparent" points="8,-416.7 8,-477.7 186,-477.7 186,-416.7 8,-416.7"/>
<polygon fill="#f5f5f5" stroke="transparent" points="8,-454.2 8,-477.2 186,-477.2 186,-454.2 8,-454.2"/>
<polygon fill="none" stroke="#000000" points="8,-454.2 8,-477.2 186,-477.2 186,-454.2 8,-454.2"/>
<text text-anchor="start" x="13" y="-462.8" font-family="Helvetica,sans-Serif" font-weight="bold" font-size="11.00" fill="#000000">prison_configuration</text>
<text text-anchor="start" x="151.5219" y="-462.3" font-family="Helvetica,sans-Serif" font-size="11.00" fill="#000000">[table]</text>
<polygon fill="none" stroke="#000000" points="8,-435.2 8,-454.2 186,-454.2 186,-435.2 8,-435.2"/>
<text text-anchor="start" x="11" y="-441.3" font-family="Helvetica,sans-Serif" font-size="11.00" fill="#000000">...</text>
<polygon fill="#ffffff" stroke="transparent" points="8,-416.2 8,-435.2 86,-435.2 86,-416.2 8,-416.2"/>
<polygon fill="none" stroke="#000000" points="8,-416.2 8,-435.2 86,-435.2 86,-416.2 8,-416.2"/>
<text text-anchor="start" x="11" y="-422.3" font-family="Helvetica,sans-Serif" font-size="11.00" fill="#000000"> &#160;</text>
<polygon fill="#ffffff" stroke="transparent" points="86,-416.2 86,-435.2 131,-435.2 131,-416.2 86,-416.2"/>
<polygon fill="none" stroke="#000000" points="86,-416.2 86,-435.2 131,-435.2 131,-416.2 86,-416.2"/>
<text text-anchor="start" x="121.8862" y="-422.3" font-family="Helvetica,sans-Serif" font-size="11.00" fill="#000000"> &#160;</text>
<polygon fill="#ffffff" stroke="transparent" points="131,-416.2 131,-435.2 186,-435.2 186,-416.2 131,-416.2"/>
<polygon fill="none" stroke="#000000" points="131,-416.2 131,-435.2 186,-435.2 186,-416.2 131,-416.2"/>
<text text-anchor="start" x="167.4053" y="-422.3" font-family="Helvetica,sans-Serif" font-size="11.00" fill="#000000">7 &gt;</text>
</a>
</g>
</g>
<!-- cell_certificate_upload&#45;&gt;prison_configuration -->
<g id="edge1" class="edge">
<title>cell_certificate_upload:w&#45;&gt;prison_configuration:e</title>
<path fill="none" stroke="#000000" stroke-dasharray="5,2" d="M225.0474,-444.2C210.9907,-444.2 204.0469,-444.2 186,-444.2"/>
<polygon fill="#000000" stroke="#000000" points="234.7,-440.2 234.7,-448.2 233.1,-448.2 233.1,-440.2 234.7,-440.2"/>
<polyline fill="none" stroke="#000000" points="235.5,-444.2 231.5,-444.2 "/>
<ellipse fill="none" stroke="#000000" cx="228.3" cy="-444.2001" rx="3.2" ry="3.2"/>
</g>
<!-- cell_certificate_upload_location -->
<g id="node3" class="node">
<title>cell_certificate_upload_location</title>
<g id="a_node3"><a xlink:href="../../tables/cell_certificate_upload_location.html" xlink:title="cell_certificate_upload_location" target="_top">
<polygon fill="#ffffff" stroke="transparent" points="529,-38.2 529,-524.2 943,-524.2 943,-38.2 529,-38.2"/>
<polygon fill="#f5f5f5" stroke="transparent" points="531,-499.2 531,-522.2 941,-522.2 941,-499.2 531,-499.2"/>
<polygon fill="none" stroke="#000000" points="531,-499.2 531,-522.2 941,-522.2 941,-499.2 531,-499.2"/>
<text text-anchor="start" x="536" y="-507.8" font-family="Helvetica,sans-Serif" font-weight="bold" font-size="11.00" fill="#000000">cell_certificate_upload_location</text>
<text text-anchor="start" x="906.0437" y="-507.3" font-family="Helvetica,sans-Serif" font-size="11.00" fill="#000000">[table]</text>
<polygon fill="none" stroke="#000000" points="531,-477.2 531,-499.2 847,-499.2 847,-477.2 531,-477.2"/>
<image xlink:href="../../images/primaryKeys.png" width="11px" height="12px" preserveAspectRatio="xMinYMin meet" x="536" y="-494.2"/>
<text text-anchor="start" x="551" y="-484.3" font-family="Helvetica,sans-Serif" font-size="11.00" fill="#000000">id</text>
<polygon fill="none" stroke="#000000" points="847,-477.2 847,-499.2 941,-499.2 941,-477.2 847,-477.2"/>
<text text-anchor="start" x="849.9758" y="-484.9" font-family="Helvetica,sans-Serif" font-size="11.00" fill="#000000">uuid[2147483647]</text>
<polygon fill="#ffffff" stroke="transparent" points="531,-455.2 531,-477.2 847,-477.2 847,-455.2 531,-455.2"/>
<polygon fill="none" stroke="#000000" points="531,-455.2 531,-477.2 847,-477.2 847,-455.2 531,-455.2"/>
<image xlink:href="../../images/foreignKeys.png" width="11px" height="12px" preserveAspectRatio="xMinYMin meet" x="536" y="-472.2"/>
<text text-anchor="start" x="551" y="-462.3" font-family="Helvetica,sans-Serif" font-size="11.00" fill="#000000">cell_certificate_upload_id</text>
<polygon fill="none" stroke="#000000" points="847,-455.2 847,-477.2 941,-477.2 941,-455.2 847,-455.2"/>
<text text-anchor="start" x="849.9758" y="-462.9" font-family="Helvetica,sans-Serif" font-size="11.00" fill="#000000">uuid[2147483647]</text>
<polygon fill="none" stroke="#000000" points="531,-433.2 531,-455.2 847,-455.2 847,-433.2 531,-433.2"/>
<text text-anchor="start" x="551" y="-440.3" font-family="Helvetica,sans-Serif" font-size="11.00" fill="#000000">location_key</text>
<polygon fill="none" stroke="#000000" points="847,-433.2 847,-455.2 941,-455.2 941,-433.2 847,-433.2"/>
<text text-anchor="start" x="850" y="-440.9" font-family="Helvetica,sans-Serif" font-size="11.00" fill="#000000">varchar[255]</text>
<polygon fill="none" stroke="#000000" points="531,-411.2 531,-433.2 847,-433.2 847,-411.2 531,-411.2"/>
<text text-anchor="start" x="551" y="-418.3" font-family="Helvetica,sans-Serif" font-size="11.00" fill="#000000">max_capacity</text>
<polygon fill="none" stroke="#000000" points="847,-411.2 847,-433.2 941,-433.2 941,-411.2 847,-411.2"/>
<text text-anchor="start" x="850" y="-418.9" font-family="Helvetica,sans-Serif" font-size="11.00" fill="#000000">int4[10]</text>
<polygon fill="none" stroke="#000000" points="531,-389.2 531,-411.2 847,-411.2 847,-389.2 531,-389.2"/>
<text text-anchor="start" x="551" y="-396.3" font-family="Helvetica,sans-Serif" font-size="11.00" fill="#000000">working_capacity</text>
<polygon fill="none" stroke="#000000" points="847,-389.2 847,-411.2 941,-411.2 941,-389.2 847,-389.2"/>
<text text-anchor="start" x="850" y="-396.9" font-family="Helvetica,sans-Serif" font-size="11.00" fill="#000000">int4[10]</text>
<polygon fill="none" stroke="#000000" points="531,-367.2 531,-389.2 847,-389.2 847,-367.2 531,-367.2"/>
<text text-anchor="start" x="551" y="-374.3" font-family="Helvetica,sans-Serif" font-size="11.00" fill="#000000">certified_normal_accommodation</text>
<polygon fill="none" stroke="#000000" points="847,-367.2 847,-389.2 941,-389.2 941,-367.2 847,-367.2"/>
<text text-anchor="start" x="850" y="-374.9" font-family="Helvetica,sans-Serif" font-size="11.00" fill="#000000">int4[10]</text>
<polygon fill="none" stroke="#000000" points="531,-345.2 531,-367.2 847,-367.2 847,-345.2 531,-345.2"/>
<text text-anchor="start" x="551" y="-352.3" font-family="Helvetica,sans-Serif" font-size="11.00" fill="#000000">cell_mark</text>
<polygon fill="none" stroke="#000000" points="847,-345.2 847,-367.2 941,-367.2 941,-345.2 847,-345.2"/>
<text text-anchor="start" x="850" y="-352.9" font-family="Helvetica,sans-Serif" font-size="11.00" fill="#000000">varchar[12]</text>
<polygon fill="none" stroke="#000000" points="531,-323.2 531,-345.2 847,-345.2 847,-323.2 531,-323.2"/>
<text text-anchor="start" x="551" y="-330.3" font-family="Helvetica,sans-Serif" font-size="11.00" fill="#000000">in_cell_sanitation</text>
<polygon fill="none" stroke="#000000" points="847,-323.2 847,-345.2 941,-345.2 941,-323.2 847,-323.2"/>
<text text-anchor="start" x="850" y="-330.9" font-family="Helvetica,sans-Serif" font-size="11.00" fill="#000000">bool[1]</text>
<polygon fill="none" stroke="#000000" points="531,-301.2 531,-323.2 847,-323.2 847,-301.2 531,-301.2"/>
<text text-anchor="start" x="551" y="-308.3" font-family="Helvetica,sans-Serif" font-size="11.00" fill="#000000">status</text>
<polygon fill="none" stroke="#000000" points="847,-301.2 847,-323.2 941,-323.2 941,-301.2 847,-301.2"/>
<text text-anchor="start" x="850" y="-308.9" font-family="Helvetica,sans-Serif" font-size="11.00" fill="#000000">varchar[20]</text>
<polygon fill="none" stroke="#000000" points="531,-279.2 531,-301.2 847,-301.2 847,-279.2 531,-279.2"/>
<text text-anchor="start" x="551" y="-286.3" font-family="Helvetica,sans-Serif" font-size="11.00" fill="#000000">previous_max_capacity</text>
<polygon fill="none" stroke="#000000" points="847,-279.2 847,-301.2 941,-301.2 941,-279.2 847,-279.2"/>
<text text-anchor="start" x="850" y="-286.9" font-family="Helvetica,sans-Serif" font-size="11.00" fill="#000000">int4[10]</text>
<polygon fill="none" stroke="#000000" points="531,-257.2 531,-279.2 847,-279.2 847,-257.2 531,-257.2"/>
<text text-anchor="start" x="551" y="-264.3" font-family="Helvetica,sans-Serif" font-size="11.00" fill="#000000">previous_working_capacity</text>
<polygon fill="none" stroke="#000000" points="847,-257.2 847,-279.2 941,-279.2 941,-257.2 847,-257.2"/>
<text text-anchor="start" x="850" y="-264.9" font-family="Helvetica,sans-Serif" font-size="11.00" fill="#000000">int4[10]</text>
<polygon fill="none" stroke="#000000" points="531,-235.2 531,-257.2 847,-257.2 847,-235.2 531,-235.2"/>
<text text-anchor="start" x="551" y="-242.3" font-family="Helvetica,sans-Serif" font-size="11.00" fill="#000000">previous_certified_normal_accommodation</text>
<polygon fill="none" stroke="#000000" points="847,-235.2 847,-257.2 941,-257.2 941,-235.2 847,-235.2"/>
<text text-anchor="start" x="850" y="-242.9" font-family="Helvetica,sans-Serif" font-size="11.00" fill="#000000">int4[10]</text>
<polygon fill="none" stroke="#000000" points="531,-213.2 531,-235.2 847,-235.2 847,-213.2 531,-213.2"/>
<text text-anchor="start" x="551" y="-220.3" font-family="Helvetica,sans-Serif" font-size="11.00" fill="#000000">previous_cell_mark</text>
<polygon fill="none" stroke="#000000" points="847,-213.2 847,-235.2 941,-235.2 941,-213.2 847,-213.2"/>
<text text-anchor="start" x="850" y="-220.9" font-family="Helvetica,sans-Serif" font-size="11.00" fill="#000000">varchar[12]</text>
<polygon fill="none" stroke="#000000" points="531,-191.2 531,-213.2 847,-213.2 847,-191.2 531,-191.2"/>
<text text-anchor="start" x="551" y="-198.3" font-family="Helvetica,sans-Serif" font-size="11.00" fill="#000000">previous_in_cell_sanitation</text>
<polygon fill="none" stroke="#000000" points="847,-191.2 847,-213.2 941,-213.2 941,-191.2 847,-191.2"/>
<text text-anchor="start" x="850" y="-198.9" font-family="Helvetica,sans-Serif" font-size="11.00" fill="#000000">bool[1]</text>
<polygon fill="none" stroke="#000000" points="531,-169.2 531,-191.2 847,-191.2 847,-169.2 531,-169.2"/>
<text text-anchor="start" x="551" y="-176.3" font-family="Helvetica,sans-Serif" font-size="11.00" fill="#000000">message</text>
<polygon fill="none" stroke="#000000" points="847,-169.2 847,-191.2 941,-191.2 941,-169.2 847,-169.2"/>
<text text-anchor="start" x="850" y="-176.9" font-family="Helvetica,sans-Serif" font-size="11.00" fill="#000000">varchar[255]</text>
<polygon fill="none" stroke="#000000" points="531,-147.2 531,-169.2 847,-169.2 847,-147.2 531,-147.2"/>
<text text-anchor="start" x="551" y="-154.3" font-family="Helvetica,sans-Serif" font-size="11.00" fill="#000000">processed_date</text>
<polygon fill="none" stroke="#000000" points="847,-147.2 847,-169.2 941,-169.2 941,-147.2 847,-147.2"/>
<text text-anchor="start" x="850" y="-154.9" font-family="Helvetica,sans-Serif" font-size="11.00" fill="#000000">timestamp[29,6]</text>
<polygon fill="none" stroke="#000000" points="531,-125.2 531,-147.2 847,-147.2 847,-125.2 531,-125.2"/>
<text text-anchor="start" x="551" y="-132.3" font-family="Helvetica,sans-Serif" font-size="11.00" fill="#000000">working_capacity_mismatch</text>
<polygon fill="none" stroke="#000000" points="847,-125.2 847,-147.2 941,-147.2 941,-125.2 847,-125.2"/>
<text text-anchor="start" x="850" y="-132.9" font-family="Helvetica,sans-Serif" font-size="11.00" fill="#000000">bool[1]</text>
<polygon fill="none" stroke="#000000" points="531,-103.2 531,-125.2 847,-125.2 847,-103.2 531,-103.2"/>
<text text-anchor="start" x="551" y="-110.3" font-family="Helvetica,sans-Serif" font-size="11.00" fill="#000000">max_capacity_mismatch</text>
<polygon fill="none" stroke="#000000" points="847,-103.2 847,-125.2 941,-125.2 941,-103.2 847,-103.2"/>
<text text-anchor="start" x="850" y="-110.9" font-family="Helvetica,sans-Serif" font-size="11.00" fill="#000000">bool[1]</text>
<polygon fill="none" stroke="#000000" points="531,-81.2 531,-103.2 847,-103.2 847,-81.2 531,-81.2"/>
<text text-anchor="start" x="551" y="-88.3" font-family="Helvetica,sans-Serif" font-size="11.00" fill="#000000">certified_normal_accommodation_mismatch</text>
<polygon fill="none" stroke="#000000" points="847,-81.2 847,-103.2 941,-103.2 941,-81.2 847,-81.2"/>
<text text-anchor="start" x="850" y="-88.9" font-family="Helvetica,sans-Serif" font-size="11.00" fill="#000000">bool[1]</text>
<polygon fill="none" stroke="#000000" points="531,-59.2 531,-81.2 847,-81.2 847,-59.2 531,-59.2"/>
<text text-anchor="start" x="551" y="-66.3" font-family="Helvetica,sans-Serif" font-size="11.00" fill="#000000">applied_max_capacity</text>
<polygon fill="none" stroke="#000000" points="847,-59.2 847,-81.2 941,-81.2 941,-59.2 847,-59.2"/>
<text text-anchor="start" x="850" y="-66.9" font-family="Helvetica,sans-Serif" font-size="11.00" fill="#000000">int4[10]</text>
<polygon fill="#ffffff" stroke="transparent" points="531,-40.2 531,-59.2 693,-59.2 693,-40.2 531,-40.2"/>
<polygon fill="none" stroke="#000000" points="531,-40.2 531,-59.2 693,-59.2 693,-40.2 531,-40.2"/>
<text text-anchor="start" x="534" y="-46.3" font-family="Helvetica,sans-Serif" font-size="11.00" fill="#000000">&lt; 1</text>
<polygon fill="#ffffff" stroke="transparent" points="693,-40.2 693,-59.2 847,-59.2 847,-40.2 693,-40.2"/>
<polygon fill="none" stroke="#000000" points="693,-40.2 693,-59.2 847,-59.2 847,-40.2 693,-40.2"/>
<text text-anchor="start" x="837.8862" y="-46.3" font-family="Helvetica,sans-Serif" font-size="11.00" fill="#000000"> &#160;</text>
<polygon fill="#ffffff" stroke="transparent" points="847,-40.2 847,-59.2 941,-59.2 941,-40.2 847,-40.2"/>
<polygon fill="none" stroke="#000000" points="847,-40.2 847,-59.2 941,-59.2 941,-40.2 847,-40.2"/>
<text text-anchor="start" x="922.4053" y="-46.3" font-family="Helvetica,sans-Serif" font-size="11.00" fill="#000000">0 &gt;</text>
<polygon fill="none" stroke="#000000" stroke-width="2" points="530,-39.2 530,-523.2 942,-523.2 942,-39.2 530,-39.2"/>
</a>
</g>
</g>
<!-- cell_certificate_upload_location&#45;&gt;cell_certificate_upload -->
<g id="edge2" class="edge">
<title>cell_certificate_upload_location:w&#45;&gt;cell_certificate_upload:e</title>
<path fill="none" stroke="#000000" d="M516.4203,-466.2C504.5435,-466.2 497.158,-466.2 480.5,-466.2"/>
<polygon fill="#000000" stroke="#000000" points="523,-466.2001 531,-469.8 527,-466.2 531,-466.2 531,-466.2 531,-466.2 527,-466.2 531,-462.6 523,-466.2001 523,-466.2001"/>
<ellipse fill="none" stroke="#000000" cx="519.8" cy="-466.2001" rx="3.2" ry="3.2"/>
</g>
</g>
</svg>
