<?xml version="1.0" encoding="UTF-8" standalone="no"?>
<!DOCTYPE svg PUBLIC "-//W3C//DTD SVG 1.1//EN"
 "http://www.w3.org/Graphics/SVG/1.1/DTD/svg11.dtd">
<!-- Generated by graphviz version 2.40.1 (20161225.0304)
 -->
<!-- Title: twoDegreesRelationshipsDiagram Pages: 1 -->
<svg width="802pt" height="839pt"
 viewBox="0.00 0.00 802.00 838.70" xmlns="http://www.w3.org/2000/svg" xmlns:xlink="http://www.w3.org/1999/xlink">
<g id="graph0" class="graph" transform="scale(1 1) rotate(0) translate(4 834.7)">
<title>twoDegreesRelationshipsDiagram</title>
<polygon fill="#ffffff" stroke="transparent" points="-4,4 -4,-834.7 798,-834.7 798,4 -4,4"/>
<text text-anchor="middle" x="72.4936" y="-7.3" font-family="Helvetica,sans-Serif" font-size="11.00" fill="#000000">Generated by SchemaSpy</text>
<!-- cell_certificate_upload_location -->
<g id="node1" class="node">
<title>cell_certificate_upload_location</title>
<g id="a_node1"><a xlink:href="../../tables/cell_certificate_upload_location.html" xlink:title="cell_certificate_upload_location" target="_top">
<polygon fill="#ffffff" stroke="transparent" points="372,-120.7 372,-826.7 786,-826.7 786,-120.7 372,-120.7"/>
<polygon fill="#f5f5f5" stroke="transparent" points="374,-801.7 374,-824.7 784,-824.7 784,-801.7 374,-801.7"/>
<polygon fill="none" stroke="#000000" points="374,-801.7 374,-824.7 784,-824.7 784,-801.7 374,-801.7"/>
<text text-anchor="start" x="379" y="-810.3" font-family="Helvetica,sans-Serif" font-weight="bold" font-size="11.00" fill="#000000">cell_certificate_upload_location</text>
<text text-anchor="start" x="749.0437" y="-809.8" font-family="Helvetica,sans-Serif" font-size="11.00" fill="#000000">[table]</text>
<polygon fill="none" stroke="#000000" points="374,-779.7 374,-801.7 690,-801.7 690,-779.7 374,-779.7"/>
<image xlink:href="../../images/primaryKeys.png" width="11px" height="12px" preserveAspectRatio="xMinYMin meet" x="379" y="-796.7"/>
<text text-anchor="start" x="394" y="-786.8" font-family="Helvetica,sans-Serif" font-size="11.00" fill="#000000">id</text>
<polygon fill="none" stroke="#000000" points="690,-779.7 690,-801.7 784,-801.7 784,-779.7 690,-779.7"/>
<text text-anchor="start" x="692.9758" y="-787.4" font-family="Helvetica,sans-Serif" font-size="11.00" fill="#000000">uuid[2147483647]</text>
<polygon fill="#ffffff" stroke="transparent" points="374,-757.7 374,-779.7 690,-779.7 690,-757.7 374,-757.7"/>
<polygon fill="none" stroke="#000000" points="374,-757.7 374,-779.7 690,-779.7 690,-757.7 374,-757.7"/>
<image xlink:href="../../images/foreignKeys.png" width="11px" height="12px" preserveAspectRatio="xMinYMin meet" x="379" y="-774.7"/>
<text text-anchor="start" x="394" y="-764.8" font-family="Helvetica,sans-Serif" font-size="11.00" fill="#000000">cell_certificate_upload_id</text>
<polygon fill="none" stroke="#000000" points="690,-757.7 690,-779.7 784,-779.7 784,-757.7 690,-757.7"/>
<text text-anchor="start" x="692.9758" y="-765.4" font-family="Helvetica,sans-Serif" font-size="11.00" fill="#000000">uuid[2147483647]</text>
<polygon fill="none" stroke="#000000" points="374,-735.7 374,-757.7 690,-757.7 690,-735.7 374,-735.7"/>
<text text-anchor="start" x="394" y="-742.8" font-family="Helvetica,sans-Serif" font-size="11.00" fill="#000000">location_key</text>
<polygon fill="none" stroke="#000000" points="690,-735.7 690,-757.7 784,-757.7 784,-735.7 690,-735.7"/>
<text text-anchor="start" x="693" y="-743.4" font-family="Helvetica,sans-Serif" font-size="11.00" fill="#000000">varchar[255]</text>
<polygon fill="none" stroke="#000000" points="374,-713.7 374,-735.7 690,-735.7 690,-713.7 374,-713.7"/>
<text text-anchor="start" x="394" y="-720.8" font-family="Helvetica,sans-Serif" font-size="11.00" fill="#000000">max_capacity</text>
<polygon fill="none" stroke="#000000" points="690,-713.7 690,-735.7 784,-735.7 784,-713.7 690,-713.7"/>
<text text-anchor="start" x="693" y="-721.4" font-family="Helvetica,sans-Serif" font-size="11.00" fill="#000000">int4[10]</text>
<polygon fill="none" stroke="#000000" points="374,-691.7 374,-713.7 690,-713.7 690,-691.7 374,-691.7"/>
<text text-anchor="start" x="394" y="-698.8" font-family="Helvetica,sans-Serif" font-size="11.00" fill="#000000">working_capacity</text>
<polygon fill="none" stroke="#000000" points="690,-691.7 690,-713.7 784,-713.7 784,-691.7 690,-691.7"/>
<text text-anchor="start" x="693" y="-699.4" font-family="Helvetica,sans-Serif" font-size="11.00" fill="#000000">int4[10]</text>
<polygon fill="none" stroke="#000000" points="374,-669.7 374,-691.7 690,-691.7 690,-669.7 374,-669.7"/>
<text text-anchor="start" x="394" y="-676.8" font-family="Helvetica,sans-Serif" font-size="11.00" fill="#000000">certified_normal_accommodation</text>
<polygon fill="none" stroke="#000000" points="690,-669.7 690,-691.7 784,-691.7 784,-669.7 690,-669.7"/>
<text text-anchor="start" x="693" y="-677.4" font-family="Helvetica,sans-Serif" font-size="11.00" fill="#000000">int4[10]</text>
<polygon fill="none" stroke="#000000" points="374,-647.7 374,-669.7 690,-669.7 690,-647.7 374,-647.7"/>
<text text-anchor="start" x="394" y="-654.8" font-family="Helvetica,sans-Serif" font-size="11.00" fill="#000000">cell_mark</text>
<polygon fill="none" stroke="#000000" points="690,-647.7 690,-669.7 784,-669.7 784,-647.7 690,-647.7"/>
<text text-anchor="start" x="693" y="-655.4" font-family="Helvetica,sans-Serif" font-size="11.00" fill="#000000">varchar[12]</text>
<polygon fill="none" stroke="#000000" points="374,-625.7 374,-647.7 690,-647.7 690,-625.7 374,-625.7"/>
<text text-anchor="start" x="394" y="-632.8" font-family="Helvetica,sans-Serif" font-size="11.00" fill="#000000">in_cell_sanitation</text>
<polygon fill="none" stroke="#000000" points="690,-625.7 690,-647.7 784,-647.7 784,-625.7 690,-625.7"/>
<text text-anchor="start" x="693" y="-633.4" font-family="Helvetica,sans-Serif" font-size="11.00" fill="#000000">bool[1]</text>
<polygon fill="none" stroke="#000000" points="374,-603.7 374,-625.7 690,-625.7 690,-603.7 374,-603.7"/>
<text text-anchor="start" x="394" y="-610.8" font-family="Helvetica,sans-Serif" font-size="11.00" fill="#000000">status</text>
<polygon fill="none" stroke="#000000" points="690,-603.7 690,-625.7 784,-625.7 784,-603.7 690,-603.7"/>
<text text-anchor="start" x="693" y="-611.4" font-family="Helvetica,sans-Serif" font-size="11.00" fill="#000000">varchar[20]</text>
<polygon fill="none" stroke="#000000" points="374,-581.7 374,-603.7 690,-603.7 690,-581.7 374,-581.7"/>
<text text-anchor="start" x="394" y="-588.8" font-family="Helvetica,sans-Serif" font-size="11.00" fill="#000000">previous_max_capacity</text>
<polygon fill="none" stroke="#000000" points="690,-581.7 690,-603.7 784,-603.7 784,-581.7 690,-581.7"/>
<text text-anchor="start" x="693" y="-589.4" font-family="Helvetica,sans-Serif" font-size="11.00" fill="#000000">int4[10]</text>
<polygon fill="none" stroke="#000000" points="374,-559.7 374,-581.7 690,-581.7 690,-559.7 374,-559.7"/>
<text text-anchor="start" x="394" y="-566.8" font-family="Helvetica,sans-Serif" font-size="11.00" fill="#000000">previous_working_capacity</text>
<polygon fill="none" stroke="#000000" points="690,-559.7 690,-581.7 784,-581.7 784,-559.7 690,-559.7"/>
<text text-anchor="start" x="693" y="-567.4" font-family="Helvetica,sans-Serif" font-size="11.00" fill="#000000">int4[10]</text>
<polygon fill="none" stroke="#000000" points="374,-537.7 374,-559.7 690,-559.7 690,-537.7 374,-537.7"/>
<text text-anchor="start" x="394" y="-544.8" font-family="Helvetica,sans-Serif" font-size="11.00" fill="#000000">previous_certified_normal_accommodation</text>
<polygon fill="none" stroke="#000000" points="690,-537.7 690,-559.7 784,-559.7 784,-537.7 690,-537.7"/>
<text text-anchor="start" x="693" y="-545.4" font-family="Helvetica,sans-Serif" font-size="11.00" fill="#000000">int4[10]</text>
<polygon fill="none" stroke="#000000" points="374,-515.7 374,-537.7 690,-537.7 690,-515.7 374,-515.7"/>
<text text-anchor="start" x="394" y="-522.8" font-family="Helvetica,sans-Serif" font-size="11.00" fill="#000000">previous_cell_mark</text>
<polygon fill="none" stroke="#000000" points="690,-515.7 690,-537.7 784,-537.7 784,-515.7 690,-515.7"/>
<text text-anchor="start" x="693" y="-523.4" font-family="Helvetica,sans-Serif" font-size="11.00" fill="#000000">varchar[12]</text>
<polygon fill="none" stroke="#000000" points="374,-493.7 374,-515.7 690,-515.7 690,-493.7 374,-493.7"/>
<text text-anchor="start" x="394" y="-500.8" font-family="Helvetica,sans-Serif" font-size="11.00" fill="#000000">previous_in_cell_sanitation</text>
<polygon fill="none" stroke="#000000" points="690,-493.7 690,-515.7 784,-515.7 784,-493.7 690,-493.7"/>
<text text-anchor="start" x="693" y="-501.4" font-family="Helvetica,sans-Serif" font-size="11.00" fill="#000000">bool[1]</text>
<polygon fill="none" stroke="#000000" points="374,-471.7 374,-493.7 690,-493.7 690,-471.7 374,-471.7"/>
<text text-anchor="start" x="394" y="-478.8" font-family="Helvetica,sans-Serif" font-size="11.00" fill="#000000">message</text>
<polygon fill="none" stroke="#000000" points="690,-471.7 690,-493.7 784,-493.7 784,-471.7 690,-471.7"/>
<text text-anchor="start" x="693" y="-479.4" font-family="Helvetica,sans-Serif" font-size="11.00" fill="#000000">varchar[255]</text>
<polygon fill="none" stroke="#000000" points="374,-449.7 374,-471.7 690,-471.7 690,-449.7 374,-449.7"/>
<text text-anchor="start" x="394" y="-456.8" font-family="Helvetica,sans-Serif" font-size="11.00" fill="#000000">processed_date</text>
<polygon fill="none" stroke="#000000" points="690,-449.7 690,-471.7 784,-471.7 784,-449.7 690,-449.7"/>
<text text-anchor="start" x="693" y="-457.4" font-family="Helvetica,sans-Serif" font-size="11.00" fill="#000000">timestamp[29,6]</text>
<polygon fill="none" stroke="#000000" points="374,-427.7 374,-449.7 690,-449.7 690,-427.7 374,-427.7"/>
<text text-anchor="start" x="394" y="-434.8" font-family="Helvetica,sans-Serif" font-size="11.00" fill="#000000">working_capacity_mismatch</text>
<polygon fill="none" stroke="#000000" points="690,-427.7 690,-449.7 784,-449.7 784,-427.7 690,-427.7"/>
<text text-anchor="start" x="693" y="-435.4" font-family="Helvetica,sans-Serif" font-size="11.00" fill="#000000">bool[1]</text>
<polygon fill="none" stroke="#000000" points="374,-405.7 374,-427.7 690,-427.7 690,-405.7 374,-405.7"/>
<text text-anchor="start" x="394" y="-412.8" font-family="Helvetica,sans-Serif" font-size="11.00" fill="#000000">max_capacity_mismatch</text>
<polygon fill="none" stroke="#000000" points="690,-405.7 690,-427.7 784,-427.7 784,-405.7 690,-405.7"/>
<text text-anchor="start" x="693" y="-413.4" font-family="Helvetica,sans-Serif" font-size="11.00" fill="#000000">bool[1]</text>
<polygon fill="none" stroke="#000000" points="374,-383.7 374,-405.7 690,-405.7 690,-383.7 374,-383.7"/>
<text text-anchor="start" x="394" y="-390.8" font-family="Helvetica,sans-Serif" font-size="11.00" fill="#000000">certified_normal_accommodation_mismatch</text>
<polygon fill="none" stroke="#000000" points="690,-383.7 690,-405.7 784,-405.7 784,-383.7 690,-383.7"/>
<text text-anchor="start" x="693" y="-391.4" font-family="Helvetica,sans-Serif" font-size="11.00" fill="#000000">bool[1]</text>
<polygon fill="none" stroke="#000000" points="374,-361.7 374,-383.7 690,-383.7 690,-361.7 374,-361.7"/>
<text text-anchor="start" x="394" y="-368.8" font-family="Helvetica,sans-Serif" font-size="11.00" fill="#000000">applied_max_capacity</text>
<polygon fill="none" stroke="#000000" points="690,-361.7 690,-383.7 784,-383.7 784,-361.7 690,-361.7"/>
<text text-anchor="start" x="693" y="-369.4" font-family="Helvetica,sans-Serif" font-size="11.00" fill="#000000">int4[10]</text>
<polygon fill="none" stroke="#000000" points="374,-339.7 374,-361.7 690,-361.7 690,-339.7 374,-339.7"/>
<text text-anchor="start" x="394" y="-346.8" font-family="Helvetica,sans-Serif" font-size="11.00" fill="#000000">applied_working_capacity</text>
<polygon fill="none" stroke="#000000" points="690,-339.7 690,-361.7 784,-361.7 784,-339.7 690,-339.7"/>
<text text-anchor="start" x="693" y="-347.4" font-family="Helvetica,sans-Serif" font-size="11.00" fill="#000000">int4[10]</text>
<polygon fill="none" stroke="#000000" points="374,-317.7 374,-339.7 690,-339.7 690,-317.7 374,-317.7"/>
<text text-anchor="start" x="394" y="-324.8" font-family="Helvetica,sans-Serif" font-size="11.00" fill="#000000">current_certified_max_capacity</text>
<polygon fill="none" stroke="#000000" points="690,-317.7 690,-339.7 784,-339.7 784,-317.7 690,-317.7"/>
<text text-anchor="start" x="693" y="-325.4" font-family="Helvetica,sans-Serif" font-size="11.00" fill="#000000">int4[10]</text>
<polygon fill="none" stroke="#000000" points="374,-295.7 374,-317.7 690,-317.7 690,-295.7 374,-295.7"/>
<text text-anchor="start" x="394" y="-302.8" font-family="Helvetica,sans-Serif" font-size="11.00" fill="#000000">current_certified_working_capacity</text>
<polygon fill="none" stroke="#000000" points="690,-295.7 690,-317.7 784,-317.7 784,-295.7 690,-295.7"/>
<text text-anchor="start" x="693" y="-303.4" font-family="Helvetica,sans-Serif" font-size="11.00" fill="#000000">int4[10]</text>
<polygon fill="none" stroke="#000000" points="374,-273.7 374,-295.7 690,-295.7 690,-273.7 374,-273.7"/>
<text text-anchor="start" x="394" y="-280.8" font-family="Helvetica,sans-Serif" font-size="11.00" fill="#000000">current_certified_normal_accommodation</text>
<polygon fill="none" stroke="#000000" points="690,-273.7 690,-295.7 784,-295.7 784,-273.7 690,-273.7"/>
<text text-anchor="start" x="693" y="-281.4" font-family="Helvetica,sans-Serif" font-size="11.00" fill="#000000">int4[10]</text>
<polygon fill="none" stroke="#000000" points="374,-251.7 374,-273.7 690,-273.7 690,-251.7 374,-251.7"/>
<text text-anchor="start" x="394" y="-258.8" font-family="Helvetica,sans-Serif" font-size="11.00" fill="#000000">suggested_location_key</text>
<polygon fill="none" stroke="#000000" points="690,-251.7 690,-273.7 784,-273.7 784,-251.7 690,-251.7"/>
<text text-anchor="start" x="693" y="-259.4" font-family="Helvetica,sans-Serif" font-size="11.00" fill="#000000">varchar[255]</text>
<polygon fill="none" stroke="#000000" points="374,-229.7 374,-251.7 690,-251.7 690,-229.7 374,-229.7"/>
<text text-anchor="start" x="394" y="-236.8" font-family="Helvetica,sans-Serif" font-size="11.00" fill="#000000">converted_cell_type</text>
<polygon fill="none" stroke="#000000" points="690,-229.7 690,-251.7 784,-251.7 784,-229.7 690,-229.7"/>
<text text-anchor="start" x="693" y="-237.4" font-family="Helvetica,sans-Serif" font-size="11.00" fill="#000000">varchar[255]</text>
<polygon fill="none" stroke="#000000" points="374,-207.7 374,-229.7 690,-229.7 690,-207.7 374,-207.7"/>
<text text-anchor="start" x="394" y="-214.8" font-family="Helvetica,sans-Serif" font-size="11.00" fill="#000000">inactive</text>
<polygon fill="none" stroke="#000000" points="690,-207.7 690,-229.7 784,-229.7 784,-207.7 690,-207.7"/>
<text text-anchor="start" x="693" y="-215.4" font-family="Helvetica,sans-Serif" font-size="11.00" fill="#000000">bool[1]</text>
<polygon fill="none" stroke="#000000" points="374,-185.7 374,-207.7 690,-207.7 690,-185.7 374,-185.7"/>
<text text-anchor="start" x="394" y="-192.8" font-family="Helvetica,sans-Serif" font-size="11.00" fill="#000000">deactivated_reason</text>
<polygon fill="none" stroke="#000000" points="690,-185.7 690,-207.7 784,-207.7 784,-185.7 690,-185.7"/>
<text text-anchor="start" x="693" y="-193.4" font-family="Helvetica,sans-Serif" font-size="11.00" fill="#000000">varchar[30]</text>
<polygon fill="none" stroke="#000000" points="374,-163.7 374,-185.7 690,-185.7 690,-163.7 374,-163.7"/>
<text text-anchor="start" x="394" y="-170.8" font-family="Helvetica,sans-Serif" font-size="11.00" fill="#000000">deactivation_reason_description</text>
<polygon fill="none" stroke="#000000" points="690,-163.7 690,-185.7 784,-185.7 784,-163.7 690,-163.7"/>
<text text-anchor="start" x="693" y="-171.4" font-family="Helvetica,sans-Serif" font-size="11.00" fill="#000000">varchar[255]</text>
<polygon fill="none" stroke="#000000" points="374,-141.7 374,-163.7 690,-163.7 690,-141.7 374,-141.7"/>
<text text-anchor="start" x="394" y="-148.8" font-family="Helvetica,sans-Serif" font-size="11.00" fill="#000000">specialist_cell_types</text>
<polygon fill="none" stroke="#000000" points="690,-141.7 690,-163.7 784,-163.7 784,-141.7 690,-141.7"/>
<text text-anchor="start" x="693" y="-149.4" font-family="Helvetica,sans-Serif" font-size="11.00" fill="#000000">varchar[255]</text>
<polygon fill="#ffffff" stroke="transparent" points="374,-122.7 374,-141.7 536,-141.7 536,-122.7 374,-122.7"/>
<polygon fill="none" stroke="#000000" points="374,-122.7 374,-141.7 536,-141.7 536,-122.7 374,-122.7"/>
<text text-anchor="start" x="377" y="-128.8" font-family="Helvetica,sans-Serif" font-size="11.00" fill="#000000">&lt; 1</text>
<polygon fill="#ffffff" stroke="transparent" points="536,-122.7 536,-141.7 690,-141.7 690,-122.7 536,-122.7"/>
<polygon fill="none" stroke="#000000" points="536,-122.7 536,-141.7 690,-141.7 690,-122.7 536,-122.7"/>
<text text-anchor="start" x="680.8862" y="-128.8" font-family="Helvetica,sans-Serif" font-size="11.00" fill="#000000"> &#160;</text>
<polygon fill="#ffffff" stroke="transparent" points="690,-122.7 690,-141.7 784,-141.7 784,-122.7 690,-122.7"/>
<polygon fill="none" stroke="#000000" points="690,-122.7 690,-141.7 784,-141.7 784,-122.7 690,-122.7"/>
<text text-anchor="start" x="765.4053" y="-128.8" font-family="Helvetica,sans-Serif" font-size="11.00" fill="#000000">0 &gt;</text>
<polygon fill="none" stroke="#000000" stroke-width="2" points="373,-121.7 373,-825.7 785,-825.7 785,-121.7 373,-121.7"/>
</a>
</g>
</g>
<!-- cell_certificate_upload -->
<g id="node2" class="node">
<title>cell_certificate_upload</title>
<g id="a_node2"><a xlink:href="../../tables/cell_certificate_upload.html" xlink:title="cell_certificate_upload" target="_top">
<polygon fill="#ffffff" stroke="transparent" points="8,-302.2 8,-451.2 323,-451.2 323,-302.2 8,-302.2"/>
<polygon fill="#f5f5f5" stroke="transparent" points="8.5,-427.7 8.5,-450.7 323.5,-450.7 323.5,-427.7 8.5,-427.7"/>
<polygon fill="none" stroke="#000000" points="8.5,-427.7 8.5,-450.7 323.5,-450.7 323.5,-427.7 8.5,-427.7"/>
<text text-anchor="start" x="13.5" y="-436.3" font-family="Helvetica,sans-Serif" font-weight="bold" font-size="11.00" fill="#000000">cell_certificate_upload</text>
<text text-anchor="start" x="288.5437" y="-435.8" font-family="Helvetica,sans-Serif" font-size="11.00" fill="#000000">[table]</text>
<polygon fill="none" stroke="#000000" points="8.5,-405.7 8.5,-427.7 323.5,-427.7 323.5,-405.7 8.5,-405.7"/>
<image xlink:href="../../images/primaryKeys.png" width="11px" height="12px" preserveAspectRatio="xMinYMin meet" x="13.5" y="-422.7"/>
<text text-anchor="start" x="28.5" y="-412.8" font-family="Helvetica,sans-Serif" font-size="11.00" fill="#000000">id</text>
<polygon fill="#ffffff" stroke="transparent" points="8.5,-383.7 8.5,-405.7 323.5,-405.7 323.5,-383.7 8.5,-383.7"/>
<polygon fill="none" stroke="#000000" points="8.5,-383.7 8.5,-405.7 323.5,-405.7 323.5,-383.7 8.5,-383.7"/>
<image xlink:href="../../images/foreignKeys.png" width="11px" height="12px" preserveAspectRatio="xMinYMin meet" x="13.5" y="-400.7"/>
<text text-anchor="start" x="28.5" y="-390.8" font-family="Helvetica,sans-Serif" font-size="11.00" fill="#000000">prison_id</text>
<polygon fill="#ffffff" stroke="transparent" points="8.5,-361.7 8.5,-383.7 323.5,-383.7 323.5,-361.7 8.5,-361.7"/>
<polygon fill="none" stroke="#000000" points="8.5,-361.7 8.5,-383.7 323.5,-383.7 323.5,-361.7 8.5,-361.7"/>
<text text-anchor="start" x="28.5" y="-368.8" font-family="Helvetica,sans-Serif" font-size="11.00" fill="#000000">certification_approval_request_id</text>
<polygon fill="#ffffff" stroke="transparent" points="8.5,-339.7 8.5,-361.7 323.5,-361.7 323.5,-339.7 8.5,-339.7"/>
<polygon fill="none" stroke="#000000" points="8.5,-339.7 8.5,-361.7 323.5,-361.7 323.5,-339.7 8.5,-339.7"/>
<image xlink:href="../../images/foreignKeys.png" width="11px" height="12px" preserveAspectRatio="xMinYMin meet" x="13.5" y="-356.7"/>
<text text-anchor="start" x="28.5" y="-346.8" font-family="Helvetica,sans-Serif" font-size="11.00" fill="#000000">preview_upload_id</text>
<polygon fill="none" stroke="#000000" points="8.5,-320.7 8.5,-339.7 323.5,-339.7 323.5,-320.7 8.5,-320.7"/>
<text text-anchor="start" x="11.5" y="-326.8" font-family="Helvetica,sans-Serif" font-size="11.00" fill="#000000">...</text>
<polygon fill="#ffffff" stroke="transparent" points="8.5,-301.7 8.5,-320.7 159.5,-320.7 159.5,-301.7 8.5,-301.7"/>
<polygon fill="none" stroke="#000000" points="8.5,-301.7 8.5,-320.7 159.5,-320.7 159.5,-301.7 8.5,-301.7"/>
<text text-anchor="start" x="11.5" y="-307.8" font-family="Helvetica,sans-Serif" font-size="11.00" fill="#000000">&lt; 1</text>
<polygon fill="#ffffff" stroke="transparent" points="159.5,-301.7 159.5,-320.7 236.5,-320.7 236.5,-301.7 159.5,-301.7"/>
<polygon fill="none" stroke="#000000" points="159.5,-301.7 159.5,-320.7 236.5,-320.7 236.5,-301.7 159.5,-301.7"/>
<text text-anchor="start" x="227.3862" y="-307.8" font-family="Helvetica,sans-Serif" font-size="11.00" fill="#000000"> &#160;</text>
<polygon fill="#ffffff" stroke="transparent" points="236.5,-301.7 236.5,-320.7 323.5,-320.7 323.5,-301.7 236.5,-301.7"/>
<polygon fill="none" stroke="#000000" points="236.5,-301.7 236.5,-320.7 323.5,-320.7 323.5,-301.7 236.5,-301.7"/>
<text text-anchor="start" x="304.9053" y="-307.8" font-family="Helvetica,sans-Serif" font-size="11.00" fill="#000000">3 &gt;</text>
</a>
</g>
</g>
<!-- cell_certificate_upload_location&#45;&gt;cell_certificate_upload -->
<g id="edge1" class="edge">
<title>cell_certificate_upload_location:w&#45;&gt;cell_certificate_upload:e</title>
<path fill="none" stroke="#000000" d="M359.6272,-767.5616C233.1237,-745.7131 476.2986,-416.7 323.5,-416.7"/>
<polygon fill="#000000" stroke="#000000" points="366.025,-768.0683 373.7157,-772.2888 370.0125,-768.3841 374,-768.7 374,-768.7 374,-768.7 370.0125,-768.3841 374.2843,-765.1112 366.025,-768.0683 366.025,-768.0683"/>
<ellipse fill="none" stroke="#000000" cx="362.835" cy="-767.8156" rx="3.2" ry="3.2"/>
</g>
<!-- cell_certificate_upload_not_on_certificate -->
<g id="node3" class="node">
<title>cell_certificate_upload_not_on_certificate</title>
<g id="a_node3"><a xlink:href="../../tables/cell_certificate_upload_not_on__5a0cd35c.html" xlink:title="cell_certificate_upload_not_on_certificate" target="_top">
<polygon fill="#ffffff" stroke="transparent" points="421,-38.2 421,-99.2 737,-99.2 737,-38.2 421,-38.2"/>
<polygon fill="#f5f5f5" stroke="transparent" points="421,-75.7 421,-98.7 737,-98.7 737,-75.7 421,-75.7"/>
<polygon fill="none" stroke="#000000" points="421,-75.7 421,-98.7 737,-98.7 737,-75.7 421,-75.7"/>
<text text-anchor="start" x="426" y="-84.3" font-family="Helvetica,sans-Serif" font-weight="bold" font-size="11.00" fill="#000000">cell_certificate_upload_not_on_certificate</text>
<text text-anchor="start" x="702.5219" y="-83.8" font-family="Helvetica,sans-Serif" font-size="11.00" fill="#000000">[table]</text>
<polygon fill="none" stroke="#000000" points="421,-56.7 421,-75.7 737,-75.7 737,-56.7 421,-56.7"/>
<text text-anchor="start" x="424" y="-62.8" font-family="Helvetica,sans-Serif" font-size="11.00" fill="#000000">...</text>
<polygon fill="#ffffff" stroke="transparent" points="421,-37.7 421,-56.7 577,-56.7 577,-37.7 421,-37.7"/>
<polygon fill="none" stroke="#000000" points="421,-37.7 421,-56.7 577,-56.7 577,-37.7 421,-37.7"/>
<text text-anchor="start" x="424" y="-43.8" font-family="Helvetica,sans-Serif" font-size="11.00" fill="#000000">&lt; 1</text>
<polygon fill="#ffffff" stroke="transparent" points="577,-37.7 577,-56.7 657,-56.7 657,-37.7 577,-37.7"/>
<polygon fill="none" stroke="#000000" points="577,-37.7 577,-56.7 657,-56.7 657,-37.7 577,-37.7"/>
<text text-anchor="start" x="647.8862" y="-43.8" font-family="Helvetica,sans-Serif" font-size="11.00" fill="#000000"> &#160;</text>
<polygon fill="#ffffff" stroke="transparent" points="657,-37.7 657,-56.7 737,-56.7 737,-37.7 657,-37.7"/>
<polygon fill="none" stroke="#000000" points="657,-37.7 657,-56.7 737,-56.7 737,-37.7 657,-37.7"/>
<text text-anchor="start" x="727.8862" y="-43.8" font-family="Helvetica,sans-Serif" font-size="11.00" fill="#000000"> &#160;</text>
</a>
</g>
</g>
<!-- cell_certificate_upload_not_on_certificate&#45;&gt;cell_certificate_upload -->
<g id="edge2" class="edge">
<title>cell_certificate_upload_not_on_certificate:w&#45;&gt;cell_certificate_upload:e</title>
<path fill="none" stroke="#000000" d="M406.5799,-67.1064C385.575,-71.7052 377.2749,-87.3553 364,-110.7 330.0934,-170.3267 392.093,-416.7 323.5,-416.7"/>
<polygon fill="#000000" stroke="#000000" points="413.0378,-66.4766 421.3495,-69.283 417.0189,-66.0883 421,-65.7 421,-65.7 421,-65.7 417.0189,-66.0883 420.6505,-62.117 413.0378,-66.4766 413.0378,-66.4766"/>
<ellipse fill="none" stroke="#000000" cx="409.8529" cy="-66.7873" rx="3.2" ry="3.2"/>
</g>
</g>
</svg>
