<?xml version="1.0" encoding="UTF-8" standalone="no"?>
<!DOCTYPE svg PUBLIC "-//W3C//DTD SVG 1.1//EN"
 "http://www.w3.org/Graphics/SVG/1.1/DTD/svg11.dtd">
<!-- Generated by graphviz version 2.40.1 (20161225.0304)
 -->
<!-- Title: oneDegreeRelationshipsDiagramImplied Pages: 1 -->
<svg width="742pt" height="510pt"
 viewBox="0.00 0.00 741.53 510.20" xmlns="http://www.w3.org/2000/svg" xmlns:xlink="http://www.w3.org/1999/xlink">
<g id="graph0" class="graph" transform="scale(1 1) rotate(0) translate(4 506.2)">
<title>oneDegreeRelationshipsDiagramImplied</title>
<polygon fill="#ffffff" stroke="transparent" points="-4,4 -4,-506.2 737.5273,-506.2 737.5273,4 -4,4"/>
<text text-anchor="middle" x="72.4936" y="-7.3" font-family="Helvetica,sans-Serif" font-size="11.00" fill="#000000">Generated by SchemaSpy</text>
<!-- cell_certificate_location -->
<g id="node1" class="node">
<title>cell_certificate_location</title>
<g id="a_node1"><a xlink:href="../../tables/cell_certificate_location.html" xlink:title="cell_certificate_location" target="_top">
<polygon fill="#ffffff" stroke="transparent" points="339,-38.2 339,-480.2 681,-480.2 681,-38.2 339,-38.2"/>
<polygon fill="#f5f5f5" stroke="transparent" points="341,-455.2 341,-478.2 679,-478.2 679,-455.2 341,-455.2"/>
<polygon fill="none" stroke="#000000" points="341,-455.2 341,-478.2 679,-478.2 679,-455.2 341,-455.2"/>
<text text-anchor="start" x="346" y="-463.8" font-family="Helvetica,sans-Serif" font-weight="bold" font-size="11.00" fill="#000000">cell_certificate_location</text>
<text text-anchor="start" x="644.0437" y="-463.3" font-family="Helvetica,sans-Serif" font-size="11.00" fill="#000000">[table]</text>
<polygon fill="none" stroke="#000000" points="341,-433.2 341,-455.2 585,-455.2 585,-433.2 341,-433.2"/>
<image xlink:href="../../images/primaryKeys.png" width="11px" height="12px" preserveAspectRatio="xMinYMin meet" x="346" y="-450.2"/>
<text text-anchor="start" x="361" y="-440.3" font-family="Helvetica,sans-Serif" font-size="11.00" fill="#000000">id</text>
<polygon fill="none" stroke="#000000" points="585,-433.2 585,-455.2 679,-455.2 679,-433.2 585,-433.2"/>
<text text-anchor="start" x="587.9758" y="-440.9" font-family="Helvetica,sans-Serif" font-size="11.00" fill="#000000">uuid[2147483647]</text>
<polygon fill="#ffffff" stroke="transparent" points="341,-411.2 341,-433.2 585,-433.2 585,-411.2 341,-411.2"/>
<polygon fill="none" stroke="#000000" points="341,-411.2 341,-433.2 585,-433.2 585,-411.2 341,-411.2"/>
<image xlink:href="../../images/foreignKeys.png" width="11px" height="12px" preserveAspectRatio="xMinYMin meet" x="346" y="-428.2"/>
<text text-anchor="start" x="361" y="-418.3" font-family="Helvetica,sans-Serif" font-size="11.00" fill="#000000">cell_certificate_id</text>
<polygon fill="none" stroke="#000000" points="585,-411.2 585,-433.2 679,-433.2 679,-411.2 585,-411.2"/>
<text text-anchor="start" x="587.9758" y="-418.9" font-family="Helvetica,sans-Serif" font-size="11.00" fill="#000000">uuid[2147483647]</text>
<polygon fill="none" stroke="#000000" points="341,-389.2 341,-411.2 585,-411.2 585,-389.2 341,-389.2"/>
<text text-anchor="start" x="361" y="-396.3" font-family="Helvetica,sans-Serif" font-size="11.00" fill="#000000">location_code</text>
<polygon fill="none" stroke="#000000" points="585,-389.2 585,-411.2 679,-411.2 679,-389.2 585,-389.2"/>
<text text-anchor="start" x="588" y="-396.9" font-family="Helvetica,sans-Serif" font-size="11.00" fill="#000000">varchar[40]</text>
<polygon fill="#ffffff" stroke="transparent" points="341,-367.2 341,-389.2 585,-389.2 585,-367.2 341,-367.2"/>
<polygon fill="none" stroke="#000000" points="341,-367.2 341,-389.2 585,-389.2 585,-367.2 341,-367.2"/>
<text text-anchor="start" x="361" y="-374.3" font-family="Helvetica,sans-Serif" font-size="11.00" fill="#000000">path_hierarchy</text>
<polygon fill="none" stroke="#000000" points="585,-367.2 585,-389.2 679,-389.2 679,-367.2 585,-367.2"/>
<text text-anchor="start" x="588" y="-374.9" font-family="Helvetica,sans-Serif" font-size="11.00" fill="#000000">varchar[255]</text>
<polygon fill="none" stroke="#000000" points="341,-345.2 341,-367.2 585,-367.2 585,-345.2 341,-345.2"/>
<text text-anchor="start" x="361" y="-352.3" font-family="Helvetica,sans-Serif" font-size="11.00" fill="#000000">certified_normal_accommodation</text>
<polygon fill="none" stroke="#000000" points="585,-345.2 585,-367.2 679,-367.2 679,-345.2 585,-345.2"/>
<text text-anchor="start" x="588" y="-352.9" font-family="Helvetica,sans-Serif" font-size="11.00" fill="#000000">int4[10]</text>
<polygon fill="none" stroke="#000000" points="341,-323.2 341,-345.2 585,-345.2 585,-323.2 341,-323.2"/>
<text text-anchor="start" x="361" y="-330.3" font-family="Helvetica,sans-Serif" font-size="11.00" fill="#000000">working_capacity</text>
<polygon fill="none" stroke="#000000" points="585,-323.2 585,-345.2 679,-345.2 679,-323.2 585,-323.2"/>
<text text-anchor="start" x="588" y="-330.9" font-family="Helvetica,sans-Serif" font-size="11.00" fill="#000000">int4[10]</text>
<polygon fill="none" stroke="#000000" points="341,-301.2 341,-323.2 585,-323.2 585,-301.2 341,-301.2"/>
<text text-anchor="start" x="361" y="-308.3" font-family="Helvetica,sans-Serif" font-size="11.00" fill="#000000">max_capacity</text>
<polygon fill="none" stroke="#000000" points="585,-301.2 585,-323.2 679,-323.2 679,-301.2 585,-301.2"/>
<text text-anchor="start" x="588" y="-308.9" font-family="Helvetica,sans-Serif" font-size="11.00" fill="#000000">int4[10]</text>
<polygon fill="none" stroke="#000000" points="341,-279.2 341,-301.2 585,-301.2 585,-279.2 341,-279.2"/>
<text text-anchor="start" x="361" y="-286.3" font-family="Helvetica,sans-Serif" font-size="11.00" fill="#000000">in_cell_sanitation</text>
<polygon fill="none" stroke="#000000" points="585,-279.2 585,-301.2 679,-301.2 679,-279.2 585,-279.2"/>
<text text-anchor="start" x="588" y="-286.9" font-family="Helvetica,sans-Serif" font-size="11.00" fill="#000000">bool[1]</text>
<polygon fill="none" stroke="#000000" points="341,-257.2 341,-279.2 585,-279.2 585,-257.2 341,-257.2"/>
<text text-anchor="start" x="361" y="-264.3" font-family="Helvetica,sans-Serif" font-size="11.00" fill="#000000">location_type</text>
<polygon fill="none" stroke="#000000" points="585,-257.2 585,-279.2 679,-279.2 679,-257.2 585,-257.2"/>
<text text-anchor="start" x="588" y="-264.9" font-family="Helvetica,sans-Serif" font-size="11.00" fill="#000000">varchar[40]</text>
<polygon fill="none" stroke="#000000" points="341,-235.2 341,-257.2 585,-257.2 585,-235.2 341,-235.2"/>
<text text-anchor="start" x="361" y="-242.3" font-family="Helvetica,sans-Serif" font-size="11.00" fill="#000000">specialist_cell_types</text>
<polygon fill="none" stroke="#000000" points="585,-235.2 585,-257.2 679,-257.2 679,-235.2 585,-235.2"/>
<text text-anchor="start" x="588" y="-242.9" font-family="Helvetica,sans-Serif" font-size="11.00" fill="#000000">varchar[300]</text>
<polygon fill="none" stroke="#000000" points="341,-213.2 341,-235.2 585,-235.2 585,-213.2 341,-213.2"/>
<text text-anchor="start" x="361" y="-220.3" font-family="Helvetica,sans-Serif" font-size="11.00" fill="#000000">cell_mark</text>
<polygon fill="none" stroke="#000000" points="585,-213.2 585,-235.2 679,-235.2 679,-213.2 585,-213.2"/>
<text text-anchor="start" x="588" y="-220.9" font-family="Helvetica,sans-Serif" font-size="11.00" fill="#000000">varchar[12]</text>
<polygon fill="none" stroke="#000000" points="341,-191.2 341,-213.2 585,-213.2 585,-191.2 341,-191.2"/>
<text text-anchor="start" x="361" y="-198.3" font-family="Helvetica,sans-Serif" font-size="11.00" fill="#000000">level</text>
<polygon fill="none" stroke="#000000" points="585,-191.2 585,-213.2 679,-213.2 679,-191.2 585,-191.2"/>
<text text-anchor="start" x="588" y="-198.9" font-family="Helvetica,sans-Serif" font-size="11.00" fill="#000000">int4[10]</text>
<polygon fill="none" stroke="#000000" points="341,-169.2 341,-191.2 585,-191.2 585,-169.2 341,-169.2"/>
<text text-anchor="start" x="361" y="-176.3" font-family="Helvetica,sans-Serif" font-size="11.00" fill="#000000">local_name</text>
<polygon fill="none" stroke="#000000" points="585,-169.2 585,-191.2 679,-191.2 679,-169.2 585,-169.2"/>
<text text-anchor="start" x="588" y="-176.9" font-family="Helvetica,sans-Serif" font-size="11.00" fill="#000000">varchar[100]</text>
<polygon fill="#ffffff" stroke="transparent" points="341,-147.2 341,-169.2 585,-169.2 585,-147.2 341,-147.2"/>
<polygon fill="none" stroke="#000000" points="341,-147.2 341,-169.2 585,-169.2 585,-147.2 341,-147.2"/>
<image xlink:href="../../images/foreignKeys.png" width="11px" height="12px" preserveAspectRatio="xMinYMin meet" x="346" y="-164.2"/>
<text text-anchor="start" x="361" y="-154.3" font-family="Helvetica,sans-Serif" font-size="11.00" fill="#000000">parent_location_id</text>
<polygon fill="none" stroke="#000000" points="585,-147.2 585,-169.2 679,-169.2 679,-147.2 585,-147.2"/>
<text text-anchor="start" x="587.9758" y="-154.9" font-family="Helvetica,sans-Serif" font-size="11.00" fill="#000000">uuid[2147483647]</text>
<polygon fill="none" stroke="#000000" points="341,-125.2 341,-147.2 585,-147.2 585,-125.2 341,-125.2"/>
<text text-anchor="start" x="361" y="-132.3" font-family="Helvetica,sans-Serif" font-size="11.00" fill="#000000">converted_cell_type</text>
<polygon fill="none" stroke="#000000" points="585,-125.2 585,-147.2 679,-147.2 679,-125.2 585,-125.2"/>
<text text-anchor="start" x="588" y="-132.9" font-family="Helvetica,sans-Serif" font-size="11.00" fill="#000000">varchar[60]</text>
<polygon fill="none" stroke="#000000" points="341,-103.2 341,-125.2 585,-125.2 585,-103.2 341,-103.2"/>
<text text-anchor="start" x="361" y="-110.3" font-family="Helvetica,sans-Serif" font-size="11.00" fill="#000000">used_for_types</text>
<polygon fill="none" stroke="#000000" points="585,-103.2 585,-125.2 679,-125.2 679,-103.2 585,-103.2"/>
<text text-anchor="start" x="588" y="-110.9" font-family="Helvetica,sans-Serif" font-size="11.00" fill="#000000">varchar[300]</text>
<polygon fill="none" stroke="#000000" points="341,-81.2 341,-103.2 585,-103.2 585,-81.2 341,-81.2"/>
<text text-anchor="start" x="361" y="-88.3" font-family="Helvetica,sans-Serif" font-size="11.00" fill="#000000">accommodation_types</text>
<polygon fill="none" stroke="#000000" points="585,-81.2 585,-103.2 679,-103.2 679,-81.2 585,-81.2"/>
<text text-anchor="start" x="588" y="-88.9" font-family="Helvetica,sans-Serif" font-size="11.00" fill="#000000">varchar[120]</text>
<polygon fill="none" stroke="#000000" points="341,-59.2 341,-81.2 585,-81.2 585,-59.2 341,-59.2"/>
<text text-anchor="start" x="361" y="-66.3" font-family="Helvetica,sans-Serif" font-size="11.00" fill="#000000">other_converted_cell_type</text>
<polygon fill="none" stroke="#000000" points="585,-59.2 585,-81.2 679,-81.2 679,-59.2 585,-59.2"/>
<text text-anchor="start" x="588" y="-66.9" font-family="Helvetica,sans-Serif" font-size="11.00" fill="#000000">varchar[255]</text>
<polygon fill="#ffffff" stroke="transparent" points="341,-40.2 341,-59.2 467,-59.2 467,-40.2 341,-40.2"/>
<polygon fill="none" stroke="#000000" points="341,-40.2 341,-59.2 467,-59.2 467,-40.2 341,-40.2"/>
<text text-anchor="start" x="344" y="-46.3" font-family="Helvetica,sans-Serif" font-size="11.00" fill="#000000">&lt; 2</text>
<polygon fill="#ffffff" stroke="transparent" points="467,-40.2 467,-59.2 585,-59.2 585,-40.2 467,-40.2"/>
<polygon fill="none" stroke="#000000" points="467,-40.2 467,-59.2 585,-59.2 585,-40.2 467,-40.2"/>
<text text-anchor="start" x="575.8862" y="-46.3" font-family="Helvetica,sans-Serif" font-size="11.00" fill="#000000"> &#160;</text>
<polygon fill="#ffffff" stroke="transparent" points="585,-40.2 585,-59.2 679,-59.2 679,-40.2 585,-40.2"/>
<polygon fill="none" stroke="#000000" points="585,-40.2 585,-59.2 679,-59.2 679,-40.2 585,-40.2"/>
<text text-anchor="start" x="660.4053" y="-46.3" font-family="Helvetica,sans-Serif" font-size="11.00" fill="#000000">1 &gt;</text>
<polygon fill="none" stroke="#000000" stroke-width="2" points="340,-39.2 340,-479.2 680,-479.2 680,-39.2 340,-39.2"/>
</a>
</g>
</g>
<!-- cell_certificate_location&#45;&gt;cell_certificate_location -->
<g id="edge2" class="edge">
<title>cell_certificate_location:w&#45;&gt;cell_certificate_location:e</title>
<path fill="none" stroke="#000000" d="M330.6331,-168.5683C251.4152,-257.9107 261.3701,-497.2 510,-497.2 769,-497.2 769,-488.5333 679,-444.2"/>
<polygon fill="#000000" stroke="#000000" points="335.3435,-163.8573 343.5458,-160.7454 338.1718,-161.0286 341,-158.2 341,-158.2 341,-158.2 338.1718,-161.0286 338.4542,-155.6546 335.3435,-163.8573 335.3435,-163.8573"/>
<ellipse fill="none" stroke="#000000" cx="333.081" cy="-166.1202" rx="3.2" ry="3.2"/>
</g>
<!-- cell_certificate -->
<g id="node2" class="node">
<title>cell_certificate</title>
<g id="a_node2"><a xlink:href="../../tables/cell_certificate.html" xlink:title="cell_certificate" target="_top">
<polygon fill="#ffffff" stroke="transparent" points="8,-307.7 8,-456.7 290,-456.7 290,-307.7 8,-307.7"/>
<polygon fill="#f5f5f5" stroke="transparent" points="8,-433.2 8,-456.2 290,-456.2 290,-433.2 8,-433.2"/>
<polygon fill="none" stroke="#000000" points="8,-433.2 8,-456.2 290,-456.2 290,-433.2 8,-433.2"/>
<text text-anchor="start" x="13" y="-441.8" font-family="Helvetica,sans-Serif" font-weight="bold" font-size="11.00" fill="#000000">cell_certificate</text>
<text text-anchor="start" x="255.0437" y="-441.3" font-family="Helvetica,sans-Serif" font-size="11.00" fill="#000000">[table]</text>
<polygon fill="none" stroke="#000000" points="8,-411.2 8,-433.2 290,-433.2 290,-411.2 8,-411.2"/>
<image xlink:href="../../images/primaryKeys.png" width="11px" height="12px" preserveAspectRatio="xMinYMin meet" x="13" y="-428.2"/>
<text text-anchor="start" x="28" y="-418.3" font-family="Helvetica,sans-Serif" font-size="11.00" fill="#000000">id</text>
<polygon fill="#ffffff" stroke="transparent" points="8,-389.2 8,-411.2 290,-411.2 290,-389.2 8,-389.2"/>
<polygon fill="none" stroke="#000000" points="8,-389.2 8,-411.2 290,-411.2 290,-389.2 8,-389.2"/>
<image xlink:href="../../images/foreignKeys.png" width="11px" height="12px" preserveAspectRatio="xMinYMin meet" x="13" y="-406.2"/>
<text text-anchor="start" x="28" y="-396.3" font-family="Helvetica,sans-Serif" font-size="11.00" fill="#000000">prison_id</text>
<polygon fill="#ffffff" stroke="transparent" points="8,-367.2 8,-389.2 290,-389.2 290,-367.2 8,-367.2"/>
<polygon fill="none" stroke="#000000" points="8,-367.2 8,-389.2 290,-389.2 290,-367.2 8,-367.2"/>
<image xlink:href="../../images/foreignKeys.png" width="11px" height="12px" preserveAspectRatio="xMinYMin meet" x="13" y="-384.2"/>
<text text-anchor="start" x="28" y="-374.3" font-family="Helvetica,sans-Serif" font-size="11.00" fill="#000000">certification_approval_request_id</text>
<polygon fill="#ffffff" stroke="transparent" points="8,-345.2 8,-367.2 290,-367.2 290,-345.2 8,-345.2"/>
<polygon fill="none" stroke="#000000" points="8,-345.2 8,-367.2 290,-367.2 290,-345.2 8,-345.2"/>
<text text-anchor="start" x="28" y="-352.3" font-family="Helvetica,sans-Serif" font-size="11.00" fill="#000000">current</text>
<polygon fill="none" stroke="#000000" points="8,-326.2 8,-345.2 290,-345.2 290,-326.2 8,-326.2"/>
<text text-anchor="start" x="11" y="-332.3" font-family="Helvetica,sans-Serif" font-size="11.00" fill="#000000">...</text>
<polygon fill="#ffffff" stroke="transparent" points="8,-307.2 8,-326.2 143,-326.2 143,-307.2 8,-307.2"/>
<polygon fill="none" stroke="#000000" points="8,-307.2 8,-326.2 143,-326.2 143,-307.2 8,-307.2"/>
<text text-anchor="start" x="11" y="-313.3" font-family="Helvetica,sans-Serif" font-size="11.00" fill="#000000">&lt; 1</text>
<polygon fill="#ffffff" stroke="transparent" points="143,-307.2 143,-326.2 212,-326.2 212,-307.2 143,-307.2"/>
<polygon fill="none" stroke="#000000" points="143,-307.2 143,-326.2 212,-326.2 212,-307.2 143,-307.2"/>
<text text-anchor="start" x="202.8862" y="-313.3" font-family="Helvetica,sans-Serif" font-size="11.00" fill="#000000"> &#160;</text>
<polygon fill="#ffffff" stroke="transparent" points="212,-307.2 212,-326.2 290,-326.2 290,-307.2 212,-307.2"/>
<polygon fill="none" stroke="#000000" points="212,-307.2 212,-326.2 290,-326.2 290,-307.2 212,-307.2"/>
<text text-anchor="start" x="271.4053" y="-313.3" font-family="Helvetica,sans-Serif" font-size="11.00" fill="#000000">1 &gt;</text>
</a>
</g>
</g>
<!-- cell_certificate_location&#45;&gt;cell_certificate -->
<g id="edge1" class="edge">
<title>cell_certificate_location:w&#45;&gt;cell_certificate:e</title>
<path fill="none" stroke="#000000" d="M326.276,-422.2C314.2815,-422.2 306.8229,-422.2 290,-422.2"/>
<polygon fill="#000000" stroke="#000000" points="333,-422.2001 341,-425.8 337,-422.2 341,-422.2 341,-422.2 341,-422.2 337,-422.2 341,-418.6 333,-422.2001 333,-422.2001"/>
<ellipse fill="none" stroke="#000000" cx="329.8" cy="-422.2001" rx="3.2" ry="3.2"/>
</g>
</g>
</svg>
