<?xml version="1.0" encoding="UTF-8" standalone="no"?>
<!DOCTYPE svg PUBLIC "-//W3C//DTD SVG 1.1//EN"
 "http://www.w3.org/Graphics/SVG/1.1/DTD/svg11.dtd">
<!-- Generated by graphviz version 2.40.1 (20161225.0304)
 -->
<!-- Title: twoDegreesRelationshipsDiagramImplied Pages: 1 -->
<svg width="1029pt" height="839pt"
 viewBox="0.00 0.00 1029.00 838.70" xmlns="http://www.w3.org/2000/svg" xmlns:xlink="http://www.w3.org/1999/xlink">
<g id="graph0" class="graph" transform="scale(1 1) rotate(0) translate(4 834.7)">
<title>twoDegreesRelationshipsDiagramImplied</title>
<polygon fill="#ffffff" stroke="transparent" points="-4,4 -4,-834.7 1025,-834.7 1025,4 -4,4"/>
<text text-anchor="middle" x="72.4936" y="-7.3" font-family="Helvetica,sans-Serif" font-size="11.00" fill="#000000">Generated by SchemaSpy</text>
<!-- cell_certificate_upload -->
<g id="node1" class="node">
<title>cell_certificate_upload</title>
<g id="a_node1"><a xlink:href="../../tables/cell_certificate_upload.html" xlink:title="cell_certificate_upload" target="_top">
<polygon fill="#ffffff" stroke="transparent" points="235,-302.2 235,-451.2 550,-451.2 550,-302.2 235,-302.2"/>
<polygon fill="#f5f5f5" stroke="transparent" points="235.5,-427.7 235.5,-450.7 550.5,-450.7 550.5,-427.7 235.5,-427.7"/>
<polygon fill="none" stroke="#000000" points="235.5,-427.7 235.5,-450.7 550.5,-450.7 550.5,-427.7 235.5,-427.7"/>
<text text-anchor="start" x="240.5" y="-436.3" font-family="Helvetica,sans-Serif" font-weight="bold" font-size="11.00" fill="#000000">cell_certificate_upload</text>
<text text-anchor="start" x="515.5437" y="-435.8" font-family="Helvetica,sans-Serif" font-size="11.00" fill="#000000">[table]</text>
<polygon fill="none" stroke="#000000" points="235.5,-405.7 235.5,-427.7 550.5,-427.7 550.5,-405.7 235.5,-405.7"/>
<image xlink:href="../../images/primaryKeys.png" width="11px" height="12px" preserveAspectRatio="xMinYMin meet" x="240.5" y="-422.7"/>
<text text-anchor="start" x="255.5" y="-412.8" font-family="Helvetica,sans-Serif" font-size="11.00" fill="#000000">id</text>
<polygon fill="#ffffff" stroke="transparent" points="235.5,-383.7 235.5,-405.7 550.5,-405.7 550.5,-383.7 235.5,-383.7"/>
<polygon fill="none" stroke="#000000" points="235.5,-383.7 235.5,-405.7 550.5,-405.7 550.5,-383.7 235.5,-383.7"/>
<image xlink:href="../../images/foreignKeys.png" width="11px" height="12px" preserveAspectRatio="xMinYMin meet" x="240.5" y="-400.7"/>
<text text-anchor="start" x="255.5" y="-390.8" font-family="Helvetica,sans-Serif" font-size="11.00" fill="#000000">prison_id</text>
<polygon fill="#ffffff" stroke="transparent" points="235.5,-361.7 235.5,-383.7 550.5,-383.7 550.5,-361.7 235.5,-361.7"/>
<polygon fill="none" stroke="#000000" points="235.5,-361.7 235.5,-383.7 550.5,-383.7 550.5,-361.7 235.5,-361.7"/>
<text text-anchor="start" x="255.5" y="-368.8" font-family="Helvetica,sans-Serif" font-size="11.00" fill="#000000">certification_approval_request_id</text>
<polygon fill="#ffffff" stroke="transparent" points="235.5,-339.7 235.5,-361.7 550.5,-361.7 550.5,-339.7 235.5,-339.7"/>
<polygon fill="none" stroke="#000000" points="235.5,-339.7 235.5,-361.7 550.5,-361.7 550.5,-339.7 235.5,-339.7"/>
<image xlink:href="../../images/foreignKeys.png" width="11px" height="12px" preserveAspectRatio="xMinYMin meet" x="240.5" y="-356.7"/>
<text text-anchor="start" x="255.5" y="-346.8" font-family="Helvetica,sans-Serif" font-size="11.00" fill="#000000">preview_upload_id</text>
<polygon fill="none" stroke="#000000" points="235.5,-320.7 235.5,-339.7 550.5,-339.7 550.5,-320.7 235.5,-320.7"/>
<text text-anchor="start" x="238.5" y="-326.8" font-family="Helvetica,sans-Serif" font-size="11.00" fill="#000000">...</text>
<polygon fill="#ffffff" stroke="transparent" points="235.5,-301.7 235.5,-320.7 386.5,-320.7 386.5,-301.7 235.5,-301.7"/>
<polygon fill="none" stroke="#000000" points="235.5,-301.7 235.5,-320.7 386.5,-320.7 386.5,-301.7 235.5,-301.7"/>
<text text-anchor="start" x="238.5" y="-307.8" font-family="Helvetica,sans-Serif" font-size="11.00" fill="#000000">&lt; 2</text>
<polygon fill="#ffffff" stroke="transparent" points="386.5,-301.7 386.5,-320.7 463.5,-320.7 463.5,-301.7 386.5,-301.7"/>
<polygon fill="none" stroke="#000000" points="386.5,-301.7 386.5,-320.7 463.5,-320.7 463.5,-301.7 386.5,-301.7"/>
<text text-anchor="start" x="454.3862" y="-307.8" font-family="Helvetica,sans-Serif" font-size="11.00" fill="#000000"> &#160;</text>
<polygon fill="#ffffff" stroke="transparent" points="463.5,-301.7 463.5,-320.7 550.5,-320.7 550.5,-301.7 463.5,-301.7"/>
<polygon fill="none" stroke="#000000" points="463.5,-301.7 463.5,-320.7 550.5,-320.7 550.5,-301.7 463.5,-301.7"/>
<text text-anchor="start" x="531.9053" y="-307.8" font-family="Helvetica,sans-Serif" font-size="11.00" fill="#000000">3 &gt;</text>
</a>
</g>
</g>
<!-- prison_configuration -->
<g id="node2" class="node">
<title>prison_configuration</title>
<g id="a_node2"><a xlink:href="../../tables/prison_configuration.html" xlink:title="prison_configuration" target="_top">
<polygon fill="#ffffff" stroke="transparent" points="8,-367.2 8,-428.2 186,-428.2 186,-367.2 8,-367.2"/>
<polygon fill="#f5f5f5" stroke="transparent" points="8,-404.7 8,-427.7 186,-427.7 186,-404.7 8,-404.7"/>
<polygon fill="none" stroke="#000000" points="8,-404.7 8,-427.7 186,-427.7 186,-404.7 8,-404.7"/>
<text text-anchor="start" x="13" y="-413.3" font-family="Helvetica,sans-Serif" font-weight="bold" font-size="11.00" fill="#000000">prison_configuration</text>
<text text-anchor="start" x="151.5219" y="-412.8" font-family="Helvetica,sans-Serif" font-size="11.00" fill="#000000">[table]</text>
<polygon fill="none" stroke="#000000" points="8,-385.7 8,-404.7 186,-404.7 186,-385.7 8,-385.7"/>
<text text-anchor="start" x="11" y="-391.8" font-family="Helvetica,sans-Serif" font-size="11.00" fill="#000000">...</text>
<polygon fill="#ffffff" stroke="transparent" points="8,-366.7 8,-385.7 86,-385.7 86,-366.7 8,-366.7"/>
<polygon fill="none" stroke="#000000" points="8,-366.7 8,-385.7 86,-385.7 86,-366.7 8,-366.7"/>
<text text-anchor="start" x="11" y="-372.8" font-family="Helvetica,sans-Serif" font-size="11.00" fill="#000000"> &#160;</text>
<polygon fill="#ffffff" stroke="transparent" points="86,-366.7 86,-385.7 131,-385.7 131,-366.7 86,-366.7"/>
<polygon fill="none" stroke="#000000" points="86,-366.7 86,-385.7 131,-385.7 131,-366.7 86,-366.7"/>
<text text-anchor="start" x="121.8862" y="-372.8" font-family="Helvetica,sans-Serif" font-size="11.00" fill="#000000"> &#160;</text>
<polygon fill="#ffffff" stroke="transparent" points="131,-366.7 131,-385.7 186,-385.7 186,-366.7 131,-366.7"/>
<polygon fill="none" stroke="#000000" points="131,-366.7 131,-385.7 186,-385.7 186,-366.7 131,-366.7"/>
<text text-anchor="start" x="167.4053" y="-372.8" font-family="Helvetica,sans-Serif" font-size="11.00" fill="#000000">7 &gt;</text>
</a>
</g>
</g>
<!-- cell_certificate_upload&#45;&gt;prison_configuration -->
<g id="edge1" class="edge">
<title>cell_certificate_upload:w&#45;&gt;prison_configuration:e</title>
<path fill="none" stroke="#000000" stroke-dasharray="5,2" d="M225.0474,-394.7C210.9907,-394.7 204.0469,-394.7 186,-394.7"/>
<polygon fill="#000000" stroke="#000000" points="234.7,-390.7 234.7,-398.7 233.1,-398.7 233.1,-390.7 234.7,-390.7"/>
<polyline fill="none" stroke="#000000" points="235.5,-394.7 231.5,-394.7 "/>
<ellipse fill="none" stroke="#000000" cx="228.3" cy="-394.7001" rx="3.2" ry="3.2"/>
</g>
<!-- cell_certificate_upload_location -->
<g id="node3" class="node">
<title>cell_certificate_upload_location</title>
<g id="a_node3"><a xlink:href="../../tables/cell_certificate_upload_location.html" xlink:title="cell_certificate_upload_location" target="_top">
<polygon fill="#ffffff" stroke="transparent" points="599,-120.7 599,-826.7 1013,-826.7 1013,-120.7 599,-120.7"/>
<polygon fill="#f5f5f5" stroke="transparent" points="601,-801.7 601,-824.7 1011,-824.7 1011,-801.7 601,-801.7"/>
<polygon fill="none" stroke="#000000" points="601,-801.7 601,-824.7 1011,-824.7 1011,-801.7 601,-801.7"/>
<text text-anchor="start" x="606" y="-810.3" font-family="Helvetica,sans-Serif" font-weight="bold" font-size="11.00" fill="#000000">cell_certificate_upload_location</text>
<text text-anchor="start" x="976.0437" y="-809.8" font-family="Helvetica,sans-Serif" font-size="11.00" fill="#000000">[table]</text>
<polygon fill="none" stroke="#000000" points="601,-779.7 601,-801.7 917,-801.7 917,-779.7 601,-779.7"/>
<image xlink:href="../../images/primaryKeys.png" width="11px" height="12px" preserveAspectRatio="xMinYMin meet" x="606" y="-796.7"/>
<text text-anchor="start" x="621" y="-786.8" font-family="Helvetica,sans-Serif" font-size="11.00" fill="#000000">id</text>
<polygon fill="none" stroke="#000000" points="917,-779.7 917,-801.7 1011,-801.7 1011,-779.7 917,-779.7"/>
<text text-anchor="start" x="919.9758" y="-787.4" font-family="Helvetica,sans-Serif" font-size="11.00" fill="#000000">uuid[2147483647]</text>
<polygon fill="#ffffff" stroke="transparent" points="601,-757.7 601,-779.7 917,-779.7 917,-757.7 601,-757.7"/>
<polygon fill="none" stroke="#000000" points="601,-757.7 601,-779.7 917,-779.7 917,-757.7 601,-757.7"/>
<image xlink:href="../../images/foreignKeys.png" width="11px" height="12px" preserveAspectRatio="xMinYMin meet" x="606" y="-774.7"/>
<text text-anchor="start" x="621" y="-764.8" font-family="Helvetica,sans-Serif" font-size="11.00" fill="#000000">cell_certificate_upload_id</text>
<polygon fill="none" stroke="#000000" points="917,-757.7 917,-779.7 1011,-779.7 1011,-757.7 917,-757.7"/>
<text text-anchor="start" x="919.9758" y="-765.4" font-family="Helvetica,sans-Serif" font-size="11.00" fill="#000000">uuid[2147483647]</text>
<polygon fill="none" stroke="#000000" points="601,-735.7 601,-757.7 917,-757.7 917,-735.7 601,-735.7"/>
<text text-anchor="start" x="621" y="-742.8" font-family="Helvetica,sans-Serif" font-size="11.00" fill="#000000">location_key</text>
<polygon fill="none" stroke="#000000" points="917,-735.7 917,-757.7 1011,-757.7 1011,-735.7 917,-735.7"/>
<text text-anchor="start" x="920" y="-743.4" font-family="Helvetica,sans-Serif" font-size="11.00" fill="#000000">varchar[255]</text>
<polygon fill="none" stroke="#000000" points="601,-713.7 601,-735.7 917,-735.7 917,-713.7 601,-713.7"/>
<text text-anchor="start" x="621" y="-720.8" font-family="Helvetica,sans-Serif" font-size="11.00" fill="#000000">max_capacity</text>
<polygon fill="none" stroke="#000000" points="917,-713.7 917,-735.7 1011,-735.7 1011,-713.7 917,-713.7"/>
<text text-anchor="start" x="920" y="-721.4" font-family="Helvetica,sans-Serif" font-size="11.00" fill="#000000">int4[10]</text>
<polygon fill="none" stroke="#000000" points="601,-691.7 601,-713.7 917,-713.7 917,-691.7 601,-691.7"/>
<text text-anchor="start" x="621" y="-698.8" font-family="Helvetica,sans-Serif" font-size="11.00" fill="#000000">working_capacity</text>
<polygon fill="none" stroke="#000000" points="917,-691.7 917,-713.7 1011,-713.7 1011,-691.7 917,-691.7"/>
<text text-anchor="start" x="920" y="-699.4" font-family="Helvetica,sans-Serif" font-size="11.00" fill="#000000">int4[10]</text>
<polygon fill="none" stroke="#000000" points="601,-669.7 601,-691.7 917,-691.7 917,-669.7 601,-669.7"/>
<text text-anchor="start" x="621" y="-676.8" font-family="Helvetica,sans-Serif" font-size="11.00" fill="#000000">certified_normal_accommodation</text>
<polygon fill="none" stroke="#000000" points="917,-669.7 917,-691.7 1011,-691.7 1011,-669.7 917,-669.7"/>
<text text-anchor="start" x="920" y="-677.4" font-family="Helvetica,sans-Serif" font-size="11.00" fill="#000000">int4[10]</text>
<polygon fill="none" stroke="#000000" points="601,-647.7 601,-669.7 917,-669.7 917,-647.7 601,-647.7"/>
<text text-anchor="start" x="621" y="-654.8" font-family="Helvetica,sans-Serif" font-size="11.00" fill="#000000">cell_mark</text>
<polygon fill="none" stroke="#000000" points="917,-647.7 917,-669.7 1011,-669.7 1011,-647.7 917,-647.7"/>
<text text-anchor="start" x="920" y="-655.4" font-family="Helvetica,sans-Serif" font-size="11.00" fill="#000000">varchar[12]</text>
<polygon fill="none" stroke="#000000" points="601,-625.7 601,-647.7 917,-647.7 917,-625.7 601,-625.7"/>
<text text-anchor="start" x="621" y="-632.8" font-family="Helvetica,sans-Serif" font-size="11.00" fill="#000000">in_cell_sanitation</text>
<polygon fill="none" stroke="#000000" points="917,-625.7 917,-647.7 1011,-647.7 1011,-625.7 917,-625.7"/>
<text text-anchor="start" x="920" y="-633.4" font-family="Helvetica,sans-Serif" font-size="11.00" fill="#000000">bool[1]</text>
<polygon fill="none" stroke="#000000" points="601,-603.7 601,-625.7 917,-625.7 917,-603.7 601,-603.7"/>
<text text-anchor="start" x="621" y="-610.8" font-family="Helvetica,sans-Serif" font-size="11.00" fill="#000000">status</text>
<polygon fill="none" stroke="#000000" points="917,-603.7 917,-625.7 1011,-625.7 1011,-603.7 917,-603.7"/>
<text text-anchor="start" x="920" y="-611.4" font-family="Helvetica,sans-Serif" font-size="11.00" fill="#000000">varchar[20]</text>
<polygon fill="none" stroke="#000000" points="601,-581.7 601,-603.7 917,-603.7 917,-581.7 601,-581.7"/>
<text text-anchor="start" x="621" y="-588.8" font-family="Helvetica,sans-Serif" font-size="11.00" fill="#000000">previous_max_capacity</text>
<polygon fill="none" stroke="#000000" points="917,-581.7 917,-603.7 1011,-603.7 1011,-581.7 917,-581.7"/>
<text text-anchor="start" x="920" y="-589.4" font-family="Helvetica,sans-Serif" font-size="11.00" fill="#000000">int4[10]</text>
<polygon fill="none" stroke="#000000" points="601,-559.7 601,-581.7 917,-581.7 917,-559.7 601,-559.7"/>
<text text-anchor="start" x="621" y="-566.8" font-family="Helvetica,sans-Serif" font-size="11.00" fill="#000000">previous_working_capacity</text>
<polygon fill="none" stroke="#000000" points="917,-559.7 917,-581.7 1011,-581.7 1011,-559.7 917,-559.7"/>
<text text-anchor="start" x="920" y="-567.4" font-family="Helvetica,sans-Serif" font-size="11.00" fill="#000000">int4[10]</text>
<polygon fill="none" stroke="#000000" points="601,-537.7 601,-559.7 917,-559.7 917,-537.7 601,-537.7"/>
<text text-anchor="start" x="621" y="-544.8" font-family="Helvetica,sans-Serif" font-size="11.00" fill="#000000">previous_certified_normal_accommodation</text>
<polygon fill="none" stroke="#000000" points="917,-537.7 917,-559.7 1011,-559.7 1011,-537.7 917,-537.7"/>
<text text-anchor="start" x="920" y="-545.4" font-family="Helvetica,sans-Serif" font-size="11.00" fill="#000000">int4[10]</text>
<polygon fill="none" stroke="#000000" points="601,-515.7 601,-537.7 917,-537.7 917,-515.7 601,-515.7"/>
<text text-anchor="start" x="621" y="-522.8" font-family="Helvetica,sans-Serif" font-size="11.00" fill="#000000">previous_cell_mark</text>
<polygon fill="none" stroke="#000000" points="917,-515.7 917,-537.7 1011,-537.7 1011,-515.7 917,-515.7"/>
<text text-anchor="start" x="920" y="-523.4" font-family="Helvetica,sans-Serif" font-size="11.00" fill="#000000">varchar[12]</text>
<polygon fill="none" stroke="#000000" points="601,-493.7 601,-515.7 917,-515.7 917,-493.7 601,-493.7"/>
<text text-anchor="start" x="621" y="-500.8" font-family="Helvetica,sans-Serif" font-size="11.00" fill="#000000">previous_in_cell_sanitation</text>
<polygon fill="none" stroke="#000000" points="917,-493.7 917,-515.7 1011,-515.7 1011,-493.7 917,-493.7"/>
<text text-anchor="start" x="920" y="-501.4" font-family="Helvetica,sans-Serif" font-size="11.00" fill="#000000">bool[1]</text>
<polygon fill="none" stroke="#000000" points="601,-471.7 601,-493.7 917,-493.7 917,-471.7 601,-471.7"/>
<text text-anchor="start" x="621" y="-478.8" font-family="Helvetica,sans-Serif" font-size="11.00" fill="#000000">message</text>
<polygon fill="none" stroke="#000000" points="917,-471.7 917,-493.7 1011,-493.7 1011,-471.7 917,-471.7"/>
<text text-anchor="start" x="920" y="-479.4" font-family="Helvetica,sans-Serif" font-size="11.00" fill="#000000">varchar[255]</text>
<polygon fill="none" stroke="#000000" points="601,-449.7 601,-471.7 917,-471.7 917,-449.7 601,-449.7"/>
<text text-anchor="start" x="621" y="-456.8" font-family="Helvetica,sans-Serif" font-size="11.00" fill="#000000">processed_date</text>
<polygon fill="none" stroke="#000000" points="917,-449.7 917,-471.7 1011,-471.7 1011,-449.7 917,-449.7"/>
<text text-anchor="start" x="920" y="-457.4" font-family="Helvetica,sans-Serif" font-size="11.00" fill="#000000">timestamp[29,6]</text>
<polygon fill="none" stroke="#000000" points="601,-427.7 601,-449.7 917,-449.7 917,-427.7 601,-427.7"/>
<text text-anchor="start" x="621" y="-434.8" font-family="Helvetica,sans-Serif" font-size="11.00" fill="#000000">working_capacity_mismatch</text>
<polygon fill="none" stroke="#000000" points="917,-427.7 917,-449.7 1011,-449.7 1011,-427.7 917,-427.7"/>
<text text-anchor="start" x="920" y="-435.4" font-family="Helvetica,sans-Serif" font-size="11.00" fill="#000000">bool[1]</text>
<polygon fill="none" stroke="#000000" points="601,-405.7 601,-427.7 917,-427.7 917,-405.7 601,-405.7"/>
<text text-anchor="start" x="621" y="-412.8" font-family="Helvetica,sans-Serif" font-size="11.00" fill="#000000">max_capacity_mismatch</text>
<polygon fill="none" stroke="#000000" points="917,-405.7 917,-427.7 1011,-427.7 1011,-405.7 917,-405.7"/>
<text text-anchor="start" x="920" y="-413.4" font-family="Helvetica,sans-Serif" font-size="11.00" fill="#000000">bool[1]</text>
<polygon fill="none" stroke="#000000" points="601,-383.7 601,-405.7 917,-405.7 917,-383.7 601,-383.7"/>
<text text-anchor="start" x="621" y="-390.8" font-family="Helvetica,sans-Serif" font-size="11.00" fill="#000000">certified_normal_accommodation_mismatch</text>
<polygon fill="none" stroke="#000000" points="917,-383.7 917,-405.7 1011,-405.7 1011,-383.7 917,-383.7"/>
<text text-anchor="start" x="920" y="-391.4" font-family="Helvetica,sans-Serif" font-size="11.00" fill="#000000">bool[1]</text>
<polygon fill="none" stroke="#000000" points="601,-361.7 601,-383.7 917,-383.7 917,-361.7 601,-361.7"/>
<text text-anchor="start" x="621" y="-368.8" font-family="Helvetica,sans-Serif" font-size="11.00" fill="#000000">applied_max_capacity</text>
<polygon fill="none" stroke="#000000" points="917,-361.7 917,-383.7 1011,-383.7 1011,-361.7 917,-361.7"/>
<text text-anchor="start" x="920" y="-369.4" font-family="Helvetica,sans-Serif" font-size="11.00" fill="#000000">int4[10]</text>
<polygon fill="none" stroke="#000000" points="601,-339.7 601,-361.7 917,-361.7 917,-339.7 601,-339.7"/>
<text text-anchor="start" x="621" y="-346.8" font-family="Helvetica,sans-Serif" font-size="11.00" fill="#000000">applied_working_capacity</text>
<polygon fill="none" stroke="#000000" points="917,-339.7 917,-361.7 1011,-361.7 1011,-339.7 917,-339.7"/>
<text text-anchor="start" x="920" y="-347.4" font-family="Helvetica,sans-Serif" font-size="11.00" fill="#000000">int4[10]</text>
<polygon fill="none" stroke="#000000" points="601,-317.7 601,-339.7 917,-339.7 917,-317.7 601,-317.7"/>
<text text-anchor="start" x="621" y="-324.8" font-family="Helvetica,sans-Serif" font-size="11.00" fill="#000000">current_certified_max_capacity</text>
<polygon fill="none" stroke="#000000" points="917,-317.7 917,-339.7 1011,-339.7 1011,-317.7 917,-317.7"/>
<text text-anchor="start" x="920" y="-325.4" font-family="Helvetica,sans-Serif" font-size="11.00" fill="#000000">int4[10]</text>
<polygon fill="none" stroke="#000000" points="601,-295.7 601,-317.7 917,-317.7 917,-295.7 601,-295.7"/>
<text text-anchor="start" x="621" y="-302.8" font-family="Helvetica,sans-Serif" font-size="11.00" fill="#000000">current_certified_working_capacity</text>
<polygon fill="none" stroke="#000000" points="917,-295.7 917,-317.7 1011,-317.7 1011,-295.7 917,-295.7"/>
<text text-anchor="start" x="920" y="-303.4" font-family="Helvetica,sans-Serif" font-size="11.00" fill="#000000">int4[10]</text>
<polygon fill="none" stroke="#000000" points="601,-273.7 601,-295.7 917,-295.7 917,-273.7 601,-273.7"/>
<text text-anchor="start" x="621" y="-280.8" font-family="Helvetica,sans-Serif" font-size="11.00" fill="#000000">current_certified_normal_accommodation</text>
<polygon fill="none" stroke="#000000" points="917,-273.7 917,-295.7 1011,-295.7 1011,-273.7 917,-273.7"/>
<text text-anchor="start" x="920" y="-281.4" font-family="Helvetica,sans-Serif" font-size="11.00" fill="#000000">int4[10]</text>
<polygon fill="none" stroke="#000000" points="601,-251.7 601,-273.7 917,-273.7 917,-251.7 601,-251.7"/>
<text text-anchor="start" x="621" y="-258.8" font-family="Helvetica,sans-Serif" font-size="11.00" fill="#000000">suggested_location_key</text>
<polygon fill="none" stroke="#000000" points="917,-251.7 917,-273.7 1011,-273.7 1011,-251.7 917,-251.7"/>
<text text-anchor="start" x="920" y="-259.4" font-family="Helvetica,sans-Serif" font-size="11.00" fill="#000000">varchar[255]</text>
<polygon fill="none" stroke="#000000" points="601,-229.7 601,-251.7 917,-251.7 917,-229.7 601,-229.7"/>
<text text-anchor="start" x="621" y="-236.8" font-family="Helvetica,sans-Serif" font-size="11.00" fill="#000000">converted_cell_type</text>
<polygon fill="none" stroke="#000000" points="917,-229.7 917,-251.7 1011,-251.7 1011,-229.7 917,-229.7"/>
<text text-anchor="start" x="920" y="-237.4" font-family="Helvetica,sans-Serif" font-size="11.00" fill="#000000">varchar[255]</text>
<polygon fill="none" stroke="#000000" points="601,-207.7 601,-229.7 917,-229.7 917,-207.7 601,-207.7"/>
<text text-anchor="start" x="621" y="-214.8" font-family="Helvetica,sans-Serif" font-size="11.00" fill="#000000">inactive</text>
<polygon fill="none" stroke="#000000" points="917,-207.7 917,-229.7 1011,-229.7 1011,-207.7 917,-207.7"/>
<text text-anchor="start" x="920" y="-215.4" font-family="Helvetica,sans-Serif" font-size="11.00" fill="#000000">bool[1]</text>
<polygon fill="none" stroke="#000000" points="601,-185.7 601,-207.7 917,-207.7 917,-185.7 601,-185.7"/>
<text text-anchor="start" x="621" y="-192.8" font-family="Helvetica,sans-Serif" font-size="11.00" fill="#000000">deactivated_reason</text>
<polygon fill="none" stroke="#000000" points="917,-185.7 917,-207.7 1011,-207.7 1011,-185.7 917,-185.7"/>
<text text-anchor="start" x="920" y="-193.4" font-family="Helvetica,sans-Serif" font-size="11.00" fill="#000000">varchar[30]</text>
<polygon fill="none" stroke="#000000" points="601,-163.7 601,-185.7 917,-185.7 917,-163.7 601,-163.7"/>
<text text-anchor="start" x="621" y="-170.8" font-family="Helvetica,sans-Serif" font-size="11.00" fill="#000000">deactivation_reason_description</text>
<polygon fill="none" stroke="#000000" points="917,-163.7 917,-185.7 1011,-185.7 1011,-163.7 917,-163.7"/>
<text text-anchor="start" x="920" y="-171.4" font-family="Helvetica,sans-Serif" font-size="11.00" fill="#000000">varchar[255]</text>
<polygon fill="none" stroke="#000000" points="601,-141.7 601,-163.7 917,-163.7 917,-141.7 601,-141.7"/>
<text text-anchor="start" x="621" y="-148.8" font-family="Helvetica,sans-Serif" font-size="11.00" fill="#000000">specialist_cell_types</text>
<polygon fill="none" stroke="#000000" points="917,-141.7 917,-163.7 1011,-163.7 1011,-141.7 917,-141.7"/>
<text text-anchor="start" x="920" y="-149.4" font-family="Helvetica,sans-Serif" font-size="11.00" fill="#000000">varchar[255]</text>
<polygon fill="#ffffff" stroke="transparent" points="601,-122.7 601,-141.7 763,-141.7 763,-122.7 601,-122.7"/>
<polygon fill="none" stroke="#000000" points="601,-122.7 601,-141.7 763,-141.7 763,-122.7 601,-122.7"/>
<text text-anchor="start" x="604" y="-128.8" font-family="Helvetica,sans-Serif" font-size="11.00" fill="#000000">&lt; 1</text>
<polygon fill="#ffffff" stroke="transparent" points="763,-122.7 763,-141.7 917,-141.7 917,-122.7 763,-122.7"/>
<polygon fill="none" stroke="#000000" points="763,-122.7 763,-141.7 917,-141.7 917,-122.7 763,-122.7"/>
<text text-anchor="start" x="907.8862" y="-128.8" font-family="Helvetica,sans-Serif" font-size="11.00" fill="#000000"> &#160;</text>
<polygon fill="#ffffff" stroke="transparent" points="917,-122.7 917,-141.7 1011,-141.7 1011,-122.7 917,-122.7"/>
<polygon fill="none" stroke="#000000" points="917,-122.7 917,-141.7 1011,-141.7 1011,-122.7 917,-122.7"/>
<text text-anchor="start" x="992.4053" y="-128.8" font-family="Helvetica,sans-Serif" font-size="11.00" fill="#000000">0 &gt;</text>
<polygon fill="none" stroke="#000000" stroke-width="2" points="600,-121.7 600,-825.7 1012,-825.7 1012,-121.7 600,-121.7"/>
</a>
</g>
</g>
<!-- cell_certificate_upload_location&#45;&gt;cell_certificate_upload -->
<g id="edge2" class="edge">
<title>cell_certificate_upload_location:w&#45;&gt;cell_certificate_upload:e</title>
<path fill="none" stroke="#000000" d="M586.6272,-767.5616C460.1237,-745.7131 703.2986,-416.7 550.5,-416.7"/>
<polygon fill="#000000" stroke="#000000" points="593.025,-768.0683 600.7157,-772.2888 597.0125,-768.3841 601,-768.7 601,-768.7 601,-768.7 597.0125,-768.3841 601.2843,-765.1112 593.025,-768.0683 593.025,-768.0683"/>
<ellipse fill="none" stroke="#000000" cx="589.835" cy="-767.8156" rx="3.2" ry="3.2"/>
</g>
<!-- cell_certificate_upload_not_on_certificate -->
<g id="node4" class="node">
<title>cell_certificate_upload_not_on_certificate</title>
<g id="a_node4"><a xlink:href="../../tables/cell_certificate_upload_not_on__5a0cd35c.html" xlink:title="cell_certificate_upload_not_on_certificate" target="_top">
<polygon fill="#ffffff" stroke="transparent" points="648,-38.2 648,-99.2 964,-99.2 964,-38.2 648,-38.2"/>
<polygon fill="#f5f5f5" stroke="transparent" points="648,-75.7 648,-98.7 964,-98.7 964,-75.7 648,-75.7"/>
<polygon fill="none" stroke="#000000" points="648,-75.7 648,-98.7 964,-98.7 964,-75.7 648,-75.7"/>
<text text-anchor="start" x="653" y="-84.3" font-family="Helvetica,sans-Serif" font-weight="bold" font-size="11.00" fill="#000000">cell_certificate_upload_not_on_certificate</text>
<text text-anchor="start" x="929.5219" y="-83.8" font-family="Helvetica,sans-Serif" font-size="11.00" fill="#000000">[table]</text>
<polygon fill="none" stroke="#000000" points="648,-56.7 648,-75.7 964,-75.7 964,-56.7 648,-56.7"/>
<text text-anchor="start" x="651" y="-62.8" font-family="Helvetica,sans-Serif" font-size="11.00" fill="#000000">...</text>
<polygon fill="#ffffff" stroke="transparent" points="648,-37.7 648,-56.7 804,-56.7 804,-37.7 648,-37.7"/>
<polygon fill="none" stroke="#000000" points="648,-37.7 648,-56.7 804,-56.7 804,-37.7 648,-37.7"/>
<text text-anchor="start" x="651" y="-43.8" font-family="Helvetica,sans-Serif" font-size="11.00" fill="#000000">&lt; 1</text>
<polygon fill="#ffffff" stroke="transparent" points="804,-37.7 804,-56.7 884,-56.7 884,-37.7 804,-37.7"/>
<polygon fill="none" stroke="#000000" points="804,-37.7 804,-56.7 884,-56.7 884,-37.7 804,-37.7"/>
<text text-anchor="start" x="874.8862" y="-43.8" font-family="Helvetica,sans-Serif" font-size="11.00" fill="#000000"> &#160;</text>
<polygon fill="#ffffff" stroke="transparent" points="884,-37.7 884,-56.7 964,-56.7 964,-37.7 884,-37.7"/>
<polygon fill="none" stroke="#000000" points="884,-37.7 884,-56.7 964,-56.7 964,-37.7 884,-37.7"/>
<text text-anchor="start" x="954.8862" y="-43.8" font-family="Helvetica,sans-Serif" font-size="11.00" fill="#000000"> &#160;</text>
</a>
</g>
</g>
<!-- cell_certificate_upload_not_on_certificate&#45;&gt;cell_certificate_upload -->
<g id="edge3" class="edge">
<title>cell_certificate_upload_not_on_certificate:w&#45;&gt;cell_certificate_upload:e</title>
<path fill="none" stroke="#000000" d="M633.5799,-67.1064C612.575,-71.7052 604.2749,-87.3553 591,-110.7 557.0934,-170.3267 619.093,-416.7 550.5,-416.7"/>
<polygon fill="#000000" stroke="#000000" points="640.0378,-66.4766 648.3495,-69.283 644.0189,-66.0883 648,-65.7 648,-65.7 648,-65.7 644.0189,-66.0883 647.6505,-62.117 640.0378,-66.4766 640.0378,-66.4766"/>
<ellipse fill="none" stroke="#000000" cx="636.8529" cy="-66.7873" rx="3.2" ry="3.2"/>
</g>
</g>
</svg>
