<?xml version="1.0" encoding="UTF-8" standalone="no"?>
<!DOCTYPE svg PUBLIC "-//W3C//DTD SVG 1.1//EN"
 "http://www.w3.org/Graphics/SVG/1.1/DTD/svg11.dtd">
<!-- Generated by graphviz version 2.40.1 (20161225.0304)
 -->
<!-- Title: oneDegreeRelationshipsDiagramImplied Pages: 1 -->
<svg width="1029pt" height="447pt"
 viewBox="0.00 0.00 1029.00 446.70" xmlns="http://www.w3.org/2000/svg" xmlns:xlink="http://www.w3.org/1999/xlink">
<g id="graph0" class="graph" transform="scale(1 1) rotate(0) translate(4 442.7)">
<title>oneDegreeRelationshipsDiagramImplied</title>
<polygon fill="#ffffff" stroke="transparent" points="-4,4 -4,-442.7 1025,-442.7 1025,4 -4,4"/>
<text text-anchor="middle" x="72.4936" y="-7.3" font-family="Helvetica,sans-Serif" font-size="11.00" fill="#000000">Generated by SchemaSpy</text>
<!-- cell_certificate_upload -->
<g id="node1" class="node">
<title>cell_certificate_upload</title>
<g id="a_node1"><a xlink:href="../../tables/cell_certificate_upload.html" xlink:title="cell_certificate_upload" target="_top">
<polygon fill="#ffffff" stroke="transparent" points="305,-38.2 305,-414.2 648,-414.2 648,-38.2 305,-38.2"/>
<polygon fill="#f5f5f5" stroke="transparent" points="307.5,-389.2 307.5,-412.2 646.5,-412.2 646.5,-389.2 307.5,-389.2"/>
<polygon fill="none" stroke="#000000" points="307.5,-389.2 307.5,-412.2 646.5,-412.2 646.5,-389.2 307.5,-389.2"/>
<text text-anchor="start" x="312.5" y="-397.8" font-family="Helvetica,sans-Serif" font-weight="bold" font-size="11.00" fill="#000000">cell_certificate_upload</text>
<text text-anchor="start" x="611.5437" y="-397.3" font-family="Helvetica,sans-Serif" font-size="11.00" fill="#000000">[table]</text>
<polygon fill="none" stroke="#000000" points="307.5,-367.2 307.5,-389.2 552.5,-389.2 552.5,-367.2 307.5,-367.2"/>
<image xlink:href="../../images/primaryKeys.png" width="11px" height="12px" preserveAspectRatio="xMinYMin meet" x="312.5" y="-384.2"/>
<text text-anchor="start" x="327.5" y="-374.3" font-family="Helvetica,sans-Serif" font-size="11.00" fill="#000000">id</text>
<polygon fill="none" stroke="#000000" points="552.5,-367.2 552.5,-389.2 646.5,-389.2 646.5,-367.2 552.5,-367.2"/>
<text text-anchor="start" x="555.4758" y="-374.9" font-family="Helvetica,sans-Serif" font-size="11.00" fill="#000000">uuid[2147483647]</text>
<polygon fill="#ffffff" stroke="transparent" points="307.5,-345.2 307.5,-367.2 552.5,-367.2 552.5,-345.2 307.5,-345.2"/>
<polygon fill="none" stroke="#000000" points="307.5,-345.2 307.5,-367.2 552.5,-367.2 552.5,-345.2 307.5,-345.2"/>
<image xlink:href="../../images/foreignKeys.png" width="11px" height="12px" preserveAspectRatio="xMinYMin meet" x="312.5" y="-362.2"/>
<text text-anchor="start" x="327.5" y="-352.3" font-family="Helvetica,sans-Serif" font-size="11.00" fill="#000000">prison_id</text>
<polygon fill="none" stroke="#000000" points="552.5,-345.2 552.5,-367.2 646.5,-367.2 646.5,-345.2 552.5,-345.2"/>
<text text-anchor="start" x="555.5" y="-352.9" font-family="Helvetica,sans-Serif" font-size="11.00" fill="#000000">varchar[5]</text>
<polygon fill="none" stroke="#000000" points="307.5,-323.2 307.5,-345.2 552.5,-345.2 552.5,-323.2 307.5,-323.2"/>
<text text-anchor="start" x="327.5" y="-330.3" font-family="Helvetica,sans-Serif" font-size="11.00" fill="#000000">status</text>
<polygon fill="none" stroke="#000000" points="552.5,-323.2 552.5,-345.2 646.5,-345.2 646.5,-323.2 552.5,-323.2"/>
<text text-anchor="start" x="555.5" y="-330.9" font-family="Helvetica,sans-Serif" font-size="11.00" fill="#000000">varchar[20]</text>
<polygon fill="none" stroke="#000000" points="307.5,-301.2 307.5,-323.2 552.5,-323.2 552.5,-301.2 307.5,-301.2"/>
<text text-anchor="start" x="327.5" y="-308.3" font-family="Helvetica,sans-Serif" font-size="11.00" fill="#000000">requested_by</text>
<polygon fill="none" stroke="#000000" points="552.5,-301.2 552.5,-323.2 646.5,-323.2 646.5,-301.2 552.5,-301.2"/>
<text text-anchor="start" x="555.5" y="-308.9" font-family="Helvetica,sans-Serif" font-size="11.00" fill="#000000">varchar[255]</text>
<polygon fill="none" stroke="#000000" points="307.5,-279.2 307.5,-301.2 552.5,-301.2 552.5,-279.2 307.5,-279.2"/>
<text text-anchor="start" x="327.5" y="-286.3" font-family="Helvetica,sans-Serif" font-size="11.00" fill="#000000">requested_date</text>
<polygon fill="none" stroke="#000000" points="552.5,-279.2 552.5,-301.2 646.5,-301.2 646.5,-279.2 552.5,-279.2"/>
<text text-anchor="start" x="555.5" y="-286.9" font-family="Helvetica,sans-Serif" font-size="11.00" fill="#000000">timestamp[29,6]</text>
<polygon fill="none" stroke="#000000" points="307.5,-257.2 307.5,-279.2 552.5,-279.2 552.5,-257.2 307.5,-257.2"/>
<text text-anchor="start" x="327.5" y="-264.3" font-family="Helvetica,sans-Serif" font-size="11.00" fill="#000000">start_time</text>
<polygon fill="none" stroke="#000000" points="552.5,-257.2 552.5,-279.2 646.5,-279.2 646.5,-257.2 552.5,-257.2"/>
<text text-anchor="start" x="555.5" y="-264.9" font-family="Helvetica,sans-Serif" font-size="11.00" fill="#000000">timestamp[29,6]</text>
<polygon fill="none" stroke="#000000" points="307.5,-235.2 307.5,-257.2 552.5,-257.2 552.5,-235.2 307.5,-235.2"/>
<text text-anchor="start" x="327.5" y="-242.3" font-family="Helvetica,sans-Serif" font-size="11.00" fill="#000000">end_time</text>
<polygon fill="none" stroke="#000000" points="552.5,-235.2 552.5,-257.2 646.5,-257.2 646.5,-235.2 552.5,-235.2"/>
<text text-anchor="start" x="555.5" y="-242.9" font-family="Helvetica,sans-Serif" font-size="11.00" fill="#000000">timestamp[29,6]</text>
<polygon fill="none" stroke="#000000" points="307.5,-213.2 307.5,-235.2 552.5,-235.2 552.5,-213.2 307.5,-213.2"/>
<text text-anchor="start" x="327.5" y="-220.3" font-family="Helvetica,sans-Serif" font-size="11.00" fill="#000000">total_records</text>
<polygon fill="none" stroke="#000000" points="552.5,-213.2 552.5,-235.2 646.5,-235.2 646.5,-213.2 552.5,-213.2"/>
<text text-anchor="start" x="555.5" y="-220.9" font-family="Helvetica,sans-Serif" font-size="11.00" fill="#000000">int4[10]</text>
<polygon fill="none" stroke="#000000" points="307.5,-191.2 307.5,-213.2 552.5,-213.2 552.5,-191.2 307.5,-191.2"/>
<text text-anchor="start" x="327.5" y="-198.3" font-family="Helvetica,sans-Serif" font-size="11.00" fill="#000000">processed_records</text>
<polygon fill="none" stroke="#000000" points="552.5,-191.2 552.5,-213.2 646.5,-213.2 646.5,-191.2 552.5,-191.2"/>
<text text-anchor="start" x="555.5" y="-198.9" font-family="Helvetica,sans-Serif" font-size="11.00" fill="#000000">int4[10]</text>
<polygon fill="none" stroke="#000000" points="307.5,-169.2 307.5,-191.2 552.5,-191.2 552.5,-169.2 307.5,-169.2"/>
<text text-anchor="start" x="327.5" y="-176.3" font-family="Helvetica,sans-Serif" font-size="11.00" fill="#000000">skipped_records</text>
<polygon fill="none" stroke="#000000" points="552.5,-169.2 552.5,-191.2 646.5,-191.2 646.5,-169.2 552.5,-169.2"/>
<text text-anchor="start" x="555.5" y="-176.9" font-family="Helvetica,sans-Serif" font-size="11.00" fill="#000000">int4[10]</text>
<polygon fill="none" stroke="#000000" points="307.5,-147.2 307.5,-169.2 552.5,-169.2 552.5,-147.2 307.5,-147.2"/>
<text text-anchor="start" x="327.5" y="-154.3" font-family="Helvetica,sans-Serif" font-size="11.00" fill="#000000">failed_records</text>
<polygon fill="none" stroke="#000000" points="552.5,-147.2 552.5,-169.2 646.5,-169.2 646.5,-147.2 552.5,-147.2"/>
<text text-anchor="start" x="555.5" y="-154.9" font-family="Helvetica,sans-Serif" font-size="11.00" fill="#000000">int4[10]</text>
<polygon fill="none" stroke="#000000" points="307.5,-125.2 307.5,-147.2 552.5,-147.2 552.5,-125.2 307.5,-125.2"/>
<text text-anchor="start" x="327.5" y="-132.3" font-family="Helvetica,sans-Serif" font-size="11.00" fill="#000000">reason_for_change</text>
<polygon fill="none" stroke="#000000" points="552.5,-125.2 552.5,-147.2 646.5,-147.2 646.5,-125.2 552.5,-125.2"/>
<text text-anchor="start" x="555.5" y="-132.9" font-family="Helvetica,sans-Serif" font-size="11.00" fill="#000000">varchar[255]</text>
<polygon fill="none" stroke="#000000" points="307.5,-103.2 307.5,-125.2 552.5,-125.2 552.5,-103.2 307.5,-103.2"/>
<text text-anchor="start" x="327.5" y="-110.3" font-family="Helvetica,sans-Serif" font-size="11.00" fill="#000000">cell_certificate_id</text>
<polygon fill="none" stroke="#000000" points="552.5,-103.2 552.5,-125.2 646.5,-125.2 646.5,-103.2 552.5,-103.2"/>
<text text-anchor="start" x="555.4758" y="-110.9" font-family="Helvetica,sans-Serif" font-size="11.00" fill="#000000">uuid[2147483647]</text>
<polygon fill="none" stroke="#000000" points="307.5,-81.2 307.5,-103.2 552.5,-103.2 552.5,-81.2 307.5,-81.2"/>
<text text-anchor="start" x="327.5" y="-88.3" font-family="Helvetica,sans-Serif" font-size="11.00" fill="#000000">discrepancy_records</text>
<polygon fill="none" stroke="#000000" points="552.5,-81.2 552.5,-103.2 646.5,-103.2 646.5,-81.2 552.5,-81.2"/>
<text text-anchor="start" x="555.5" y="-88.9" font-family="Helvetica,sans-Serif" font-size="11.00" fill="#000000">int4[10]</text>
<polygon fill="#ffffff" stroke="transparent" points="307.5,-59.2 307.5,-81.2 552.5,-81.2 552.5,-59.2 307.5,-59.2"/>
<polygon fill="none" stroke="#000000" points="307.5,-59.2 307.5,-81.2 552.5,-81.2 552.5,-59.2 307.5,-59.2"/>
<text text-anchor="start" x="327.5" y="-66.3" font-family="Helvetica,sans-Serif" font-size="11.00" fill="#000000">certification_approval_request_id</text>
<polygon fill="none" stroke="#000000" points="552.5,-59.2 552.5,-81.2 646.5,-81.2 646.5,-59.2 552.5,-59.2"/>
<text text-anchor="start" x="555.4758" y="-66.9" font-family="Helvetica,sans-Serif" font-size="11.00" fill="#000000">uuid[2147483647]</text>
<polygon fill="#ffffff" stroke="transparent" points="307.5,-40.2 307.5,-59.2 434.5,-59.2 434.5,-40.2 307.5,-40.2"/>
<polygon fill="none" stroke="#000000" points="307.5,-40.2 307.5,-59.2 434.5,-59.2 434.5,-40.2 307.5,-40.2"/>
<text text-anchor="start" x="310.5" y="-46.3" font-family="Helvetica,sans-Serif" font-size="11.00" fill="#000000">&lt; 1</text>
<polygon fill="#ffffff" stroke="transparent" points="434.5,-40.2 434.5,-59.2 552.5,-59.2 552.5,-40.2 434.5,-40.2"/>
<polygon fill="none" stroke="#000000" points="434.5,-40.2 434.5,-59.2 552.5,-59.2 552.5,-40.2 434.5,-40.2"/>
<text text-anchor="start" x="543.3862" y="-46.3" font-family="Helvetica,sans-Serif" font-size="11.00" fill="#000000"> &#160;</text>
<polygon fill="#ffffff" stroke="transparent" points="552.5,-40.2 552.5,-59.2 646.5,-59.2 646.5,-40.2 552.5,-40.2"/>
<polygon fill="none" stroke="#000000" points="552.5,-40.2 552.5,-59.2 646.5,-59.2 646.5,-40.2 552.5,-40.2"/>
<text text-anchor="start" x="627.9053" y="-46.3" font-family="Helvetica,sans-Serif" font-size="11.00" fill="#000000">1 &gt;</text>
<polygon fill="none" stroke="#000000" stroke-width="2" points="306,-39.2 306,-413.2 647,-413.2 647,-39.2 306,-39.2"/>
</a>
</g>
</g>
<!-- prison_configuration -->
<g id="node2" class="node">
<title>prison_configuration</title>
<g id="a_node2"><a xlink:href="../../tables/prison_configuration.html" xlink:title="prison_configuration" target="_top">
<polygon fill="#ffffff" stroke="transparent" points="8,-307.7 8,-390.7 256,-390.7 256,-307.7 8,-307.7"/>
<polygon fill="#f5f5f5" stroke="transparent" points="8,-367.2 8,-390.2 256,-390.2 256,-367.2 8,-367.2"/>
<polygon fill="none" stroke="#000000" points="8,-367.2 8,-390.2 256,-390.2 256,-367.2 8,-367.2"/>
<text text-anchor="start" x="13" y="-375.8" font-family="Helvetica,sans-Serif" font-weight="bold" font-size="11.00" fill="#000000">prison_configuration</text>
<text text-anchor="start" x="221.0437" y="-375.3" font-family="Helvetica,sans-Serif" font-size="11.00" fill="#000000">[table]</text>
<polygon fill="none" stroke="#000000" points="8,-345.2 8,-367.2 256,-367.2 256,-345.2 8,-345.2"/>
<image xlink:href="../../images/primaryKeys.png" width="11px" height="12px" preserveAspectRatio="xMinYMin meet" x="13" y="-362.2"/>
<text text-anchor="start" x="28" y="-352.3" font-family="Helvetica,sans-Serif" font-size="11.00" fill="#000000">prison_id</text>
<polygon fill="none" stroke="#000000" points="8,-326.2 8,-345.2 256,-345.2 256,-326.2 8,-326.2"/>
<text text-anchor="start" x="11" y="-332.3" font-family="Helvetica,sans-Serif" font-size="11.00" fill="#000000">...</text>
<polygon fill="#ffffff" stroke="transparent" points="8,-307.2 8,-326.2 121,-326.2 121,-307.2 8,-307.2"/>
<polygon fill="none" stroke="#000000" points="8,-307.2 8,-326.2 121,-326.2 121,-307.2 8,-307.2"/>
<text text-anchor="start" x="11" y="-313.3" font-family="Helvetica,sans-Serif" font-size="11.00" fill="#000000"> &#160;</text>
<polygon fill="#ffffff" stroke="transparent" points="121,-307.2 121,-326.2 184,-326.2 184,-307.2 121,-307.2"/>
<polygon fill="none" stroke="#000000" points="121,-307.2 121,-326.2 184,-326.2 184,-307.2 121,-307.2"/>
<text text-anchor="start" x="174.8862" y="-313.3" font-family="Helvetica,sans-Serif" font-size="11.00" fill="#000000"> &#160;</text>
<polygon fill="#ffffff" stroke="transparent" points="184,-307.2 184,-326.2 256,-326.2 256,-307.2 184,-307.2"/>
<polygon fill="none" stroke="#000000" points="184,-307.2 184,-326.2 256,-326.2 256,-307.2 184,-307.2"/>
<text text-anchor="start" x="237.4053" y="-313.3" font-family="Helvetica,sans-Serif" font-size="11.00" fill="#000000">7 &gt;</text>
</a>
</g>
</g>
<!-- cell_certificate_upload&#45;&gt;prison_configuration -->
<g id="edge1" class="edge">
<title>cell_certificate_upload:w&#45;&gt;prison_configuration:e</title>
<path fill="none" stroke="#000000" stroke-dasharray="5,2" d="M297.045,-356.2C282.137,-356.2 274.9549,-356.2 256,-356.2"/>
<polygon fill="#000000" stroke="#000000" points="306.7,-352.2 306.7,-360.2 305.1,-360.2 305.1,-352.2 306.7,-352.2"/>
<polyline fill="none" stroke="#000000" points="307.5,-356.2 303.5,-356.2 "/>
<ellipse fill="none" stroke="#000000" cx="300.3" cy="-356.2001" rx="3.2" ry="3.2"/>
</g>
<!-- cell_certificate_upload_location -->
<g id="node3" class="node">
<title>cell_certificate_upload_location</title>
<g id="a_node3"><a xlink:href="../../tables/cell_certificate_upload_location.html" xlink:title="cell_certificate_upload_location" target="_top">
<polygon fill="#ffffff" stroke="transparent" points="697,-329.7 697,-434.7 1013,-434.7 1013,-329.7 697,-329.7"/>
<polygon fill="#f5f5f5" stroke="transparent" points="697,-411.2 697,-434.2 1013,-434.2 1013,-411.2 697,-411.2"/>
<polygon fill="none" stroke="#000000" points="697,-411.2 697,-434.2 1013,-434.2 1013,-411.2 697,-411.2"/>
<text text-anchor="start" x="702" y="-419.8" font-family="Helvetica,sans-Serif" font-weight="bold" font-size="11.00" fill="#000000">cell_certificate_upload_location</text>
<text text-anchor="start" x="978.0437" y="-419.3" font-family="Helvetica,sans-Serif" font-size="11.00" fill="#000000">[table]</text>
<polygon fill="none" stroke="#000000" points="697,-389.2 697,-411.2 1013,-411.2 1013,-389.2 697,-389.2"/>
<image xlink:href="../../images/primaryKeys.png" width="11px" height="12px" preserveAspectRatio="xMinYMin meet" x="702" y="-406.2"/>
<text text-anchor="start" x="717" y="-396.3" font-family="Helvetica,sans-Serif" font-size="11.00" fill="#000000">id</text>
<polygon fill="#ffffff" stroke="transparent" points="697,-367.2 697,-389.2 1013,-389.2 1013,-367.2 697,-367.2"/>
<polygon fill="none" stroke="#000000" points="697,-367.2 697,-389.2 1013,-389.2 1013,-367.2 697,-367.2"/>
<image xlink:href="../../images/foreignKeys.png" width="11px" height="12px" preserveAspectRatio="xMinYMin meet" x="702" y="-384.2"/>
<text text-anchor="start" x="717" y="-374.3" font-family="Helvetica,sans-Serif" font-size="11.00" fill="#000000">cell_certificate_upload_id</text>
<polygon fill="none" stroke="#000000" points="697,-348.2 697,-367.2 1013,-367.2 1013,-348.2 697,-348.2"/>
<text text-anchor="start" x="700" y="-354.3" font-family="Helvetica,sans-Serif" font-size="11.00" fill="#000000">...</text>
<polygon fill="#ffffff" stroke="transparent" points="697,-329.2 697,-348.2 853,-348.2 853,-329.2 697,-329.2"/>
<polygon fill="none" stroke="#000000" points="697,-329.2 697,-348.2 853,-348.2 853,-329.2 697,-329.2"/>
<text text-anchor="start" x="700" y="-335.3" font-family="Helvetica,sans-Serif" font-size="11.00" fill="#000000">&lt; 1</text>
<polygon fill="#ffffff" stroke="transparent" points="853,-329.2 853,-348.2 933,-348.2 933,-329.2 853,-329.2"/>
<polygon fill="none" stroke="#000000" points="853,-329.2 853,-348.2 933,-348.2 933,-329.2 853,-329.2"/>
<text text-anchor="start" x="923.8862" y="-335.3" font-family="Helvetica,sans-Serif" font-size="11.00" fill="#000000"> &#160;</text>
<polygon fill="#ffffff" stroke="transparent" points="933,-329.2 933,-348.2 1013,-348.2 1013,-329.2 933,-329.2"/>
<polygon fill="none" stroke="#000000" points="933,-329.2 933,-348.2 1013,-348.2 1013,-329.2 933,-329.2"/>
<text text-anchor="start" x="1003.8862" y="-335.3" font-family="Helvetica,sans-Serif" font-size="11.00" fill="#000000"> &#160;</text>
</a>
</g>
</g>
<!-- cell_certificate_upload_location&#45;&gt;cell_certificate_upload -->
<g id="edge2" class="edge">
<title>cell_certificate_upload_location:w&#45;&gt;cell_certificate_upload:e</title>
<path fill="none" stroke="#000000" d="M682.4203,-378.2C670.5435,-378.2 663.158,-378.2 646.5,-378.2"/>
<polygon fill="#000000" stroke="#000000" points="689,-378.2001 697,-381.8 693,-378.2 697,-378.2 697,-378.2 697,-378.2 693,-378.2 697,-374.6 689,-378.2001 689,-378.2001"/>
<ellipse fill="none" stroke="#000000" cx="685.8" cy="-378.2001" rx="3.2" ry="3.2"/>
</g>
</g>
</svg>
