<?xml version="1.0" encoding="UTF-8" standalone="no"?>
<!DOCTYPE svg PUBLIC "-//W3C//DTD SVG 1.1//EN"
 "http://www.w3.org/Graphics/SVG/1.1/DTD/svg11.dtd">
<!-- Generated by graphviz version 2.40.1 (20161225.0304)
 -->
<!-- Title: twoDegreesRelationshipsDiagram Pages: 1 -->
<svg width="718pt" height="847pt"
 viewBox="0.00 0.00 718.00 847.20" xmlns="http://www.w3.org/2000/svg" xmlns:xlink="http://www.w3.org/1999/xlink">
<g id="graph0" class="graph" transform="scale(1 1) rotate(0) translate(4 843.2)">
<title>twoDegreesRelationshipsDiagram</title>
<polygon fill="#ffffff" stroke="transparent" points="-4,4 -4,-843.2 714,-843.2 714,4 -4,4"/>
<text text-anchor="middle" x="72.4936" y="-7.3" font-family="Helvetica,sans-Serif" font-size="11.00" fill="#000000">Generated by SchemaSpy</text>
<!-- cell_used_for -->
<g id="node1" class="node">
<title>cell_used_for</title>
<g id="a_node1"><a xlink:href="../../tables/cell_used_for.html" xlink:title="cell_used_for" target="_top">
<polygon fill="#ffffff" stroke="transparent" points="508,-774.2 508,-835.2 634,-835.2 634,-774.2 508,-774.2"/>
<polygon fill="#f5f5f5" stroke="transparent" points="508,-811.7 508,-834.7 634,-834.7 634,-811.7 508,-811.7"/>
<polygon fill="none" stroke="#000000" points="508,-811.7 508,-834.7 634,-834.7 634,-811.7 508,-811.7"/>
<text text-anchor="start" x="513" y="-820.3" font-family="Helvetica,sans-Serif" font-weight="bold" font-size="11.00" fill="#000000">cell_used_for</text>
<text text-anchor="start" x="599.5219" y="-819.8" font-family="Helvetica,sans-Serif" font-size="11.00" fill="#000000">[table]</text>
<polygon fill="none" stroke="#000000" points="508,-792.7 508,-811.7 634,-811.7 634,-792.7 508,-792.7"/>
<text text-anchor="start" x="511" y="-798.8" font-family="Helvetica,sans-Serif" font-size="11.00" fill="#000000">...</text>
<polygon fill="#ffffff" stroke="transparent" points="508,-773.7 508,-792.7 569,-792.7 569,-773.7 508,-773.7"/>
<polygon fill="none" stroke="#000000" points="508,-773.7 508,-792.7 569,-792.7 569,-773.7 508,-773.7"/>
<text text-anchor="start" x="511" y="-779.8" font-family="Helvetica,sans-Serif" font-size="11.00" fill="#000000">&lt; 1</text>
<polygon fill="#ffffff" stroke="transparent" points="569,-773.7 569,-792.7 601,-792.7 601,-773.7 569,-773.7"/>
<polygon fill="none" stroke="#000000" points="569,-773.7 569,-792.7 601,-792.7 601,-773.7 569,-773.7"/>
<text text-anchor="start" x="591.8862" y="-779.8" font-family="Helvetica,sans-Serif" font-size="11.00" fill="#000000"> &#160;</text>
<polygon fill="#ffffff" stroke="transparent" points="601,-773.7 601,-792.7 634,-792.7 634,-773.7 601,-773.7"/>
<polygon fill="none" stroke="#000000" points="601,-773.7 601,-792.7 634,-792.7 634,-773.7 601,-773.7"/>
<text text-anchor="start" x="624.8862" y="-779.8" font-family="Helvetica,sans-Serif" font-size="11.00" fill="#000000"> &#160;</text>
</a>
</g>
</g>
<!-- location -->
<g id="node2" class="node">
<title>location</title>
<g id="a_node2"><a xlink:href="../../tables/location.html" xlink:title="location" target="_top">
<polygon fill="#ffffff" stroke="transparent" points="152,-309.2 152,-590.2 391,-590.2 391,-309.2 152,-309.2"/>
<polygon fill="#f5f5f5" stroke="transparent" points="152.5,-566.7 152.5,-589.7 391.5,-589.7 391.5,-566.7 152.5,-566.7"/>
<polygon fill="none" stroke="#000000" points="152.5,-566.7 152.5,-589.7 391.5,-589.7 391.5,-566.7 152.5,-566.7"/>
<text text-anchor="start" x="157.5" y="-575.3" font-family="Helvetica,sans-Serif" font-weight="bold" font-size="11.00" fill="#000000">location</text>
<text text-anchor="start" x="356.5437" y="-574.8" font-family="Helvetica,sans-Serif" font-size="11.00" fill="#000000">[table]</text>
<polygon fill="none" stroke="#000000" points="152.5,-544.7 152.5,-566.7 391.5,-566.7 391.5,-544.7 152.5,-544.7"/>
<image xlink:href="../../images/primaryKeys.png" width="11px" height="12px" preserveAspectRatio="xMinYMin meet" x="157.5" y="-561.7"/>
<text text-anchor="start" x="172.5" y="-551.8" font-family="Helvetica,sans-Serif" font-size="11.00" fill="#000000">id</text>
<polygon fill="#ffffff" stroke="transparent" points="152.5,-522.7 152.5,-544.7 391.5,-544.7 391.5,-522.7 152.5,-522.7"/>
<polygon fill="none" stroke="#000000" points="152.5,-522.7 152.5,-544.7 391.5,-544.7 391.5,-522.7 152.5,-522.7"/>
<image xlink:href="../../images/foreignKeys.png" width="11px" height="12px" preserveAspectRatio="xMinYMin meet" x="157.5" y="-539.7"/>
<text text-anchor="start" x="172.5" y="-529.8" font-family="Helvetica,sans-Serif" font-size="11.00" fill="#000000">prison_id</text>
<polygon fill="#ffffff" stroke="transparent" points="152.5,-500.7 152.5,-522.7 391.5,-522.7 391.5,-500.7 152.5,-500.7"/>
<polygon fill="none" stroke="#000000" points="152.5,-500.7 152.5,-522.7 391.5,-522.7 391.5,-500.7 152.5,-500.7"/>
<text text-anchor="start" x="172.5" y="-507.8" font-family="Helvetica,sans-Serif" font-size="11.00" fill="#000000">path_hierarchy</text>
<polygon fill="#ffffff" stroke="transparent" points="152.5,-478.7 152.5,-500.7 391.5,-500.7 391.5,-478.7 152.5,-478.7"/>
<polygon fill="none" stroke="#000000" points="152.5,-478.7 152.5,-500.7 391.5,-500.7 391.5,-478.7 152.5,-478.7"/>
<text text-anchor="start" x="172.5" y="-485.8" font-family="Helvetica,sans-Serif" font-size="11.00" fill="#000000">code</text>
<polygon fill="#ffffff" stroke="transparent" points="152.5,-456.7 152.5,-478.7 391.5,-478.7 391.5,-456.7 152.5,-456.7"/>
<polygon fill="none" stroke="#000000" points="152.5,-456.7 152.5,-478.7 391.5,-478.7 391.5,-456.7 152.5,-456.7"/>
<text text-anchor="start" x="172.5" y="-463.8" font-family="Helvetica,sans-Serif" font-size="11.00" fill="#000000">location_type</text>
<polygon fill="#ffffff" stroke="transparent" points="152.5,-434.7 152.5,-456.7 391.5,-456.7 391.5,-434.7 152.5,-434.7"/>
<polygon fill="none" stroke="#000000" points="152.5,-434.7 152.5,-456.7 391.5,-456.7 391.5,-434.7 152.5,-434.7"/>
<image xlink:href="../../images/foreignKeys.png" width="11px" height="12px" preserveAspectRatio="xMinYMin meet" x="157.5" y="-451.7"/>
<text text-anchor="start" x="172.5" y="-441.8" font-family="Helvetica,sans-Serif" font-size="11.00" fill="#000000">parent_id</text>
<polygon fill="#ffffff" stroke="transparent" points="152.5,-412.7 152.5,-434.7 391.5,-434.7 391.5,-412.7 152.5,-412.7"/>
<polygon fill="none" stroke="#000000" points="152.5,-412.7 152.5,-434.7 391.5,-434.7 391.5,-412.7 152.5,-412.7"/>
<text text-anchor="start" x="172.5" y="-419.8" font-family="Helvetica,sans-Serif" font-size="11.00" fill="#000000">residential_housing_type</text>
<polygon fill="#ffffff" stroke="transparent" points="152.5,-390.7 152.5,-412.7 391.5,-412.7 391.5,-390.7 152.5,-390.7"/>
<polygon fill="none" stroke="#000000" points="152.5,-390.7 152.5,-412.7 391.5,-412.7 391.5,-390.7 152.5,-390.7"/>
<image xlink:href="../../images/foreignKeys.png" width="11px" height="12px" preserveAspectRatio="xMinYMin meet" x="157.5" y="-407.7"/>
<text text-anchor="start" x="172.5" y="-397.8" font-family="Helvetica,sans-Serif" font-size="11.00" fill="#000000">capacity_id</text>
<polygon fill="#ffffff" stroke="transparent" points="152.5,-368.7 152.5,-390.7 391.5,-390.7 391.5,-368.7 152.5,-368.7"/>
<polygon fill="none" stroke="#000000" points="152.5,-368.7 152.5,-390.7 391.5,-390.7 391.5,-368.7 152.5,-368.7"/>
<text text-anchor="start" x="172.5" y="-375.8" font-family="Helvetica,sans-Serif" font-size="11.00" fill="#000000">location_type_discriminator</text>
<polygon fill="#ffffff" stroke="transparent" points="152.5,-346.7 152.5,-368.7 391.5,-368.7 391.5,-346.7 152.5,-346.7"/>
<polygon fill="none" stroke="#000000" points="152.5,-346.7 152.5,-368.7 391.5,-368.7 391.5,-346.7 152.5,-346.7"/>
<text text-anchor="start" x="172.5" y="-353.8" font-family="Helvetica,sans-Serif" font-size="11.00" fill="#000000">status</text>
<polygon fill="none" stroke="#000000" points="152.5,-327.7 152.5,-346.7 391.5,-346.7 391.5,-327.7 152.5,-327.7"/>
<text text-anchor="start" x="155.5" y="-333.8" font-family="Helvetica,sans-Serif" font-size="11.00" fill="#000000">...</text>
<polygon fill="#ffffff" stroke="transparent" points="152.5,-308.7 152.5,-327.7 265.5,-327.7 265.5,-308.7 152.5,-308.7"/>
<polygon fill="none" stroke="#000000" points="152.5,-308.7 152.5,-327.7 265.5,-327.7 265.5,-308.7 152.5,-308.7"/>
<text text-anchor="start" x="155.5" y="-314.8" font-family="Helvetica,sans-Serif" font-size="11.00" fill="#000000">&lt; 2</text>
<polygon fill="#ffffff" stroke="transparent" points="265.5,-308.7 265.5,-327.7 323.5,-327.7 323.5,-308.7 265.5,-308.7"/>
<polygon fill="none" stroke="#000000" points="265.5,-308.7 265.5,-327.7 323.5,-327.7 323.5,-308.7 265.5,-308.7"/>
<text text-anchor="start" x="314.3862" y="-314.8" font-family="Helvetica,sans-Serif" font-size="11.00" fill="#000000"> &#160;</text>
<polygon fill="#ffffff" stroke="transparent" points="323.5,-308.7 323.5,-327.7 391.5,-327.7 391.5,-308.7 323.5,-308.7"/>
<polygon fill="none" stroke="#000000" points="323.5,-308.7 323.5,-327.7 391.5,-327.7 391.5,-308.7 323.5,-308.7"/>
<text text-anchor="start" x="372.9053" y="-314.8" font-family="Helvetica,sans-Serif" font-size="11.00" fill="#000000">8 &gt;</text>
</a>
</g>
</g>
<!-- cell_used_for&#45;&gt;location -->
<g id="edge1" class="edge">
<title>cell_used_for:w&#45;&gt;location:e</title>
<path fill="none" stroke="#000000" d="M493.3125,-801.19C465.7597,-799.0319 451.6337,-789.5415 432,-763.7 375.0237,-688.7088 485.6805,-555.7 391.5,-555.7"/>
<polygon fill="#000000" stroke="#000000" points="500.0048,-801.4223 507.8751,-805.2978 504.0024,-801.5612 508,-801.7 508,-801.7 508,-801.7 504.0024,-801.5612 508.1249,-798.1022 500.0048,-801.4223 500.0048,-801.4223"/>
<ellipse fill="none" stroke="#000000" cx="496.8067" cy="-801.3113" rx="3.2" ry="3.2"/>
</g>
<!-- capacity -->
<g id="node4" class="node">
<title>capacity</title>
<g id="a_node4"><a xlink:href="../../tables/capacity.html" xlink:title="capacity" target="_top">
<polygon fill="#ffffff" stroke="transparent" points="8,-374.2 8,-435.2 103,-435.2 103,-374.2 8,-374.2"/>
<polygon fill="#f5f5f5" stroke="transparent" points="8.5,-411.7 8.5,-434.7 103.5,-434.7 103.5,-411.7 8.5,-411.7"/>
<polygon fill="none" stroke="#000000" points="8.5,-411.7 8.5,-434.7 103.5,-434.7 103.5,-411.7 8.5,-411.7"/>
<text text-anchor="start" x="13.5" y="-420.3" font-family="Helvetica,sans-Serif" font-weight="bold" font-size="11.00" fill="#000000">capacity</text>
<text text-anchor="start" x="69.0219" y="-419.8" font-family="Helvetica,sans-Serif" font-size="11.00" fill="#000000">[table]</text>
<polygon fill="none" stroke="#000000" points="8.5,-392.7 8.5,-411.7 103.5,-411.7 103.5,-392.7 8.5,-392.7"/>
<text text-anchor="start" x="11.5" y="-398.8" font-family="Helvetica,sans-Serif" font-size="11.00" fill="#000000">...</text>
<polygon fill="#ffffff" stroke="transparent" points="8.5,-373.7 8.5,-392.7 45.5,-392.7 45.5,-373.7 8.5,-373.7"/>
<polygon fill="none" stroke="#000000" points="8.5,-373.7 8.5,-392.7 45.5,-392.7 45.5,-373.7 8.5,-373.7"/>
<text text-anchor="start" x="11.5" y="-379.8" font-family="Helvetica,sans-Serif" font-size="11.00" fill="#000000"> &#160;</text>
<polygon fill="#ffffff" stroke="transparent" points="45.5,-373.7 45.5,-392.7 69.5,-392.7 69.5,-373.7 45.5,-373.7"/>
<polygon fill="none" stroke="#000000" points="45.5,-373.7 45.5,-392.7 69.5,-392.7 69.5,-373.7 45.5,-373.7"/>
<text text-anchor="start" x="60.3862" y="-379.8" font-family="Helvetica,sans-Serif" font-size="11.00" fill="#000000"> &#160;</text>
<polygon fill="#ffffff" stroke="transparent" points="69.5,-373.7 69.5,-392.7 103.5,-392.7 103.5,-373.7 69.5,-373.7"/>
<polygon fill="none" stroke="#000000" points="69.5,-373.7 69.5,-392.7 103.5,-392.7 103.5,-373.7 69.5,-373.7"/>
<text text-anchor="start" x="84.9053" y="-379.8" font-family="Helvetica,sans-Serif" font-size="11.00" fill="#000000">1 &gt;</text>
</a>
</g>
</g>
<!-- location&#45;&gt;capacity -->
<g id="edge3" class="edge">
<title>location:w&#45;&gt;capacity:e</title>
<path fill="none" stroke="#000000" d="M137.9909,-401.7C126.6774,-401.7 119.4931,-401.7 103.5,-401.7"/>
<polygon fill="#000000" stroke="#000000" points="144.5,-401.7001 152.5,-405.3 148.5,-401.7 152.5,-401.7 152.5,-401.7 152.5,-401.7 148.5,-401.7 152.5,-398.1 144.5,-401.7001 144.5,-401.7001"/>
<ellipse fill="none" stroke="#000000" cx="141.3" cy="-401.7001" rx="3.2" ry="3.2"/>
</g>
<!-- certification_approval_request -->
<g id="node3" class="node">
<title>certification_approval_request</title>
<g id="a_node3"><a xlink:href="../../tables/certification_approval_request.html" xlink:title="certification_approval_request" target="_top">
<polygon fill="#ffffff" stroke="transparent" points="449,-692.2 449,-753.2 693,-753.2 693,-692.2 449,-692.2"/>
<polygon fill="#f5f5f5" stroke="transparent" points="449,-729.7 449,-752.7 693,-752.7 693,-729.7 449,-729.7"/>
<polygon fill="none" stroke="#000000" points="449,-729.7 449,-752.7 693,-752.7 693,-729.7 449,-729.7"/>
<text text-anchor="start" x="454" y="-738.3" font-family="Helvetica,sans-Serif" font-weight="bold" font-size="11.00" fill="#000000">certification_approval_request</text>
<text text-anchor="start" x="658.5219" y="-737.8" font-family="Helvetica,sans-Serif" font-size="11.00" fill="#000000">[table]</text>
<polygon fill="none" stroke="#000000" points="449,-710.7 449,-729.7 693,-729.7 693,-710.7 449,-710.7"/>
<text text-anchor="start" x="452" y="-716.8" font-family="Helvetica,sans-Serif" font-size="11.00" fill="#000000">...</text>
<polygon fill="#ffffff" stroke="transparent" points="449,-691.7 449,-710.7 565,-710.7 565,-691.7 449,-691.7"/>
<polygon fill="none" stroke="#000000" points="449,-691.7 449,-710.7 565,-710.7 565,-691.7 449,-691.7"/>
<text text-anchor="start" x="452" y="-697.8" font-family="Helvetica,sans-Serif" font-size="11.00" fill="#000000">&lt; 1</text>
<polygon fill="#ffffff" stroke="transparent" points="565,-691.7 565,-710.7 624,-710.7 624,-691.7 565,-691.7"/>
<polygon fill="none" stroke="#000000" points="565,-691.7 565,-710.7 624,-710.7 624,-691.7 565,-691.7"/>
<text text-anchor="start" x="614.8862" y="-697.8" font-family="Helvetica,sans-Serif" font-size="11.00" fill="#000000"> &#160;</text>
<polygon fill="#ffffff" stroke="transparent" points="624,-691.7 624,-710.7 693,-710.7 693,-691.7 624,-691.7"/>
<polygon fill="none" stroke="#000000" points="624,-691.7 624,-710.7 693,-710.7 693,-691.7 624,-691.7"/>
<text text-anchor="start" x="674.4053" y="-697.8" font-family="Helvetica,sans-Serif" font-size="11.00" fill="#000000">2 &gt;</text>
</a>
</g>
</g>
<!-- certification_approval_request&#45;&gt;location -->
<g id="edge2" class="edge">
<title>certification_approval_request:w&#45;&gt;location:e</title>
<path fill="none" stroke="#000000" d="M434.5388,-717.124C385.1964,-696.2596 463.0065,-555.7 391.5,-555.7"/>
<polygon fill="#000000" stroke="#000000" points="441.124,-718.297 448.3686,-723.2442 445.062,-718.9985 449,-719.7 449,-719.7 449,-719.7 445.062,-718.9985 449.6314,-716.1558 441.124,-718.297 441.124,-718.297"/>
<ellipse fill="none" stroke="#000000" cx="437.9736" cy="-717.7357" rx="3.2" ry="3.2"/>
</g>
<!-- location_history -->
<g id="node5" class="node">
<title>location_history</title>
<g id="a_node5"><a xlink:href="../../tables/location_history.html" xlink:title="location_history" target="_top">
<polygon fill="#ffffff" stroke="transparent" points="440,-120.7 440,-342.7 702,-342.7 702,-120.7 440,-120.7"/>
<polygon fill="#f5f5f5" stroke="transparent" points="442,-317.7 442,-340.7 700,-340.7 700,-317.7 442,-317.7"/>
<polygon fill="none" stroke="#000000" points="442,-317.7 442,-340.7 700,-340.7 700,-317.7 442,-317.7"/>
<text text-anchor="start" x="447" y="-326.3" font-family="Helvetica,sans-Serif" font-weight="bold" font-size="11.00" fill="#000000">location_history</text>
<text text-anchor="start" x="665.0437" y="-325.8" font-family="Helvetica,sans-Serif" font-size="11.00" fill="#000000">[table]</text>
<polygon fill="none" stroke="#000000" points="442,-295.7 442,-317.7 606,-317.7 606,-295.7 442,-295.7"/>
<image xlink:href="../../images/primaryKeys.png" width="11px" height="12px" preserveAspectRatio="xMinYMin meet" x="447" y="-312.7"/>
<text text-anchor="start" x="462" y="-302.8" font-family="Helvetica,sans-Serif" font-size="11.00" fill="#000000">id</text>
<polygon fill="none" stroke="#000000" points="606,-295.7 606,-317.7 700,-317.7 700,-295.7 606,-295.7"/>
<text text-anchor="start" x="609" y="-303.4" font-family="Helvetica,sans-Serif" font-size="11.00" fill="#000000">serial[10]</text>
<polygon fill="#ffffff" stroke="transparent" points="442,-273.7 442,-295.7 606,-295.7 606,-273.7 442,-273.7"/>
<polygon fill="none" stroke="#000000" points="442,-273.7 442,-295.7 606,-295.7 606,-273.7 442,-273.7"/>
<image xlink:href="../../images/foreignKeys.png" width="11px" height="12px" preserveAspectRatio="xMinYMin meet" x="447" y="-290.7"/>
<text text-anchor="start" x="462" y="-280.8" font-family="Helvetica,sans-Serif" font-size="11.00" fill="#000000">location_id</text>
<polygon fill="none" stroke="#000000" points="606,-273.7 606,-295.7 700,-295.7 700,-273.7 606,-273.7"/>
<text text-anchor="start" x="608.9758" y="-281.4" font-family="Helvetica,sans-Serif" font-size="11.00" fill="#000000">uuid[2147483647]</text>
<polygon fill="none" stroke="#000000" points="442,-251.7 442,-273.7 606,-273.7 606,-251.7 442,-251.7"/>
<text text-anchor="start" x="462" y="-258.8" font-family="Helvetica,sans-Serif" font-size="11.00" fill="#000000">attribute_name</text>
<polygon fill="none" stroke="#000000" points="606,-251.7 606,-273.7 700,-273.7 700,-251.7 606,-251.7"/>
<text text-anchor="start" x="609" y="-259.4" font-family="Helvetica,sans-Serif" font-size="11.00" fill="#000000">varchar[80]</text>
<polygon fill="none" stroke="#000000" points="442,-229.7 442,-251.7 606,-251.7 606,-229.7 442,-229.7"/>
<text text-anchor="start" x="462" y="-236.8" font-family="Helvetica,sans-Serif" font-size="11.00" fill="#000000">old_value</text>
<polygon fill="none" stroke="#000000" points="606,-229.7 606,-251.7 700,-251.7 700,-229.7 606,-229.7"/>
<text text-anchor="start" x="609" y="-237.4" font-family="Helvetica,sans-Serif" font-size="11.00" fill="#000000">varchar[1024]</text>
<polygon fill="none" stroke="#000000" points="442,-207.7 442,-229.7 606,-229.7 606,-207.7 442,-207.7"/>
<text text-anchor="start" x="462" y="-214.8" font-family="Helvetica,sans-Serif" font-size="11.00" fill="#000000">new_value</text>
<polygon fill="none" stroke="#000000" points="606,-207.7 606,-229.7 700,-229.7 700,-207.7 606,-207.7"/>
<text text-anchor="start" x="609" y="-215.4" font-family="Helvetica,sans-Serif" font-size="11.00" fill="#000000">varchar[1024]</text>
<polygon fill="#ffffff" stroke="transparent" points="442,-185.7 442,-207.7 606,-207.7 606,-185.7 442,-185.7"/>
<polygon fill="none" stroke="#000000" points="442,-185.7 442,-207.7 606,-207.7 606,-185.7 442,-185.7"/>
<text text-anchor="start" x="462" y="-192.8" font-family="Helvetica,sans-Serif" font-size="11.00" fill="#000000">amended_by</text>
<polygon fill="none" stroke="#000000" points="606,-185.7 606,-207.7 700,-207.7 700,-185.7 606,-185.7"/>
<text text-anchor="start" x="609" y="-193.4" font-family="Helvetica,sans-Serif" font-size="11.00" fill="#000000">varchar[255]</text>
<polygon fill="#ffffff" stroke="transparent" points="442,-163.7 442,-185.7 606,-185.7 606,-163.7 442,-163.7"/>
<polygon fill="none" stroke="#000000" points="442,-163.7 442,-185.7 606,-185.7 606,-163.7 442,-163.7"/>
<text text-anchor="start" x="462" y="-170.8" font-family="Helvetica,sans-Serif" font-size="11.00" fill="#000000">amended_date</text>
<polygon fill="none" stroke="#000000" points="606,-163.7 606,-185.7 700,-185.7 700,-163.7 606,-163.7"/>
<text text-anchor="start" x="609" y="-171.4" font-family="Helvetica,sans-Serif" font-size="11.00" fill="#000000">timestamp[29,6]</text>
<polygon fill="#ffffff" stroke="transparent" points="442,-141.7 442,-163.7 606,-163.7 606,-141.7 442,-141.7"/>
<polygon fill="none" stroke="#000000" points="442,-141.7 442,-163.7 606,-163.7 606,-141.7 442,-141.7"/>
<image xlink:href="../../images/foreignKeys.png" width="11px" height="12px" preserveAspectRatio="xMinYMin meet" x="447" y="-158.7"/>
<text text-anchor="start" x="462" y="-148.8" font-family="Helvetica,sans-Serif" font-size="11.00" fill="#000000">linked_transaction_id</text>
<polygon fill="none" stroke="#000000" points="606,-141.7 606,-163.7 700,-163.7 700,-141.7 606,-141.7"/>
<text text-anchor="start" x="608.9758" y="-149.4" font-family="Helvetica,sans-Serif" font-size="11.00" fill="#000000">uuid[2147483647]</text>
<polygon fill="#ffffff" stroke="transparent" points="442,-122.7 442,-141.7 528,-141.7 528,-122.7 442,-122.7"/>
<polygon fill="none" stroke="#000000" points="442,-122.7 442,-141.7 528,-141.7 528,-122.7 442,-122.7"/>
<text text-anchor="start" x="445" y="-128.8" font-family="Helvetica,sans-Serif" font-size="11.00" fill="#000000">&lt; 2</text>
<polygon fill="#ffffff" stroke="transparent" points="528,-122.7 528,-141.7 606,-141.7 606,-122.7 528,-122.7"/>
<polygon fill="none" stroke="#000000" points="528,-122.7 528,-141.7 606,-141.7 606,-122.7 528,-122.7"/>
<text text-anchor="start" x="596.8862" y="-128.8" font-family="Helvetica,sans-Serif" font-size="11.00" fill="#000000"> &#160;</text>
<polygon fill="#ffffff" stroke="transparent" points="606,-122.7 606,-141.7 700,-141.7 700,-122.7 606,-122.7"/>
<polygon fill="none" stroke="#000000" points="606,-122.7 606,-141.7 700,-141.7 700,-122.7 606,-122.7"/>
<text text-anchor="start" x="681.4053" y="-128.8" font-family="Helvetica,sans-Serif" font-size="11.00" fill="#000000">0 &gt;</text>
<polygon fill="none" stroke="#000000" stroke-width="2" points="441,-121.7 441,-341.7 701,-341.7 701,-121.7 441,-121.7"/>
</a>
</g>
</g>
<!-- location_history&#45;&gt;location -->
<g id="edge5" class="edge">
<title>location_history:w&#45;&gt;location:e</title>
<path fill="none" stroke="#000000" d="M428.7554,-290.6122C392.3709,-330.2433 447.3748,-555.7 391.5,-555.7"/>
<polygon fill="#000000" stroke="#000000" points="434.6948,-287.961 443.4674,-287.9873 438.3474,-286.3305 442,-284.7 442,-284.7 442,-284.7 438.3474,-286.3305 440.5326,-281.4127 434.6948,-287.961 434.6948,-287.961"/>
<ellipse fill="none" stroke="#000000" cx="431.7727" cy="-289.2654" rx="3.2" ry="3.2"/>
</g>
<!-- linked_transaction -->
<g id="node6" class="node">
<title>linked_transaction</title>
<g id="a_node6"><a xlink:href="../../tables/linked_transaction.html" xlink:title="linked_transaction" target="_top">
<polygon fill="#ffffff" stroke="transparent" points="181.5,-38.2 181.5,-187.2 361.5,-187.2 361.5,-38.2 181.5,-38.2"/>
<polygon fill="#f5f5f5" stroke="transparent" points="181.5,-163.7 181.5,-186.7 361.5,-186.7 361.5,-163.7 181.5,-163.7"/>
<polygon fill="none" stroke="#000000" points="181.5,-163.7 181.5,-186.7 361.5,-186.7 361.5,-163.7 181.5,-163.7"/>
<text text-anchor="start" x="186.5" y="-172.3" font-family="Helvetica,sans-Serif" font-weight="bold" font-size="11.00" fill="#000000">linked_transaction</text>
<text text-anchor="start" x="326.5437" y="-171.8" font-family="Helvetica,sans-Serif" font-size="11.00" fill="#000000">[table]</text>
<polygon fill="none" stroke="#000000" points="181.5,-141.7 181.5,-163.7 361.5,-163.7 361.5,-141.7 181.5,-141.7"/>
<image xlink:href="../../images/primaryKeys.png" width="11px" height="12px" preserveAspectRatio="xMinYMin meet" x="186.5" y="-158.7"/>
<text text-anchor="start" x="201.5" y="-148.8" font-family="Helvetica,sans-Serif" font-size="11.00" fill="#000000">id</text>
<polygon fill="#ffffff" stroke="transparent" points="181.5,-119.7 181.5,-141.7 361.5,-141.7 361.5,-119.7 181.5,-119.7"/>
<polygon fill="none" stroke="#000000" points="181.5,-119.7 181.5,-141.7 361.5,-141.7 361.5,-119.7 181.5,-119.7"/>
<text text-anchor="start" x="201.5" y="-126.8" font-family="Helvetica,sans-Serif" font-size="11.00" fill="#000000">transaction_type</text>
<polygon fill="#ffffff" stroke="transparent" points="181.5,-97.7 181.5,-119.7 361.5,-119.7 361.5,-97.7 181.5,-97.7"/>
<polygon fill="none" stroke="#000000" points="181.5,-97.7 181.5,-119.7 361.5,-119.7 361.5,-97.7 181.5,-97.7"/>
<text text-anchor="start" x="201.5" y="-104.8" font-family="Helvetica,sans-Serif" font-size="11.00" fill="#000000">tx_start_time</text>
<polygon fill="#ffffff" stroke="transparent" points="181.5,-75.7 181.5,-97.7 361.5,-97.7 361.5,-75.7 181.5,-75.7"/>
<polygon fill="none" stroke="#000000" points="181.5,-75.7 181.5,-97.7 361.5,-97.7 361.5,-75.7 181.5,-75.7"/>
<image xlink:href="../../images/foreignKeys.png" width="11px" height="12px" preserveAspectRatio="xMinYMin meet" x="186.5" y="-92.7"/>
<text text-anchor="start" x="201.5" y="-82.8" font-family="Helvetica,sans-Serif" font-size="11.00" fill="#000000">prison_id</text>
<polygon fill="none" stroke="#000000" points="181.5,-56.7 181.5,-75.7 361.5,-75.7 361.5,-56.7 181.5,-56.7"/>
<text text-anchor="start" x="184.5" y="-62.8" font-family="Helvetica,sans-Serif" font-size="11.00" fill="#000000">...</text>
<polygon fill="#ffffff" stroke="transparent" points="181.5,-37.7 181.5,-56.7 260.5,-56.7 260.5,-37.7 181.5,-37.7"/>
<polygon fill="none" stroke="#000000" points="181.5,-37.7 181.5,-56.7 260.5,-56.7 260.5,-37.7 181.5,-37.7"/>
<text text-anchor="start" x="184.5" y="-43.8" font-family="Helvetica,sans-Serif" font-size="11.00" fill="#000000"> &#160;</text>
<polygon fill="#ffffff" stroke="transparent" points="260.5,-37.7 260.5,-56.7 306.5,-56.7 306.5,-37.7 260.5,-37.7"/>
<polygon fill="none" stroke="#000000" points="260.5,-37.7 260.5,-56.7 306.5,-56.7 306.5,-37.7 260.5,-37.7"/>
<text text-anchor="start" x="297.3862" y="-43.8" font-family="Helvetica,sans-Serif" font-size="11.00" fill="#000000"> &#160;</text>
<polygon fill="#ffffff" stroke="transparent" points="306.5,-37.7 306.5,-56.7 361.5,-56.7 361.5,-37.7 306.5,-37.7"/>
<polygon fill="none" stroke="#000000" points="306.5,-37.7 306.5,-56.7 361.5,-56.7 361.5,-37.7 306.5,-37.7"/>
<text text-anchor="start" x="342.9053" y="-43.8" font-family="Helvetica,sans-Serif" font-size="11.00" fill="#000000">1 &gt;</text>
</a>
</g>
</g>
<!-- location_history&#45;&gt;linked_transaction -->
<g id="edge4" class="edge">
<title>location_history:w&#45;&gt;linked_transaction:e</title>
<path fill="none" stroke="#000000" d="M427.327,-152.7C402.8742,-152.7 391.8273,-152.7 361.5,-152.7"/>
<polygon fill="#000000" stroke="#000000" points="434,-152.7001 442,-156.3 438,-152.7 442,-152.7 442,-152.7 442,-152.7 438,-152.7 442,-149.1 434,-152.7001 434,-152.7001"/>
<ellipse fill="none" stroke="#000000" cx="430.8" cy="-152.7001" rx="3.2" ry="3.2"/>
</g>
<!-- non_residential_usage -->
<g id="node7" class="node">
<title>non_residential_usage</title>
<g id="a_node7"><a xlink:href="../../tables/non_residential_usage.html" xlink:title="non_residential_usage" target="_top">
<polygon fill="#ffffff" stroke="transparent" points="476.5,-610.2 476.5,-671.2 665.5,-671.2 665.5,-610.2 476.5,-610.2"/>
<polygon fill="#f5f5f5" stroke="transparent" points="477,-647.7 477,-670.7 666,-670.7 666,-647.7 477,-647.7"/>
<polygon fill="none" stroke="#000000" points="477,-647.7 477,-670.7 666,-670.7 666,-647.7 477,-647.7"/>
<text text-anchor="start" x="482" y="-656.3" font-family="Helvetica,sans-Serif" font-weight="bold" font-size="11.00" fill="#000000">non_residential_usage</text>
<text text-anchor="start" x="631.5219" y="-655.8" font-family="Helvetica,sans-Serif" font-size="11.00" fill="#000000">[table]</text>
<polygon fill="none" stroke="#000000" points="477,-628.7 477,-647.7 666,-647.7 666,-628.7 477,-628.7"/>
<text text-anchor="start" x="480" y="-634.8" font-family="Helvetica,sans-Serif" font-size="11.00" fill="#000000">...</text>
<polygon fill="#ffffff" stroke="transparent" points="477,-609.7 477,-628.7 570,-628.7 570,-609.7 477,-609.7"/>
<polygon fill="none" stroke="#000000" points="477,-609.7 477,-628.7 570,-628.7 570,-609.7 477,-609.7"/>
<text text-anchor="start" x="480" y="-615.8" font-family="Helvetica,sans-Serif" font-size="11.00" fill="#000000">&lt; 1</text>
<polygon fill="#ffffff" stroke="transparent" points="570,-609.7 570,-628.7 618,-628.7 618,-609.7 570,-609.7"/>
<polygon fill="none" stroke="#000000" points="570,-609.7 570,-628.7 618,-628.7 618,-609.7 570,-609.7"/>
<text text-anchor="start" x="608.8862" y="-615.8" font-family="Helvetica,sans-Serif" font-size="11.00" fill="#000000"> &#160;</text>
<polygon fill="#ffffff" stroke="transparent" points="618,-609.7 618,-628.7 666,-628.7 666,-609.7 618,-609.7"/>
<polygon fill="none" stroke="#000000" points="618,-609.7 618,-628.7 666,-628.7 666,-609.7 618,-609.7"/>
<text text-anchor="start" x="656.8862" y="-615.8" font-family="Helvetica,sans-Serif" font-size="11.00" fill="#000000"> &#160;</text>
</a>
</g>
</g>
<!-- non_residential_usage&#45;&gt;location -->
<g id="edge6" class="edge">
<title>non_residential_usage:w&#45;&gt;location:e</title>
<path fill="none" stroke="#000000" d="M462.7249,-634.8891C449.8842,-628.7788 446.6189,-613.7071 432,-599.7 412.8088,-581.312 418.0786,-555.7 391.5,-555.7"/>
<polygon fill="#000000" stroke="#000000" points="469.1507,-636.1544 476.3045,-641.2322 473.0754,-636.9272 477,-637.7 477,-637.7 477,-637.7 473.0754,-636.9272 477.6955,-634.1678 469.1507,-636.1544 469.1507,-636.1544"/>
<ellipse fill="none" stroke="#000000" cx="466.011" cy="-635.5361" rx="3.2" ry="3.2"/>
</g>
<!-- residential_attribute -->
<g id="node8" class="node">
<title>residential_attribute</title>
<g id="a_node8"><a xlink:href="../../tables/residential_attribute.html" xlink:title="residential_attribute" target="_top">
<polygon fill="#ffffff" stroke="transparent" points="482,-528.2 482,-589.2 660,-589.2 660,-528.2 482,-528.2"/>
<polygon fill="#f5f5f5" stroke="transparent" points="482,-565.7 482,-588.7 660,-588.7 660,-565.7 482,-565.7"/>
<polygon fill="none" stroke="#000000" points="482,-565.7 482,-588.7 660,-588.7 660,-565.7 482,-565.7"/>
<text text-anchor="start" x="487" y="-574.3" font-family="Helvetica,sans-Serif" font-weight="bold" font-size="11.00" fill="#000000">residential_attribute</text>
<text text-anchor="start" x="625.5219" y="-573.8" font-family="Helvetica,sans-Serif" font-size="11.00" fill="#000000">[table]</text>
<polygon fill="none" stroke="#000000" points="482,-546.7 482,-565.7 660,-565.7 660,-546.7 482,-546.7"/>
<text text-anchor="start" x="485" y="-552.8" font-family="Helvetica,sans-Serif" font-size="11.00" fill="#000000">...</text>
<polygon fill="#ffffff" stroke="transparent" points="482,-527.7 482,-546.7 569,-546.7 569,-527.7 482,-527.7"/>
<polygon fill="none" stroke="#000000" points="482,-527.7 482,-546.7 569,-546.7 569,-527.7 482,-527.7"/>
<text text-anchor="start" x="485" y="-533.8" font-family="Helvetica,sans-Serif" font-size="11.00" fill="#000000">&lt; 1</text>
<polygon fill="#ffffff" stroke="transparent" points="569,-527.7 569,-546.7 614,-546.7 614,-527.7 569,-527.7"/>
<polygon fill="none" stroke="#000000" points="569,-527.7 569,-546.7 614,-546.7 614,-527.7 569,-527.7"/>
<text text-anchor="start" x="604.8862" y="-533.8" font-family="Helvetica,sans-Serif" font-size="11.00" fill="#000000"> &#160;</text>
<polygon fill="#ffffff" stroke="transparent" points="614,-527.7 614,-546.7 660,-546.7 660,-527.7 614,-527.7"/>
<polygon fill="none" stroke="#000000" points="614,-527.7 614,-546.7 660,-546.7 660,-527.7 614,-527.7"/>
<text text-anchor="start" x="650.8862" y="-533.8" font-family="Helvetica,sans-Serif" font-size="11.00" fill="#000000"> &#160;</text>
</a>
</g>
</g>
<!-- residential_attribute&#45;&gt;location -->
<g id="edge7" class="edge">
<title>residential_attribute:w&#45;&gt;location:e</title>
<path fill="none" stroke="#000000" d="M467.429,-555.7C438.5747,-555.7 426.3802,-555.7 391.5,-555.7"/>
<polygon fill="#000000" stroke="#000000" points="474,-555.7001 482,-559.3 478,-555.7 482,-555.7 482,-555.7 482,-555.7 478,-555.7 482,-552.1 474,-555.7001 474,-555.7001"/>
<ellipse fill="none" stroke="#000000" cx="470.8" cy="-555.7001" rx="3.2" ry="3.2"/>
</g>
<!-- service_usage -->
<g id="node9" class="node">
<title>service_usage</title>
<g id="a_node9"><a xlink:href="../../tables/service_usage.html" xlink:title="service_usage" target="_top">
<polygon fill="#ffffff" stroke="transparent" points="504.5,-446.2 504.5,-507.2 637.5,-507.2 637.5,-446.2 504.5,-446.2"/>
<polygon fill="#f5f5f5" stroke="transparent" points="505,-483.7 505,-506.7 638,-506.7 638,-483.7 505,-483.7"/>
<polygon fill="none" stroke="#000000" points="505,-483.7 505,-506.7 638,-506.7 638,-483.7 505,-483.7"/>
<text text-anchor="start" x="510" y="-492.3" font-family="Helvetica,sans-Serif" font-weight="bold" font-size="11.00" fill="#000000">service_usage</text>
<text text-anchor="start" x="603.5219" y="-491.8" font-family="Helvetica,sans-Serif" font-size="11.00" fill="#000000">[table]</text>
<polygon fill="none" stroke="#000000" points="505,-464.7 505,-483.7 638,-483.7 638,-464.7 505,-464.7"/>
<text text-anchor="start" x="508" y="-470.8" font-family="Helvetica,sans-Serif" font-size="11.00" fill="#000000">...</text>
<polygon fill="#ffffff" stroke="transparent" points="505,-445.7 505,-464.7 570,-464.7 570,-445.7 505,-445.7"/>
<polygon fill="none" stroke="#000000" points="505,-445.7 505,-464.7 570,-464.7 570,-445.7 505,-445.7"/>
<text text-anchor="start" x="508" y="-451.8" font-family="Helvetica,sans-Serif" font-size="11.00" fill="#000000">&lt; 1</text>
<polygon fill="#ffffff" stroke="transparent" points="570,-445.7 570,-464.7 604,-464.7 604,-445.7 570,-445.7"/>
<polygon fill="none" stroke="#000000" points="570,-445.7 570,-464.7 604,-464.7 604,-445.7 570,-445.7"/>
<text text-anchor="start" x="594.8862" y="-451.8" font-family="Helvetica,sans-Serif" font-size="11.00" fill="#000000"> &#160;</text>
<polygon fill="#ffffff" stroke="transparent" points="604,-445.7 604,-464.7 638,-464.7 638,-445.7 604,-445.7"/>
<polygon fill="none" stroke="#000000" points="604,-445.7 604,-464.7 638,-464.7 638,-445.7 604,-445.7"/>
<text text-anchor="start" x="628.8862" y="-451.8" font-family="Helvetica,sans-Serif" font-size="11.00" fill="#000000"> &#160;</text>
</a>
</g>
</g>
<!-- service_usage&#45;&gt;location -->
<g id="edge8" class="edge">
<title>service_usage:w&#45;&gt;location:e</title>
<path fill="none" stroke="#000000" d="M490.4646,-474.9659C465.1689,-479.8454 457.838,-498.1394 432,-517.7 412.3206,-532.5982 416.1827,-555.7 391.5,-555.7"/>
<polygon fill="#000000" stroke="#000000" points="497.0302,-474.3941 505.3124,-477.2864 501.0151,-474.0471 505,-473.7 505,-473.7 505,-473.7 501.0151,-474.0471 504.6876,-470.1136 497.0302,-474.3941 497.0302,-474.3941"/>
<ellipse fill="none" stroke="#000000" cx="493.8422" cy="-474.6718" rx="3.2" ry="3.2"/>
</g>
<!-- specialist_cell -->
<g id="node10" class="node">
<title>specialist_cell</title>
<g id="a_node10"><a xlink:href="../../tables/specialist_cell.html" xlink:title="specialist_cell" target="_top">
<polygon fill="#ffffff" stroke="transparent" points="505,-364.2 505,-425.2 637,-425.2 637,-364.2 505,-364.2"/>
<polygon fill="#f5f5f5" stroke="transparent" points="505,-401.7 505,-424.7 637,-424.7 637,-401.7 505,-401.7"/>
<polygon fill="none" stroke="#000000" points="505,-401.7 505,-424.7 637,-424.7 637,-401.7 505,-401.7"/>
<text text-anchor="start" x="510" y="-410.3" font-family="Helvetica,sans-Serif" font-weight="bold" font-size="11.00" fill="#000000">specialist_cell</text>
<text text-anchor="start" x="602.5219" y="-409.8" font-family="Helvetica,sans-Serif" font-size="11.00" fill="#000000">[table]</text>
<polygon fill="none" stroke="#000000" points="505,-382.7 505,-401.7 637,-401.7 637,-382.7 505,-382.7"/>
<text text-anchor="start" x="508" y="-388.8" font-family="Helvetica,sans-Serif" font-size="11.00" fill="#000000">...</text>
<polygon fill="#ffffff" stroke="transparent" points="505,-363.7 505,-382.7 569,-382.7 569,-363.7 505,-363.7"/>
<polygon fill="none" stroke="#000000" points="505,-363.7 505,-382.7 569,-382.7 569,-363.7 505,-363.7"/>
<text text-anchor="start" x="508" y="-369.8" font-family="Helvetica,sans-Serif" font-size="11.00" fill="#000000">&lt; 1</text>
<polygon fill="#ffffff" stroke="transparent" points="569,-363.7 569,-382.7 603,-382.7 603,-363.7 569,-363.7"/>
<polygon fill="none" stroke="#000000" points="569,-363.7 569,-382.7 603,-382.7 603,-363.7 569,-363.7"/>
<text text-anchor="start" x="593.8862" y="-369.8" font-family="Helvetica,sans-Serif" font-size="11.00" fill="#000000"> &#160;</text>
<polygon fill="#ffffff" stroke="transparent" points="603,-363.7 603,-382.7 637,-382.7 637,-363.7 603,-363.7"/>
<polygon fill="none" stroke="#000000" points="603,-363.7 603,-382.7 637,-382.7 637,-363.7 603,-363.7"/>
<text text-anchor="start" x="627.8862" y="-369.8" font-family="Helvetica,sans-Serif" font-size="11.00" fill="#000000"> &#160;</text>
</a>
</g>
</g>
<!-- specialist_cell&#45;&gt;location -->
<g id="edge9" class="edge">
<title>specialist_cell:w&#45;&gt;location:e</title>
<path fill="none" stroke="#000000" d="M490.4822,-392.5601C463.6708,-396.0677 452.3926,-410.3234 432,-435.7 396.7404,-479.5772 447.7889,-555.7 391.5,-555.7"/>
<polygon fill="#000000" stroke="#000000" points="497.014,-392.1732 505.2129,-395.2937 501.007,-391.9366 505,-391.7 505,-391.7 505,-391.7 501.007,-391.9366 504.7871,-388.1063 497.014,-392.1732 497.014,-392.1732"/>
<ellipse fill="none" stroke="#000000" cx="493.8196" cy="-392.3625" rx="3.2" ry="3.2"/>
</g>
</g>
</svg>
