<?xml version="1.0" encoding="UTF-8" standalone="no"?>
<!DOCTYPE svg PUBLIC "-//W3C//DTD SVG 1.1//EN"
 "http://www.w3.org/Graphics/SVG/1.1/DTD/svg11.dtd">
<!-- Generated by graphviz version 2.40.1 (20161225.0304)
 -->
<!-- Title: oneDegreeRelationshipsDiagram Pages: 1 -->
<svg width="570pt" height="355pt"
 viewBox="0.00 0.00 570.00 354.70" xmlns="http://www.w3.org/2000/svg" xmlns:xlink="http://www.w3.org/1999/xlink">
<g id="graph0" class="graph" transform="scale(1 1) rotate(0) translate(4 350.7)">
<title>oneDegreeRelationshipsDiagram</title>
<polygon fill="#ffffff" stroke="transparent" points="-4,4 -4,-350.7 566,-350.7 566,4 -4,4"/>
<text text-anchor="middle" x="72.4936" y="-7.3" font-family="Helvetica,sans-Serif" font-size="11.00" fill="#000000">Generated by SchemaSpy</text>
<!-- residential_attribute -->
<g id="node1" class="node">
<title>residential_attribute</title>
<g id="a_node1"><a xlink:href="../../tables/residential_attribute.html" xlink:title="residential_attribute" target="_top">
<polygon fill="#ffffff" stroke="transparent" points="296,-208.7 296,-342.7 554,-342.7 554,-208.7 296,-208.7"/>
<polygon fill="#f5f5f5" stroke="transparent" points="298,-317.7 298,-340.7 552,-340.7 552,-317.7 298,-317.7"/>
<polygon fill="none" stroke="#000000" points="298,-317.7 298,-340.7 552,-340.7 552,-317.7 298,-317.7"/>
<text text-anchor="start" x="303" y="-326.3" font-family="Helvetica,sans-Serif" font-weight="bold" font-size="11.00" fill="#000000">residential_attribute</text>
<text text-anchor="start" x="517.0437" y="-325.8" font-family="Helvetica,sans-Serif" font-size="11.00" fill="#000000">[table]</text>
<polygon fill="none" stroke="#000000" points="298,-295.7 298,-317.7 458,-317.7 458,-295.7 298,-295.7"/>
<image xlink:href="../../images/primaryKeys.png" width="11px" height="12px" preserveAspectRatio="xMinYMin meet" x="303" y="-312.7"/>
<text text-anchor="start" x="318" y="-302.8" font-family="Helvetica,sans-Serif" font-size="11.00" fill="#000000">id</text>
<polygon fill="none" stroke="#000000" points="458,-295.7 458,-317.7 552,-317.7 552,-295.7 458,-295.7"/>
<text text-anchor="start" x="461" y="-303.4" font-family="Helvetica,sans-Serif" font-size="11.00" fill="#000000">serial[10]</text>
<polygon fill="#ffffff" stroke="transparent" points="298,-273.7 298,-295.7 458,-295.7 458,-273.7 298,-273.7"/>
<polygon fill="none" stroke="#000000" points="298,-273.7 298,-295.7 458,-295.7 458,-273.7 298,-273.7"/>
<image xlink:href="../../images/foreignKeys.png" width="11px" height="12px" preserveAspectRatio="xMinYMin meet" x="303" y="-290.7"/>
<text text-anchor="start" x="318" y="-280.8" font-family="Helvetica,sans-Serif" font-size="11.00" fill="#000000">location_id</text>
<polygon fill="none" stroke="#000000" points="458,-273.7 458,-295.7 552,-295.7 552,-273.7 458,-273.7"/>
<text text-anchor="start" x="460.9758" y="-281.4" font-family="Helvetica,sans-Serif" font-size="11.00" fill="#000000">uuid[2147483647]</text>
<polygon fill="#ffffff" stroke="transparent" points="298,-251.7 298,-273.7 458,-273.7 458,-251.7 298,-251.7"/>
<polygon fill="none" stroke="#000000" points="298,-251.7 298,-273.7 458,-273.7 458,-251.7 298,-251.7"/>
<text text-anchor="start" x="318" y="-258.8" font-family="Helvetica,sans-Serif" font-size="11.00" fill="#000000">attribute_type</text>
<polygon fill="none" stroke="#000000" points="458,-251.7 458,-273.7 552,-273.7 552,-251.7 458,-251.7"/>
<text text-anchor="start" x="461" y="-259.4" font-family="Helvetica,sans-Serif" font-size="11.00" fill="#000000">varchar[60]</text>
<polygon fill="#ffffff" stroke="transparent" points="298,-229.7 298,-251.7 458,-251.7 458,-229.7 298,-229.7"/>
<polygon fill="none" stroke="#000000" points="298,-229.7 298,-251.7 458,-251.7 458,-229.7 298,-229.7"/>
<text text-anchor="start" x="318" y="-236.8" font-family="Helvetica,sans-Serif" font-size="11.00" fill="#000000">attribute_value</text>
<polygon fill="none" stroke="#000000" points="458,-229.7 458,-251.7 552,-251.7 552,-229.7 458,-229.7"/>
<text text-anchor="start" x="461" y="-237.4" font-family="Helvetica,sans-Serif" font-size="11.00" fill="#000000">varchar[60]</text>
<polygon fill="#ffffff" stroke="transparent" points="298,-210.7 298,-229.7 382,-229.7 382,-210.7 298,-210.7"/>
<polygon fill="none" stroke="#000000" points="298,-210.7 298,-229.7 382,-229.7 382,-210.7 298,-210.7"/>
<text text-anchor="start" x="301" y="-216.8" font-family="Helvetica,sans-Serif" font-size="11.00" fill="#000000">&lt; 1</text>
<polygon fill="#ffffff" stroke="transparent" points="382,-210.7 382,-229.7 458,-229.7 458,-210.7 382,-210.7"/>
<polygon fill="none" stroke="#000000" points="382,-210.7 382,-229.7 458,-229.7 458,-210.7 382,-210.7"/>
<text text-anchor="start" x="448.8862" y="-216.8" font-family="Helvetica,sans-Serif" font-size="11.00" fill="#000000"> &#160;</text>
<polygon fill="#ffffff" stroke="transparent" points="458,-210.7 458,-229.7 552,-229.7 552,-210.7 458,-210.7"/>
<polygon fill="none" stroke="#000000" points="458,-210.7 458,-229.7 552,-229.7 552,-210.7 458,-210.7"/>
<text text-anchor="start" x="533.4053" y="-216.8" font-family="Helvetica,sans-Serif" font-size="11.00" fill="#000000">0 &gt;</text>
<polygon fill="none" stroke="#000000" stroke-width="2" points="297,-209.7 297,-341.7 553,-341.7 553,-209.7 297,-209.7"/>
</a>
</g>
</g>
<!-- location -->
<g id="node2" class="node">
<title>location</title>
<g id="a_node2"><a xlink:href="../../tables/location.html" xlink:title="location" target="_top">
<polygon fill="#ffffff" stroke="transparent" points="8,-38.2 8,-319.2 247,-319.2 247,-38.2 8,-38.2"/>
<polygon fill="#f5f5f5" stroke="transparent" points="8.5,-295.7 8.5,-318.7 247.5,-318.7 247.5,-295.7 8.5,-295.7"/>
<polygon fill="none" stroke="#000000" points="8.5,-295.7 8.5,-318.7 247.5,-318.7 247.5,-295.7 8.5,-295.7"/>
<text text-anchor="start" x="13.5" y="-304.3" font-family="Helvetica,sans-Serif" font-weight="bold" font-size="11.00" fill="#000000">location</text>
<text text-anchor="start" x="212.5437" y="-303.8" font-family="Helvetica,sans-Serif" font-size="11.00" fill="#000000">[table]</text>
<polygon fill="none" stroke="#000000" points="8.5,-273.7 8.5,-295.7 247.5,-295.7 247.5,-273.7 8.5,-273.7"/>
<image xlink:href="../../images/primaryKeys.png" width="11px" height="12px" preserveAspectRatio="xMinYMin meet" x="13.5" y="-290.7"/>
<text text-anchor="start" x="28.5" y="-280.8" font-family="Helvetica,sans-Serif" font-size="11.00" fill="#000000">id</text>
<polygon fill="#ffffff" stroke="transparent" points="8.5,-251.7 8.5,-273.7 247.5,-273.7 247.5,-251.7 8.5,-251.7"/>
<polygon fill="none" stroke="#000000" points="8.5,-251.7 8.5,-273.7 247.5,-273.7 247.5,-251.7 8.5,-251.7"/>
<image xlink:href="../../images/foreignKeys.png" width="11px" height="12px" preserveAspectRatio="xMinYMin meet" x="13.5" y="-268.7"/>
<text text-anchor="start" x="28.5" y="-258.8" font-family="Helvetica,sans-Serif" font-size="11.00" fill="#000000">prison_id</text>
<polygon fill="#ffffff" stroke="transparent" points="8.5,-229.7 8.5,-251.7 247.5,-251.7 247.5,-229.7 8.5,-229.7"/>
<polygon fill="none" stroke="#000000" points="8.5,-229.7 8.5,-251.7 247.5,-251.7 247.5,-229.7 8.5,-229.7"/>
<text text-anchor="start" x="28.5" y="-236.8" font-family="Helvetica,sans-Serif" font-size="11.00" fill="#000000">path_hierarchy</text>
<polygon fill="#ffffff" stroke="transparent" points="8.5,-207.7 8.5,-229.7 247.5,-229.7 247.5,-207.7 8.5,-207.7"/>
<polygon fill="none" stroke="#000000" points="8.5,-207.7 8.5,-229.7 247.5,-229.7 247.5,-207.7 8.5,-207.7"/>
<text text-anchor="start" x="28.5" y="-214.8" font-family="Helvetica,sans-Serif" font-size="11.00" fill="#000000">code</text>
<polygon fill="#ffffff" stroke="transparent" points="8.5,-185.7 8.5,-207.7 247.5,-207.7 247.5,-185.7 8.5,-185.7"/>
<polygon fill="none" stroke="#000000" points="8.5,-185.7 8.5,-207.7 247.5,-207.7 247.5,-185.7 8.5,-185.7"/>
<text text-anchor="start" x="28.5" y="-192.8" font-family="Helvetica,sans-Serif" font-size="11.00" fill="#000000">location_type</text>
<polygon fill="#ffffff" stroke="transparent" points="8.5,-163.7 8.5,-185.7 247.5,-185.7 247.5,-163.7 8.5,-163.7"/>
<polygon fill="none" stroke="#000000" points="8.5,-163.7 8.5,-185.7 247.5,-185.7 247.5,-163.7 8.5,-163.7"/>
<image xlink:href="../../images/foreignKeys.png" width="11px" height="12px" preserveAspectRatio="xMinYMin meet" x="13.5" y="-180.7"/>
<text text-anchor="start" x="28.5" y="-170.8" font-family="Helvetica,sans-Serif" font-size="11.00" fill="#000000">parent_id</text>
<polygon fill="#ffffff" stroke="transparent" points="8.5,-141.7 8.5,-163.7 247.5,-163.7 247.5,-141.7 8.5,-141.7"/>
<polygon fill="none" stroke="#000000" points="8.5,-141.7 8.5,-163.7 247.5,-163.7 247.5,-141.7 8.5,-141.7"/>
<text text-anchor="start" x="28.5" y="-148.8" font-family="Helvetica,sans-Serif" font-size="11.00" fill="#000000">residential_housing_type</text>
<polygon fill="#ffffff" stroke="transparent" points="8.5,-119.7 8.5,-141.7 247.5,-141.7 247.5,-119.7 8.5,-119.7"/>
<polygon fill="none" stroke="#000000" points="8.5,-119.7 8.5,-141.7 247.5,-141.7 247.5,-119.7 8.5,-119.7"/>
<image xlink:href="../../images/foreignKeys.png" width="11px" height="12px" preserveAspectRatio="xMinYMin meet" x="13.5" y="-136.7"/>
<text text-anchor="start" x="28.5" y="-126.8" font-family="Helvetica,sans-Serif" font-size="11.00" fill="#000000">capacity_id</text>
<polygon fill="#ffffff" stroke="transparent" points="8.5,-97.7 8.5,-119.7 247.5,-119.7 247.5,-97.7 8.5,-97.7"/>
<polygon fill="none" stroke="#000000" points="8.5,-97.7 8.5,-119.7 247.5,-119.7 247.5,-97.7 8.5,-97.7"/>
<text text-anchor="start" x="28.5" y="-104.8" font-family="Helvetica,sans-Serif" font-size="11.00" fill="#000000">location_type_discriminator</text>
<polygon fill="#ffffff" stroke="transparent" points="8.5,-75.7 8.5,-97.7 247.5,-97.7 247.5,-75.7 8.5,-75.7"/>
<polygon fill="none" stroke="#000000" points="8.5,-75.7 8.5,-97.7 247.5,-97.7 247.5,-75.7 8.5,-75.7"/>
<text text-anchor="start" x="28.5" y="-82.8" font-family="Helvetica,sans-Serif" font-size="11.00" fill="#000000">status</text>
<polygon fill="none" stroke="#000000" points="8.5,-56.7 8.5,-75.7 247.5,-75.7 247.5,-56.7 8.5,-56.7"/>
<text text-anchor="start" x="11.5" y="-62.8" font-family="Helvetica,sans-Serif" font-size="11.00" fill="#000000">...</text>
<polygon fill="#ffffff" stroke="transparent" points="8.5,-37.7 8.5,-56.7 121.5,-56.7 121.5,-37.7 8.5,-37.7"/>
<polygon fill="none" stroke="#000000" points="8.5,-37.7 8.5,-56.7 121.5,-56.7 121.5,-37.7 8.5,-37.7"/>
<text text-anchor="start" x="11.5" y="-43.8" font-family="Helvetica,sans-Serif" font-size="11.00" fill="#000000">&lt; 2</text>
<polygon fill="#ffffff" stroke="transparent" points="121.5,-37.7 121.5,-56.7 179.5,-56.7 179.5,-37.7 121.5,-37.7"/>
<polygon fill="none" stroke="#000000" points="121.5,-37.7 121.5,-56.7 179.5,-56.7 179.5,-37.7 121.5,-37.7"/>
<text text-anchor="start" x="170.3862" y="-43.8" font-family="Helvetica,sans-Serif" font-size="11.00" fill="#000000"> &#160;</text>
<polygon fill="#ffffff" stroke="transparent" points="179.5,-37.7 179.5,-56.7 247.5,-56.7 247.5,-37.7 179.5,-37.7"/>
<polygon fill="none" stroke="#000000" points="179.5,-37.7 179.5,-56.7 247.5,-56.7 247.5,-37.7 179.5,-37.7"/>
<text text-anchor="start" x="228.9053" y="-43.8" font-family="Helvetica,sans-Serif" font-size="11.00" fill="#000000">8 &gt;</text>
</a>
</g>
</g>
<!-- residential_attribute&#45;&gt;location -->
<g id="edge1" class="edge">
<title>residential_attribute:w&#45;&gt;location:e</title>
<path fill="none" stroke="#000000" d="M283.4203,-284.7C271.5435,-284.7 264.158,-284.7 247.5,-284.7"/>
<polygon fill="#000000" stroke="#000000" points="290,-284.7001 298,-288.3 294,-284.7 298,-284.7 298,-284.7 298,-284.7 294,-284.7 298,-281.1 290,-284.7001 290,-284.7001"/>
<ellipse fill="none" stroke="#000000" cx="286.8" cy="-284.7001" rx="3.2" ry="3.2"/>
</g>
</g>
</svg>
